<svg xmlns="http://www.w3.org/2000/svg" xmlns:xlink="http://www.w3.org/1999/xlink" width="100" zoomAndPan="magnify" viewBox="0 0 75 37.5" height="50" preserveAspectRatio="xMidYMid meet" version="1.0"><defs><g/></defs><g fill="#d9d9d9" fill-opacity="1"><g transform="translate(3.598923, 20.723684)"><g><path d="M 0.53125 -6.84375 L 3.671875 -6.84375 C 4.722656 -6.84375 5.25 -6.398438 5.25 -5.515625 L 5.25 -1.328125 C 5.25 -0.441406 4.722656 0 3.671875 0 L 0.53125 0 Z M 3.375 -1.453125 L 3.375 -5.375 C 3.375 -5.53125 3.285156 -5.609375 3.109375 -5.609375 L 2.390625 -5.609375 L 2.390625 -1.21875 L 3.109375 -1.21875 C 3.285156 -1.21875 3.375 -1.296875 3.375 -1.453125 Z M 3.375 -1.453125 "/></g></g></g><g fill="#d9d9d9" fill-opacity="1"><g transform="translate(10.725977, 20.723684)"><g><path d="M 2.296875 -2.421875 L 2.296875 0 L 0.421875 0 L 0.421875 -6.84375 L 3.59375 -6.84375 C 4.632812 -6.84375 5.15625 -6.398438 5.15625 -5.515625 L 5.15625 -3.75 C 5.15625 -3.070312 4.847656 -2.65625 4.234375 -2.5 L 5.5 0 L 3.5 0 L 2.40625 -2.421875 Z M 3.03125 -5.515625 L 2.296875 -5.515625 L 2.296875 -3.703125 L 3.03125 -3.703125 C 3.207031 -3.703125 3.296875 -3.78125 3.296875 -3.9375 L 3.296875 -5.28125 C 3.296875 -5.4375 3.207031 -5.515625 3.03125 -5.515625 Z M 3.03125 -5.515625 "/></g></g></g><g fill="#d9d9d9" fill-opacity="1"><g transform="translate(17.693261, 20.723684)"><g><path d="M 2.296875 -1.328125 L 4.625 -1.328125 L 4.625 0 L 0.421875 0 L 0.421875 -6.84375 L 4.53125 -6.84375 L 4.53125 -5.515625 L 2.296875 -5.515625 L 2.296875 -4.109375 L 4.21875 -4.109375 L 4.21875 -2.78125 L 2.296875 -2.78125 Z M 2.296875 -1.328125 "/></g></g></g><g fill="#d9d9d9" fill-opacity="1"><g transform="translate(23.968231, 20.723684)"><g><path d="M 3.90625 0 L 3.703125 -1.015625 L 2.0625 -1.015625 L 1.828125 0 L 0 0 L 1.765625 -6.84375 L 4.03125 -6.84375 L 5.78125 0 Z M 2.34375 -2.34375 L 3.40625 -2.34375 L 2.890625 -4.8125 Z M 2.34375 -2.34375 "/></g></g></g><g fill="#d9d9d9" fill-opacity="1"><g transform="translate(31.244393, 20.723684)"><g><path d="M 2.09375 0 L 0.421875 0 L 0.421875 -6.84375 L 2.46875 -6.84375 L 3.5625 -3.1875 L 4.671875 -6.84375 L 6.71875 -6.84375 L 6.71875 0 L 5.0625 0 L 5.0625 -4.34375 L 4.203125 -1.484375 L 2.9375 -1.484375 L 2.09375 -4.328125 Z M 2.09375 0 "/></g></g></g><g fill="#d9d9d9" fill-opacity="1"><g transform="translate(39.873234, 20.723684)"><g><path d="M 2.296875 -1.328125 L 4.625 -1.328125 L 4.625 0 L 0.421875 0 L 0.421875 -6.84375 L 4.53125 -6.84375 L 4.53125 -5.515625 L 2.296875 -5.515625 L 2.296875 -4.109375 L 4.21875 -4.109375 L 4.21875 -2.78125 L 2.296875 -2.78125 Z M 2.296875 -1.328125 "/></g></g></g><g fill="#d9d9d9" fill-opacity="1"><g transform="translate(46.148203, 20.723684)"><g><path d="M 2.296875 -2.421875 L 2.296875 0 L 0.421875 0 L 0.421875 -6.84375 L 3.59375 -6.84375 C 4.632812 -6.84375 5.15625 -6.398438 5.15625 -5.515625 L 5.15625 -3.75 C 5.15625 -3.070312 4.847656 -2.65625 4.234375 -2.5 L 5.5 0 L 3.5 0 L 2.40625 -2.421875 Z M 3.03125 -5.515625 L 2.296875 -5.515625 L 2.296875 -3.703125 L 3.03125 -3.703125 C 3.207031 -3.703125 3.296875 -3.78125 3.296875 -3.9375 L 3.296875 -5.28125 C 3.296875 -5.4375 3.207031 -5.515625 3.03125 -5.515625 Z M 3.03125 -5.515625 "/></g></g></g><g fill="#d9d9d9" fill-opacity="1"><g transform="translate(53.115486, 20.723684)"><g><path d="M 4.734375 -6.84375 L 4.734375 -5.515625 L 2.15625 -1.328125 L 4.65625 -1.328125 L 4.65625 0 L 0.21875 0 L 0.21875 -1.328125 L 2.78125 -5.515625 L 0.359375 -5.515625 L 0.359375 -6.84375 Z M 4.734375 -6.84375 "/></g></g></g><g fill="#d9d9d9" fill-opacity="1"><g transform="translate(61.229346, 20.468237)"><g><path d="M 2.296875 -4.84375 C 2.910156 -4.84375 3.21875 -4.515625 3.21875 -3.859375 L 3.21875 -0.984375 C 3.21875 -0.328125 2.910156 0 2.296875 0 L 0.375 0 L 0.375 -4.84375 Z M 2.171875 -0.875 L 2.171875 -3.984375 C 2.171875 -4.023438 2.15625 -4.054688 2.125 -4.078125 C 2.101562 -4.109375 2.070312 -4.125 2.03125 -4.125 L 1.421875 -4.125 L 1.421875 -0.71875 L 2.03125 -0.71875 C 2.070312 -0.71875 2.101562 -0.734375 2.125 -0.765625 C 2.15625 -0.796875 2.171875 -0.832031 2.171875 -0.875 Z M 2.171875 -0.875 "/></g></g></g><g fill="#d9d9d9" fill-opacity="1"><g transform="translate(67.124591, 20.468237)"><g><path d="M 3.21875 -3.921875 L 3.21875 -0.90625 C 3.21875 -0.25 2.910156 0.078125 2.296875 0.078125 L 1.296875 0.078125 C 0.679688 0.078125 0.375 -0.25 0.375 -0.90625 L 0.375 -3.921875 C 0.375 -4.585938 0.679688 -4.921875 1.296875 -4.921875 L 2.296875 -4.921875 C 2.910156 -4.921875 3.21875 -4.585938 3.21875 -3.921875 Z M 2.171875 -0.796875 L 2.171875 -4.0625 C 2.171875 -4.09375 2.15625 -4.125 2.125 -4.15625 C 2.101562 -4.1875 2.070312 -4.203125 2.03125 -4.203125 L 1.5625 -4.203125 C 1.519531 -4.203125 1.484375 -4.1875 1.453125 -4.15625 C 1.429688 -4.125 1.421875 -4.09375 1.421875 -4.0625 L 1.421875 -0.796875 C 1.421875 -0.753906 1.429688 -0.71875 1.453125 -0.6875 C 1.484375 -0.65625 1.519531 -0.640625 1.5625 -0.640625 L 2.03125 -0.640625 C 2.070312 -0.640625 2.101562 -0.65625 2.125 -0.6875 C 2.15625 -0.71875 2.171875 -0.753906 2.171875 -0.796875 Z M 2.171875 -0.796875 "/></g></g></g></svg>