<svg xmlns="http://www.w3.org/2000/svg" xmlns:xlink="http://www.w3.org/1999/xlink" width="500" zoomAndPan="magnify" viewBox="0 0 375 374.999991" height="500" preserveAspectRatio="xMidYMid meet" version="1.0"><defs><g/><clipPath id="2d0bea37e9"><path d="M 133.363281 118.53125 L 241.363281 118.53125 L 241.363281 192.78125 L 133.363281 192.78125 Z M 133.363281 118.53125 " clip-rule="nonzero"/></clipPath><clipPath id="433cd45a6e"><path d="M 179.496094 177.550781 L 234.535156 177.550781 C 235.707031 175.933594 236.753906 174.222656 237.660156 172.429688 C 237.675781 172.394531 237.691406 172.359375 237.710938 172.328125 C 238.089844 171.570312 238.445312 170.796875 238.769531 170.011719 C 239.460938 168.359375 240.035156 166.648438 240.480469 164.890625 L 172.1875 164.890625 L 170.359375 168.054688 L 169.230469 170.011719 L 165.136719 170.011719 L 164.007812 168.054688 L 162.179688 164.890625 L 154.871094 164.890625 L 151.214844 171.21875 L 153.042969 174.382812 L 154.871094 177.550781 L 162.179688 177.550781 L 164.007812 174.382812 L 165.136719 172.429688 L 169.230469 172.429688 L 170.359375 174.382812 L 172.1875 177.550781 Z M 171.125 141.523438 L 172.253906 143.480469 L 174.082031 146.644531 L 240.480469 146.644531 C 240.035156 144.886719 239.460938 143.175781 238.769531 141.523438 C 238.445312 140.738281 238.089844 139.964844 237.710938 139.207031 C 237.691406 139.171875 237.675781 139.136719 237.65625 139.105469 C 236.753906 137.308594 235.707031 135.597656 234.535156 133.984375 L 174.082031 133.984375 L 172.253906 137.148438 L 171.125 139.105469 L 167.03125 139.105469 L 165.902344 137.148438 L 164.078125 133.984375 L 156.765625 133.984375 L 154.9375 137.148438 L 153.113281 140.3125 L 154.9375 143.480469 L 156.765625 146.644531 L 164.078125 146.644531 L 165.902344 143.480469 L 167.03125 141.523438 Z M 223.167969 123.652344 C 217.644531 120.398438 211.222656 118.53125 204.382812 118.53125 L 190.539062 118.53125 L 188.710938 121.695312 L 187.582031 123.652344 L 183.488281 123.652344 L 180.53125 118.53125 L 173.222656 118.53125 L 171.394531 121.695312 L 170.265625 123.648438 L 169.570312 124.859375 L 170.265625 126.070312 L 171.394531 128.023438 L 173.222656 131.191406 L 180.53125 131.191406 L 182.359375 128.023438 L 183.488281 126.070312 L 187.582031 126.070312 L 188.710938 128.023438 L 190.539062 131.191406 L 232.300781 131.191406 C 230.636719 129.304688 228.789062 127.585938 226.78125 126.070312 C 225.625 125.195312 224.421875 124.386719 223.171875 123.648438 Z M 147.992188 155.765625 L 144.335938 149.4375 L 137.027344 149.4375 L 135.199219 152.601562 L 133.375 155.765625 L 135.199219 158.929688 L 137.027344 162.097656 L 144.335938 162.097656 L 146.164062 158.929688 Z M 156.257812 180.34375 L 137.589844 180.34375 L 135.761719 183.507812 L 133.9375 186.671875 L 135.761719 189.835938 L 137.589844 193.003906 L 156.257812 193.003906 L 158.085938 189.835938 L 159.214844 187.882812 L 163.304688 187.882812 L 164.433594 189.835938 L 166.261719 193.003906 L 204.382812 193.003906 C 211.222656 193.003906 217.644531 191.132812 223.167969 187.882812 C 224.421875 187.144531 225.625 186.335938 226.78125 185.464844 C 228.789062 183.945312 230.636719 182.226562 232.300781 180.34375 L 166.261719 180.34375 L 164.433594 183.507812 L 163.304688 185.464844 L 159.214844 185.464844 L 158.085938 183.507812 Z M 181.761719 149.4375 L 164.121094 149.4375 L 162.292969 152.601562 L 161.164062 154.558594 L 160.464844 155.765625 L 161.164062 156.976562 L 162.292969 158.929688 L 164.121094 162.097656 L 181.761719 162.097656 L 183.589844 158.929688 L 184.71875 156.976562 L 188.8125 156.976562 L 188.113281 155.765625 L 189.941406 158.929688 L 191.769531 162.097656 L 241.078125 162.097656 C 241.367188 160.425781 241.542969 158.714844 241.601562 156.976562 C 241.613281 156.574219 241.617188 156.171875 241.617188 155.765625 C 241.617188 155.363281 241.613281 154.960938 241.601562 154.558594 C 241.542969 152.820312 241.367188 151.109375 241.078125 149.4375 L 191.769531 149.4375 L 188.113281 155.765625 L 188.8125 154.558594 L 184.71875 154.558594 L 183.589844 152.601562 Z M 181.761719 149.4375 " clip-rule="evenodd"/></clipPath><linearGradient x1="2683.681578" gradientTransform="matrix(0.0391489, 0, 0, 0.0391489, 133.374024, 118.530277)" y1="-51.207778" x2="917.306248" gradientUnits="userSpaceOnUse" y2="2525.444817" id="bbac1f6753"><stop stop-opacity="1" stop-color="rgb(0%, 59.599304%, 85.499573%)" offset="0"/><stop stop-opacity="1" stop-color="rgb(0%, 59.599304%, 85.499573%)" offset="0.0625"/><stop stop-opacity="1" stop-color="rgb(0%, 59.640503%, 85.371399%)" offset="0.078125"/><stop stop-opacity="1" stop-color="rgb(0%, 59.750366%, 85.035706%)" offset="0.0820312"/><stop stop-opacity="1" stop-color="rgb(0%, 59.819031%, 84.828186%)" offset="0.0859375"/><stop stop-opacity="1" stop-color="rgb(0%, 59.886169%, 84.620667%)" offset="0.0898437"/><stop stop-opacity="1" stop-color="rgb(0%, 59.954834%, 84.413147%)" offset="0.09375"/><stop stop-opacity="1" stop-color="rgb(0%, 60.021973%, 84.204102%)" offset="0.0976562"/><stop stop-opacity="1" stop-color="rgb(0%, 60.090637%, 83.996582%)" offset="0.101562"/><stop stop-opacity="1" stop-color="rgb(0%, 60.159302%, 83.789062%)" offset="0.105469"/><stop stop-opacity="1" stop-color="rgb(0%, 60.227966%, 83.581543%)" offset="0.109375"/><stop stop-opacity="1" stop-color="rgb(0%, 60.295105%, 83.374023%)" offset="0.113281"/><stop stop-opacity="1" stop-color="rgb(0%, 60.36377%, 83.166504%)" offset="0.117187"/><stop stop-opacity="1" stop-color="rgb(0%, 60.430908%, 82.958984%)" offset="0.121094"/><stop stop-opacity="1" stop-color="rgb(0%, 60.499573%, 82.751465%)" offset="0.125"/><stop stop-opacity="1" stop-color="rgb(0%, 60.566711%, 82.543945%)" offset="0.128906"/><stop stop-opacity="1" stop-color="rgb(0%, 60.635376%, 82.336426%)" offset="0.132812"/><stop stop-opacity="1" stop-color="rgb(0%, 60.702515%, 82.128906%)" offset="0.136719"/><stop stop-opacity="1" stop-color="rgb(0%, 60.771179%, 81.921387%)" offset="0.140625"/><stop stop-opacity="1" stop-color="rgb(0%, 60.838318%, 81.713867%)" offset="0.144531"/><stop stop-opacity="1" stop-color="rgb(0%, 60.906982%, 81.506348%)" offset="0.148437"/><stop stop-opacity="1" stop-color="rgb(0%, 60.975647%, 81.297302%)" offset="0.152344"/><stop stop-opacity="1" stop-color="rgb(0%, 61.044312%, 81.089783%)" offset="0.15625"/><stop stop-opacity="1" stop-color="rgb(0%, 61.11145%, 80.882263%)" offset="0.160156"/><stop stop-opacity="1" stop-color="rgb(0%, 61.180115%, 80.674744%)" offset="0.164062"/><stop stop-opacity="1" stop-color="rgb(0%, 61.247253%, 80.467224%)" offset="0.167969"/><stop stop-opacity="1" stop-color="rgb(0%, 61.315918%, 80.259705%)" offset="0.171875"/><stop stop-opacity="1" stop-color="rgb(0%, 61.383057%, 80.052185%)" offset="0.175781"/><stop stop-opacity="1" stop-color="rgb(0%, 61.451721%, 79.844666%)" offset="0.179687"/><stop stop-opacity="1" stop-color="rgb(0%, 61.51886%, 79.637146%)" offset="0.183594"/><stop stop-opacity="1" stop-color="rgb(0%, 61.587524%, 79.429626%)" offset="0.1875"/><stop stop-opacity="1" stop-color="rgb(0%, 61.654663%, 79.222107%)" offset="0.191406"/><stop stop-opacity="1" stop-color="rgb(0%, 61.723328%, 79.014587%)" offset="0.195312"/><stop stop-opacity="1" stop-color="rgb(0%, 61.791992%, 78.807068%)" offset="0.199219"/><stop stop-opacity="1" stop-color="rgb(0%, 61.860657%, 78.599548%)" offset="0.203125"/><stop stop-opacity="1" stop-color="rgb(0%, 61.927795%, 78.390503%)" offset="0.207031"/><stop stop-opacity="1" stop-color="rgb(0%, 61.99646%, 78.182983%)" offset="0.210938"/><stop stop-opacity="1" stop-color="rgb(0%, 62.063599%, 77.975464%)" offset="0.214844"/><stop stop-opacity="1" stop-color="rgb(0%, 62.132263%, 77.767944%)" offset="0.21875"/><stop stop-opacity="1" stop-color="rgb(0%, 62.199402%, 77.560425%)" offset="0.222656"/><stop stop-opacity="1" stop-color="rgb(0%, 62.268066%, 77.352905%)" offset="0.226562"/><stop stop-opacity="1" stop-color="rgb(0%, 62.335205%, 77.145386%)" offset="0.230469"/><stop stop-opacity="1" stop-color="rgb(0%, 62.40387%, 76.937866%)" offset="0.234375"/><stop stop-opacity="1" stop-color="rgb(0%, 62.471008%, 76.730347%)" offset="0.238281"/><stop stop-opacity="1" stop-color="rgb(0%, 62.539673%, 76.522827%)" offset="0.242188"/><stop stop-opacity="1" stop-color="rgb(0%, 62.606812%, 76.315308%)" offset="0.246094"/><stop stop-opacity="1" stop-color="rgb(0%, 62.675476%, 76.107788%)" offset="0.25"/><stop stop-opacity="1" stop-color="rgb(0%, 62.744141%, 75.900269%)" offset="0.253906"/><stop stop-opacity="1" stop-color="rgb(0%, 62.812805%, 75.692749%)" offset="0.257812"/><stop stop-opacity="1" stop-color="rgb(0%, 62.879944%, 75.485229%)" offset="0.261719"/><stop stop-opacity="1" stop-color="rgb(0%, 62.948608%, 75.27771%)" offset="0.265625"/><stop stop-opacity="1" stop-color="rgb(0%, 63.015747%, 75.068665%)" offset="0.269531"/><stop stop-opacity="1" stop-color="rgb(0%, 63.084412%, 74.861145%)" offset="0.273437"/><stop stop-opacity="1" stop-color="rgb(0%, 63.15155%, 74.653625%)" offset="0.277344"/><stop stop-opacity="1" stop-color="rgb(0%, 63.220215%, 74.446106%)" offset="0.28125"/><stop stop-opacity="1" stop-color="rgb(0%, 63.287354%, 74.238586%)" offset="0.285156"/><stop stop-opacity="1" stop-color="rgb(0%, 63.356018%, 74.031067%)" offset="0.289062"/><stop stop-opacity="1" stop-color="rgb(0%, 63.423157%, 73.823547%)" offset="0.292969"/><stop stop-opacity="1" stop-color="rgb(0%, 63.491821%, 73.616028%)" offset="0.296875"/><stop stop-opacity="1" stop-color="rgb(0%, 63.560486%, 73.408508%)" offset="0.300781"/><stop stop-opacity="1" stop-color="rgb(0%, 63.62915%, 73.200989%)" offset="0.304688"/><stop stop-opacity="1" stop-color="rgb(0%, 63.696289%, 72.993469%)" offset="0.308594"/><stop stop-opacity="1" stop-color="rgb(0%, 63.764954%, 72.78595%)" offset="0.3125"/><stop stop-opacity="1" stop-color="rgb(0%, 63.832092%, 72.57843%)" offset="0.316406"/><stop stop-opacity="1" stop-color="rgb(0%, 63.900757%, 72.370911%)" offset="0.320312"/><stop stop-opacity="1" stop-color="rgb(0%, 63.967896%, 72.161865%)" offset="0.324219"/><stop stop-opacity="1" stop-color="rgb(0%, 64.03656%, 71.954346%)" offset="0.328125"/><stop stop-opacity="1" stop-color="rgb(0%, 64.103699%, 71.746826%)" offset="0.332031"/><stop stop-opacity="1" stop-color="rgb(0%, 64.172363%, 71.539307%)" offset="0.335938"/><stop stop-opacity="1" stop-color="rgb(0%, 64.239502%, 71.331787%)" offset="0.339844"/><stop stop-opacity="1" stop-color="rgb(0%, 64.308167%, 71.124268%)" offset="0.34375"/><stop stop-opacity="1" stop-color="rgb(0%, 64.376831%, 70.916748%)" offset="0.347656"/><stop stop-opacity="1" stop-color="rgb(0%, 64.445496%, 70.709229%)" offset="0.351562"/><stop stop-opacity="1" stop-color="rgb(0%, 64.512634%, 70.501709%)" offset="0.355469"/><stop stop-opacity="1" stop-color="rgb(0%, 64.581299%, 70.294189%)" offset="0.359375"/><stop stop-opacity="1" stop-color="rgb(0%, 64.648438%, 70.08667%)" offset="0.363281"/><stop stop-opacity="1" stop-color="rgb(0%, 64.717102%, 69.87915%)" offset="0.367187"/><stop stop-opacity="1" stop-color="rgb(0%, 64.784241%, 69.671631%)" offset="0.371094"/><stop stop-opacity="1" stop-color="rgb(0%, 64.852905%, 69.464111%)" offset="0.375"/><stop stop-opacity="1" stop-color="rgb(0%, 64.920044%, 69.255066%)" offset="0.378906"/><stop stop-opacity="1" stop-color="rgb(0%, 64.988708%, 69.047546%)" offset="0.382812"/><stop stop-opacity="1" stop-color="rgb(0%, 65.055847%, 68.840027%)" offset="0.386719"/><stop stop-opacity="1" stop-color="rgb(0%, 65.124512%, 68.632507%)" offset="0.390625"/><stop stop-opacity="1" stop-color="rgb(0%, 65.19165%, 68.424988%)" offset="0.394531"/><stop stop-opacity="1" stop-color="rgb(0%, 65.260315%, 68.217468%)" offset="0.398438"/><stop stop-opacity="1" stop-color="rgb(0%, 65.328979%, 68.009949%)" offset="0.402344"/><stop stop-opacity="1" stop-color="rgb(0%, 65.397644%, 67.802429%)" offset="0.40625"/><stop stop-opacity="1" stop-color="rgb(0%, 65.464783%, 67.59491%)" offset="0.410156"/><stop stop-opacity="1" stop-color="rgb(0%, 65.533447%, 67.38739%)" offset="0.414062"/><stop stop-opacity="1" stop-color="rgb(0%, 65.600586%, 67.179871%)" offset="0.417969"/><stop stop-opacity="1" stop-color="rgb(0%, 65.66925%, 66.972351%)" offset="0.421875"/><stop stop-opacity="1" stop-color="rgb(0%, 65.736389%, 66.764832%)" offset="0.425781"/><stop stop-opacity="1" stop-color="rgb(0%, 65.805054%, 66.557312%)" offset="0.429688"/><stop stop-opacity="1" stop-color="rgb(0%, 65.872192%, 66.348267%)" offset="0.433594"/><stop stop-opacity="1" stop-color="rgb(0%, 65.940857%, 66.140747%)" offset="0.4375"/><stop stop-opacity="1" stop-color="rgb(0%, 66.007996%, 65.933228%)" offset="0.441406"/><stop stop-opacity="1" stop-color="rgb(0%, 66.07666%, 65.725708%)" offset="0.445312"/><stop stop-opacity="1" stop-color="rgb(0%, 66.145325%, 65.518188%)" offset="0.449219"/><stop stop-opacity="1" stop-color="rgb(0%, 66.213989%, 65.310669%)" offset="0.453125"/><stop stop-opacity="1" stop-color="rgb(0%, 66.281128%, 65.103149%)" offset="0.457031"/><stop stop-opacity="1" stop-color="rgb(0%, 66.349792%, 64.89563%)" offset="0.460937"/><stop stop-opacity="1" stop-color="rgb(0%, 66.416931%, 64.68811%)" offset="0.464844"/><stop stop-opacity="1" stop-color="rgb(0%, 66.485596%, 64.480591%)" offset="0.46875"/><stop stop-opacity="1" stop-color="rgb(0%, 66.552734%, 64.273071%)" offset="0.472656"/><stop stop-opacity="1" stop-color="rgb(0%, 66.621399%, 64.065552%)" offset="0.476562"/><stop stop-opacity="1" stop-color="rgb(0%, 66.688538%, 63.858032%)" offset="0.480469"/><stop stop-opacity="1" stop-color="rgb(0%, 66.757202%, 63.650513%)" offset="0.484375"/><stop stop-opacity="1" stop-color="rgb(0%, 66.824341%, 63.442993%)" offset="0.488281"/><stop stop-opacity="1" stop-color="rgb(0%, 66.893005%, 63.235474%)" offset="0.492187"/><stop stop-opacity="1" stop-color="rgb(0%, 66.96167%, 63.026428%)" offset="0.496094"/><stop stop-opacity="1" stop-color="rgb(0%, 67.030334%, 62.818909%)" offset="0.5"/><stop stop-opacity="1" stop-color="rgb(0%, 67.097473%, 62.611389%)" offset="0.503906"/><stop stop-opacity="1" stop-color="rgb(0%, 67.166138%, 62.40387%)" offset="0.507812"/><stop stop-opacity="1" stop-color="rgb(0%, 67.233276%, 62.19635%)" offset="0.511719"/><stop stop-opacity="1" stop-color="rgb(0%, 67.301941%, 61.988831%)" offset="0.515625"/><stop stop-opacity="1" stop-color="rgb(0%, 67.36908%, 61.781311%)" offset="0.519531"/><stop stop-opacity="1" stop-color="rgb(0%, 67.437744%, 61.573792%)" offset="0.523438"/><stop stop-opacity="1" stop-color="rgb(0%, 67.504883%, 61.366272%)" offset="0.527344"/><stop stop-opacity="1" stop-color="rgb(0%, 67.573547%, 61.158752%)" offset="0.53125"/><stop stop-opacity="1" stop-color="rgb(0%, 67.640686%, 60.951233%)" offset="0.535156"/><stop stop-opacity="1" stop-color="rgb(0%, 67.709351%, 60.743713%)" offset="0.539063"/><stop stop-opacity="1" stop-color="rgb(0%, 67.778015%, 60.536194%)" offset="0.542969"/><stop stop-opacity="1" stop-color="rgb(0%, 67.84668%, 60.328674%)" offset="0.546875"/><stop stop-opacity="1" stop-color="rgb(0%, 67.913818%, 60.119629%)" offset="0.550781"/><stop stop-opacity="1" stop-color="rgb(0%, 67.982483%, 59.912109%)" offset="0.554687"/><stop stop-opacity="1" stop-color="rgb(0%, 68.049622%, 59.70459%)" offset="0.558594"/><stop stop-opacity="1" stop-color="rgb(0%, 68.118286%, 59.49707%)" offset="0.5625"/><stop stop-opacity="1" stop-color="rgb(0%, 68.185425%, 59.289551%)" offset="0.566406"/><stop stop-opacity="1" stop-color="rgb(0%, 68.254089%, 59.082031%)" offset="0.570312"/><stop stop-opacity="1" stop-color="rgb(0%, 68.321228%, 58.874512%)" offset="0.574219"/><stop stop-opacity="1" stop-color="rgb(0%, 68.389893%, 58.666992%)" offset="0.578125"/><stop stop-opacity="1" stop-color="rgb(0%, 68.457031%, 58.459473%)" offset="0.582031"/><stop stop-opacity="1" stop-color="rgb(0%, 68.525696%, 58.251953%)" offset="0.585938"/><stop stop-opacity="1" stop-color="rgb(0%, 68.592834%, 58.044434%)" offset="0.589844"/><stop stop-opacity="1" stop-color="rgb(0%, 68.661499%, 57.836914%)" offset="0.59375"/><stop stop-opacity="1" stop-color="rgb(0%, 68.730164%, 57.629395%)" offset="0.597656"/><stop stop-opacity="1" stop-color="rgb(0%, 68.798828%, 57.421875%)" offset="0.601562"/><stop stop-opacity="1" stop-color="rgb(0%, 68.865967%, 57.21283%)" offset="0.605469"/><stop stop-opacity="1" stop-color="rgb(0%, 68.934631%, 57.00531%)" offset="0.609375"/><stop stop-opacity="1" stop-color="rgb(0%, 69.00177%, 56.797791%)" offset="0.613281"/><stop stop-opacity="1" stop-color="rgb(0%, 69.070435%, 56.590271%)" offset="0.617188"/><stop stop-opacity="1" stop-color="rgb(0%, 69.137573%, 56.382751%)" offset="0.621094"/><stop stop-opacity="1" stop-color="rgb(0%, 69.206238%, 56.175232%)" offset="0.625"/><stop stop-opacity="1" stop-color="rgb(0%, 69.273376%, 55.967712%)" offset="0.628906"/><stop stop-opacity="1" stop-color="rgb(0%, 69.342041%, 55.760193%)" offset="0.632813"/><stop stop-opacity="1" stop-color="rgb(0%, 69.40918%, 55.552673%)" offset="0.636719"/><stop stop-opacity="1" stop-color="rgb(0%, 69.477844%, 55.345154%)" offset="0.640625"/><stop stop-opacity="1" stop-color="rgb(0%, 69.546509%, 55.137634%)" offset="0.644531"/><stop stop-opacity="1" stop-color="rgb(0%, 69.615173%, 54.930115%)" offset="0.648437"/><stop stop-opacity="1" stop-color="rgb(0%, 69.682312%, 54.722595%)" offset="0.652344"/><stop stop-opacity="1" stop-color="rgb(0%, 69.750977%, 54.515076%)" offset="0.65625"/><stop stop-opacity="1" stop-color="rgb(0%, 69.818115%, 54.30603%)" offset="0.660156"/><stop stop-opacity="1" stop-color="rgb(0%, 69.88678%, 54.098511%)" offset="0.664062"/><stop stop-opacity="1" stop-color="rgb(0%, 69.953918%, 53.890991%)" offset="0.667969"/><stop stop-opacity="1" stop-color="rgb(0%, 70.022583%, 53.683472%)" offset="0.671875"/><stop stop-opacity="1" stop-color="rgb(0%, 70.089722%, 53.475952%)" offset="0.675781"/><stop stop-opacity="1" stop-color="rgb(0%, 70.158386%, 53.268433%)" offset="0.679688"/><stop stop-opacity="1" stop-color="rgb(0%, 70.225525%, 53.060913%)" offset="0.683594"/><stop stop-opacity="1" stop-color="rgb(0%, 70.294189%, 52.853394%)" offset="0.6875"/><stop stop-opacity="1" stop-color="rgb(0%, 70.362854%, 52.645874%)" offset="0.691406"/><stop stop-opacity="1" stop-color="rgb(0%, 70.431519%, 52.438354%)" offset="0.695312"/><stop stop-opacity="1" stop-color="rgb(0%, 70.498657%, 52.230835%)" offset="0.699219"/><stop stop-opacity="1" stop-color="rgb(0%, 70.567322%, 52.023315%)" offset="0.703125"/><stop stop-opacity="1" stop-color="rgb(0%, 70.63446%, 51.815796%)" offset="0.707031"/><stop stop-opacity="1" stop-color="rgb(0%, 70.703125%, 51.608276%)" offset="0.710938"/><stop stop-opacity="1" stop-color="rgb(0%, 70.770264%, 51.400757%)" offset="0.714844"/><stop stop-opacity="1" stop-color="rgb(0%, 70.838928%, 51.193237%)" offset="0.71875"/><stop stop-opacity="1" stop-color="rgb(0%, 70.906067%, 50.984192%)" offset="0.722656"/><stop stop-opacity="1" stop-color="rgb(0%, 70.974731%, 50.776672%)" offset="0.726562"/><stop stop-opacity="1" stop-color="rgb(0%, 71.04187%, 50.569153%)" offset="0.730469"/><stop stop-opacity="1" stop-color="rgb(0%, 71.110535%, 50.361633%)" offset="0.734375"/><stop stop-opacity="1" stop-color="rgb(0%, 71.177673%, 50.154114%)" offset="0.738281"/><stop stop-opacity="1" stop-color="rgb(0%, 71.246338%, 49.946594%)" offset="0.742187"/><stop stop-opacity="1" stop-color="rgb(0%, 71.315002%, 49.739075%)" offset="0.746094"/><stop stop-opacity="1" stop-color="rgb(0%, 71.383667%, 49.531555%)" offset="0.75"/><stop stop-opacity="1" stop-color="rgb(0%, 71.450806%, 49.324036%)" offset="0.753906"/><stop stop-opacity="1" stop-color="rgb(0%, 71.51947%, 49.116516%)" offset="0.757812"/><stop stop-opacity="1" stop-color="rgb(0%, 71.586609%, 48.908997%)" offset="0.761719"/><stop stop-opacity="1" stop-color="rgb(0%, 71.655273%, 48.701477%)" offset="0.765625"/><stop stop-opacity="1" stop-color="rgb(0%, 71.722412%, 48.493958%)" offset="0.769531"/><stop stop-opacity="1" stop-color="rgb(0%, 71.791077%, 48.286438%)" offset="0.773438"/><stop stop-opacity="1" stop-color="rgb(0%, 71.858215%, 48.077393%)" offset="0.777344"/><stop stop-opacity="1" stop-color="rgb(0%, 71.92688%, 47.869873%)" offset="0.78125"/><stop stop-opacity="1" stop-color="rgb(0%, 71.994019%, 47.662354%)" offset="0.785156"/><stop stop-opacity="1" stop-color="rgb(0%, 72.062683%, 47.454834%)" offset="0.789062"/><stop stop-opacity="1" stop-color="rgb(0%, 72.131348%, 47.247314%)" offset="0.792969"/><stop stop-opacity="1" stop-color="rgb(0%, 72.200012%, 47.039795%)" offset="0.796875"/><stop stop-opacity="1" stop-color="rgb(0%, 72.267151%, 46.832275%)" offset="0.800781"/><stop stop-opacity="1" stop-color="rgb(0%, 72.335815%, 46.624756%)" offset="0.804688"/><stop stop-opacity="1" stop-color="rgb(0%, 72.402954%, 46.417236%)" offset="0.808594"/><stop stop-opacity="1" stop-color="rgb(0%, 72.471619%, 46.209717%)" offset="0.8125"/><stop stop-opacity="1" stop-color="rgb(0%, 72.538757%, 46.002197%)" offset="0.816406"/><stop stop-opacity="1" stop-color="rgb(0%, 72.607422%, 45.794678%)" offset="0.820312"/><stop stop-opacity="1" stop-color="rgb(0%, 72.674561%, 45.587158%)" offset="0.824219"/><stop stop-opacity="1" stop-color="rgb(0%, 72.743225%, 45.379639%)" offset="0.828125"/><stop stop-opacity="1" stop-color="rgb(0%, 72.810364%, 45.170593%)" offset="0.832031"/><stop stop-opacity="1" stop-color="rgb(0%, 72.879028%, 44.963074%)" offset="0.835937"/><stop stop-opacity="1" stop-color="rgb(0%, 72.947693%, 44.755554%)" offset="0.839844"/><stop stop-opacity="1" stop-color="rgb(0%, 73.016357%, 44.548035%)" offset="0.84375"/><stop stop-opacity="1" stop-color="rgb(0%, 73.083496%, 44.340515%)" offset="0.847656"/><stop stop-opacity="1" stop-color="rgb(0%, 73.152161%, 44.132996%)" offset="0.851562"/><stop stop-opacity="1" stop-color="rgb(0%, 73.219299%, 43.925476%)" offset="0.855469"/><stop stop-opacity="1" stop-color="rgb(0%, 73.287964%, 43.717957%)" offset="0.859375"/><stop stop-opacity="1" stop-color="rgb(0%, 73.355103%, 43.510437%)" offset="0.863281"/><stop stop-opacity="1" stop-color="rgb(0%, 73.423767%, 43.302917%)" offset="0.867188"/><stop stop-opacity="1" stop-color="rgb(0%, 73.490906%, 43.095398%)" offset="0.871094"/><stop stop-opacity="1" stop-color="rgb(0%, 73.55957%, 42.887878%)" offset="0.875"/><stop stop-opacity="1" stop-color="rgb(0%, 73.626709%, 42.680359%)" offset="0.878906"/><stop stop-opacity="1" stop-color="rgb(0%, 73.695374%, 42.472839%)" offset="0.882812"/><stop stop-opacity="1" stop-color="rgb(0%, 73.762512%, 42.263794%)" offset="0.886719"/><stop stop-opacity="1" stop-color="rgb(0%, 73.831177%, 42.056274%)" offset="0.890625"/><stop stop-opacity="1" stop-color="rgb(0%, 73.899841%, 41.848755%)" offset="0.894531"/><stop stop-opacity="1" stop-color="rgb(0%, 73.968506%, 41.641235%)" offset="0.898438"/><stop stop-opacity="1" stop-color="rgb(0%, 74.035645%, 41.433716%)" offset="0.902344"/><stop stop-opacity="1" stop-color="rgb(0%, 74.104309%, 41.226196%)" offset="0.90625"/><stop stop-opacity="1" stop-color="rgb(0%, 74.171448%, 41.018677%)" offset="0.910156"/><stop stop-opacity="1" stop-color="rgb(0%, 74.240112%, 40.811157%)" offset="0.914062"/><stop stop-opacity="1" stop-color="rgb(0%, 74.307251%, 40.603638%)" offset="0.917969"/><stop stop-opacity="1" stop-color="rgb(0%, 74.375916%, 40.396118%)" offset="0.921875"/><stop stop-opacity="1" stop-color="rgb(0%, 74.443054%, 40.188599%)" offset="0.925781"/><stop stop-opacity="1" stop-color="rgb(0%, 74.511719%, 39.981079%)" offset="0.929687"/><stop stop-opacity="1" stop-color="rgb(0%, 74.578857%, 39.77356%)" offset="0.933594"/><stop stop-opacity="1" stop-color="rgb(0%, 74.647522%, 39.56604%)" offset="0.9375"/><stop stop-opacity="1" stop-color="rgb(0%, 74.716187%, 39.358521%)" offset="0.941406"/><stop stop-opacity="1" stop-color="rgb(0%, 74.784851%, 39.151001%)" offset="0.945312"/><stop stop-opacity="1" stop-color="rgb(0%, 74.841309%, 38.973999%)" offset="0.953125"/><stop stop-opacity="1" stop-color="rgb(0%, 74.899292%, 38.798523%)" offset="0.96875"/><stop stop-opacity="1" stop-color="rgb(0%, 74.899292%, 38.798523%)" offset="1"/></linearGradient></defs><g clip-path="url(#2d0bea37e9)"><g clip-path="url(#433cd45a6e)"><path fill="url(#bbac1f6753)" d="M 133.375 118.53125 L 133.375 192.78125 L 241.363281 192.78125 L 241.363281 118.53125 Z M 133.375 118.53125 " fill-rule="nonzero"/></g></g><g fill="#d9d9d9" fill-opacity="1"><g transform="translate(118.747219, 224.888144)"><g><path d="M 1.34375 -17.28125 L 9.28125 -17.28125 C 11.914062 -17.28125 13.234375 -16.164062 13.234375 -13.9375 L 13.234375 -3.34375 C 13.234375 -1.113281 11.914062 0 9.28125 0 L 1.34375 0 Z M 8.53125 -3.6875 L 8.53125 -13.59375 C 8.53125 -13.976562 8.304688 -14.171875 7.859375 -14.171875 L 6.046875 -14.171875 L 6.046875 -3.09375 L 7.859375 -3.09375 C 8.304688 -3.09375 8.53125 -3.289062 8.53125 -3.6875 Z M 8.53125 -3.6875 "/></g></g></g><g fill="#d9d9d9" fill-opacity="1"><g transform="translate(136.741138, 224.888144)"><g><path d="M 5.78125 -6.140625 L 5.78125 0 L 1.078125 0 L 1.078125 -17.28125 L 9.0625 -17.28125 C 11.695312 -17.28125 13.015625 -16.164062 13.015625 -13.9375 L 13.015625 -9.46875 C 13.015625 -7.769531 12.242188 -6.722656 10.703125 -6.328125 L 13.890625 0 L 8.828125 0 L 6.078125 -6.140625 Z M 7.640625 -13.90625 L 5.78125 -13.90625 L 5.78125 -9.34375 L 7.640625 -9.34375 C 8.085938 -9.34375 8.3125 -9.535156 8.3125 -9.921875 L 8.3125 -13.3125 C 8.3125 -13.707031 8.085938 -13.90625 7.640625 -13.90625 Z M 7.640625 -13.90625 "/></g></g></g><g fill="#d9d9d9" fill-opacity="1"><g transform="translate(154.33162, 224.888144)"><g><path d="M 5.78125 -3.359375 L 11.671875 -3.359375 L 11.671875 0 L 1.078125 0 L 1.078125 -17.28125 L 11.4375 -17.28125 L 11.4375 -13.90625 L 5.78125 -13.90625 L 5.78125 -10.390625 L 10.65625 -10.390625 L 10.65625 -7.015625 L 5.78125 -7.015625 Z M 5.78125 -3.359375 "/></g></g></g><g fill="#d9d9d9" fill-opacity="1"><g transform="translate(170.173884, 224.888144)"><g><path d="M 9.875 0 L 9.34375 -2.578125 L 5.1875 -2.578125 L 4.625 0 L 0 0 L 4.4375 -17.28125 L 10.171875 -17.28125 L 14.609375 0 Z M 5.921875 -5.921875 L 8.609375 -5.921875 L 7.296875 -12.140625 Z M 5.921875 -5.921875 "/></g></g></g><g fill="#d9d9d9" fill-opacity="1"><g transform="translate(188.544342, 224.888144)"><g><path d="M 5.28125 0 L 1.078125 0 L 1.078125 -17.28125 L 6.21875 -17.28125 L 9.015625 -8.046875 L 11.8125 -17.28125 L 16.953125 -17.28125 L 16.953125 0 L 12.78125 0 L 12.78125 -10.984375 L 10.625 -3.734375 L 7.40625 -3.734375 L 5.28125 -10.921875 Z M 5.28125 0 "/></g></g></g><g fill="#d9d9d9" fill-opacity="1"><g transform="translate(210.330563, 224.888144)"><g><path d="M 5.78125 -3.359375 L 11.671875 -3.359375 L 11.671875 0 L 1.078125 0 L 1.078125 -17.28125 L 11.4375 -17.28125 L 11.4375 -13.90625 L 5.78125 -13.90625 L 5.78125 -10.390625 L 10.65625 -10.390625 L 10.65625 -7.015625 L 5.78125 -7.015625 Z M 5.78125 -3.359375 "/></g></g></g><g fill="#d9d9d9" fill-opacity="1"><g transform="translate(226.172824, 224.888144)"><g><path d="M 5.78125 -6.140625 L 5.78125 0 L 1.078125 0 L 1.078125 -17.28125 L 9.0625 -17.28125 C 11.695312 -17.28125 13.015625 -16.164062 13.015625 -13.9375 L 13.015625 -9.46875 C 13.015625 -7.769531 12.242188 -6.722656 10.703125 -6.328125 L 13.890625 0 L 8.828125 0 L 6.078125 -6.140625 Z M 7.640625 -13.90625 L 5.78125 -13.90625 L 5.78125 -9.34375 L 7.640625 -9.34375 C 8.085938 -9.34375 8.3125 -9.535156 8.3125 -9.921875 L 8.3125 -13.3125 C 8.3125 -13.707031 8.085938 -13.90625 7.640625 -13.90625 Z M 7.640625 -13.90625 "/></g></g></g><g fill="#d9d9d9" fill-opacity="1"><g transform="translate(243.763303, 224.888144)"><g><path d="M 11.953125 -17.28125 L 11.953125 -13.90625 L 5.46875 -3.359375 L 11.765625 -3.359375 L 11.765625 0 L 0.53125 0 L 0.53125 -3.359375 L 7.015625 -13.90625 L 0.890625 -13.90625 L 0.890625 -17.28125 Z M 11.953125 -17.28125 "/></g></g></g><g fill="#d9d9d9" fill-opacity="1"><g transform="translate(175.885346, 250.578582)"><g><path d="M 5.609375 -11.8125 C 7.109375 -11.8125 7.859375 -11.007812 7.859375 -9.40625 L 7.859375 -2.40625 C 7.859375 -0.800781 7.109375 0 5.609375 0 L 0.90625 0 L 0.90625 -11.8125 Z M 5.3125 -2.109375 L 5.3125 -9.703125 C 5.3125 -9.804688 5.273438 -9.894531 5.203125 -9.96875 C 5.140625 -10.039062 5.0625 -10.078125 4.96875 -10.078125 L 3.46875 -10.078125 L 3.46875 -1.75 L 4.96875 -1.75 C 5.0625 -1.75 5.140625 -1.785156 5.203125 -1.859375 C 5.273438 -1.929688 5.3125 -2.015625 5.3125 -2.109375 Z M 5.3125 -2.109375 "/></g></g></g><g fill="#d9d9d9" fill-opacity="1"><g transform="translate(190.267968, 250.578582)"><g><path d="M 7.859375 -9.578125 L 7.859375 -2.21875 C 7.859375 -0.613281 7.109375 0.1875 5.609375 0.1875 L 3.171875 0.1875 C 1.660156 0.1875 0.90625 -0.613281 0.90625 -2.21875 L 0.90625 -9.578125 C 0.90625 -11.179688 1.660156 -11.984375 3.171875 -11.984375 L 5.609375 -11.984375 C 7.109375 -11.984375 7.859375 -11.179688 7.859375 -9.578125 Z M 5.3125 -1.9375 L 5.3125 -9.890625 C 5.3125 -9.984375 5.273438 -10.066406 5.203125 -10.140625 C 5.140625 -10.210938 5.0625 -10.25 4.96875 -10.25 L 3.8125 -10.25 C 3.71875 -10.25 3.632812 -10.210938 3.5625 -10.140625 C 3.5 -10.066406 3.46875 -9.984375 3.46875 -9.890625 L 3.46875 -1.9375 C 3.46875 -1.832031 3.5 -1.742188 3.5625 -1.671875 C 3.632812 -1.597656 3.71875 -1.5625 3.8125 -1.5625 L 4.96875 -1.5625 C 5.0625 -1.5625 5.140625 -1.597656 5.203125 -1.671875 C 5.273438 -1.742188 5.3125 -1.832031 5.3125 -1.9375 Z M 5.3125 -1.9375 "/></g></g></g></svg>