<svg xmlns="http://www.w3.org/2000/svg" xmlns:xlink="http://www.w3.org/1999/xlink" width="100" zoomAndPan="magnify" viewBox="0 0 75 37.5" height="50" preserveAspectRatio="xMidYMid meet" version="1.0"><defs><g/></defs><g fill="#d9d9d9" fill-opacity="1"><g transform="translate(25.730645, 19.373019)"><g><path d="M 0.1875 -2.40625 L 1.296875 -2.40625 C 1.660156 -2.40625 1.84375 -2.25 1.84375 -1.9375 L 1.84375 -0.46875 C 1.84375 -0.15625 1.660156 0 1.296875 0 L 0.1875 0 Z M 1.1875 -0.515625 L 1.1875 -1.890625 C 1.1875 -1.941406 1.15625 -1.96875 1.09375 -1.96875 L 0.84375 -1.96875 L 0.84375 -0.4375 L 1.09375 -0.4375 C 1.15625 -0.4375 1.1875 -0.460938 1.1875 -0.515625 Z M 1.1875 -0.515625 "/></g></g></g><g fill="#d9d9d9" fill-opacity="1"><g transform="translate(28.241689, 19.373019)"><g><path d="M 0.8125 -0.859375 L 0.8125 0 L 0.15625 0 L 0.15625 -2.40625 L 1.265625 -2.40625 C 1.628906 -2.40625 1.8125 -2.25 1.8125 -1.9375 L 1.8125 -1.3125 C 1.8125 -1.082031 1.707031 -0.9375 1.5 -0.875 L 1.9375 0 L 1.234375 0 L 0.84375 -0.859375 Z M 1.0625 -1.9375 L 0.8125 -1.9375 L 0.8125 -1.296875 L 1.0625 -1.296875 C 1.125 -1.296875 1.15625 -1.328125 1.15625 -1.390625 L 1.15625 -1.859375 C 1.15625 -1.910156 1.125 -1.9375 1.0625 -1.9375 Z M 1.0625 -1.9375 "/></g></g></g><g fill="#d9d9d9" fill-opacity="1"><g transform="translate(30.696432, 19.373019)"><g><path d="M 0.8125 -0.46875 L 1.625 -0.46875 L 1.625 0 L 0.15625 0 L 0.15625 -2.40625 L 1.59375 -2.40625 L 1.59375 -1.9375 L 0.8125 -1.9375 L 0.8125 -1.453125 L 1.484375 -1.453125 L 1.484375 -0.984375 L 0.8125 -0.984375 Z M 0.8125 -0.46875 "/></g></g></g><g fill="#d9d9d9" fill-opacity="1"><g transform="translate(32.907213, 19.373019)"><g><path d="M 1.375 0 L 1.296875 -0.359375 L 0.71875 -0.359375 L 0.640625 0 L 0 0 L 0.625 -2.40625 L 1.421875 -2.40625 L 2.03125 0 Z M 0.828125 -0.828125 L 1.203125 -0.828125 L 1.015625 -1.6875 Z M 0.828125 -0.828125 "/></g></g></g><g fill="#d9d9d9" fill-opacity="1"><g transform="translate(35.470802, 19.373019)"><g><path d="M 0.734375 0 L 0.15625 0 L 0.15625 -2.40625 L 0.859375 -2.40625 L 1.25 -1.125 L 1.640625 -2.40625 L 2.359375 -2.40625 L 2.359375 0 L 1.78125 0 L 1.78125 -1.53125 L 1.484375 -0.515625 L 1.03125 -0.515625 L 0.734375 -1.515625 Z M 0.734375 0 "/></g></g></g><g fill="#d9d9d9" fill-opacity="1"><g transform="translate(38.51106, 19.373019)"><g><path d="M 0.8125 -0.46875 L 1.625 -0.46875 L 1.625 0 L 0.15625 0 L 0.15625 -2.40625 L 1.59375 -2.40625 L 1.59375 -1.9375 L 0.8125 -1.9375 L 0.8125 -1.453125 L 1.484375 -1.453125 L 1.484375 -0.984375 L 0.8125 -0.984375 Z M 0.8125 -0.46875 "/></g></g></g><g fill="#d9d9d9" fill-opacity="1"><g transform="translate(40.72184, 19.373019)"><g><path d="M 0.8125 -0.859375 L 0.8125 0 L 0.15625 0 L 0.15625 -2.40625 L 1.265625 -2.40625 C 1.628906 -2.40625 1.8125 -2.25 1.8125 -1.9375 L 1.8125 -1.3125 C 1.8125 -1.082031 1.707031 -0.9375 1.5 -0.875 L 1.9375 0 L 1.234375 0 L 0.84375 -0.859375 Z M 1.0625 -1.9375 L 0.8125 -1.9375 L 0.8125 -1.296875 L 1.0625 -1.296875 C 1.125 -1.296875 1.15625 -1.328125 1.15625 -1.390625 L 1.15625 -1.859375 C 1.15625 -1.910156 1.125 -1.9375 1.0625 -1.9375 Z M 1.0625 -1.9375 "/></g></g></g><g fill="#d9d9d9" fill-opacity="1"><g transform="translate(43.176584, 19.373019)"><g><path d="M 1.671875 -2.40625 L 1.671875 -1.9375 L 0.765625 -0.46875 L 1.640625 -0.46875 L 1.640625 0 L 0.078125 0 L 0.078125 -0.46875 L 0.984375 -1.9375 L 0.125 -1.9375 L 0.125 -2.40625 Z M 1.671875 -2.40625 "/></g></g></g><g fill="#d9d9d9" fill-opacity="1"><g transform="translate(46.131564, 19.320585)"><g><path d="M 0.78125 -1.640625 C 0.988281 -1.640625 1.09375 -1.53125 1.09375 -1.3125 L 1.09375 -0.34375 C 1.09375 -0.113281 0.988281 0 0.78125 0 L 0.125 0 L 0.125 -1.640625 Z M 0.734375 -0.296875 L 0.734375 -1.359375 C 0.734375 -1.367188 0.726562 -1.378906 0.71875 -1.390625 C 0.71875 -1.398438 0.707031 -1.40625 0.6875 -1.40625 L 0.484375 -1.40625 L 0.484375 -0.25 L 0.6875 -0.25 C 0.707031 -0.25 0.71875 -0.253906 0.71875 -0.265625 C 0.726562 -0.273438 0.734375 -0.285156 0.734375 -0.296875 Z M 0.734375 -0.296875 "/></g></g></g><g fill="#d9d9d9" fill-opacity="1"><g transform="translate(48.138652, 19.320585)"><g><path d="M 1.09375 -1.34375 L 1.09375 -0.3125 C 1.09375 -0.0820312 0.988281 0.03125 0.78125 0.03125 L 0.4375 0.03125 C 0.226562 0.03125 0.125 -0.0820312 0.125 -0.3125 L 0.125 -1.34375 C 0.125 -1.5625 0.226562 -1.671875 0.4375 -1.671875 L 0.78125 -1.671875 C 0.988281 -1.671875 1.09375 -1.5625 1.09375 -1.34375 Z M 0.734375 -0.265625 L 0.734375 -1.375 C 0.734375 -1.394531 0.726562 -1.410156 0.71875 -1.421875 C 0.71875 -1.429688 0.707031 -1.4375 0.6875 -1.4375 L 0.53125 -1.4375 C 0.519531 -1.4375 0.507812 -1.429688 0.5 -1.421875 C 0.488281 -1.410156 0.484375 -1.394531 0.484375 -1.375 L 0.484375 -0.265625 C 0.484375 -0.253906 0.488281 -0.242188 0.5 -0.234375 C 0.507812 -0.222656 0.519531 -0.21875 0.53125 -0.21875 L 0.6875 -0.21875 C 0.707031 -0.21875 0.71875 -0.222656 0.71875 -0.234375 C 0.726562 -0.242188 0.734375 -0.253906 0.734375 -0.265625 Z M 0.734375 -0.265625 "/></g></g></g></svg>