<svg xmlns="http://www.w3.org/2000/svg" xmlns:xlink="http://www.w3.org/1999/xlink" width="100" zoomAndPan="magnify" viewBox="0 0 75 74.999997" height="100" preserveAspectRatio="xMidYMid meet" version="1.0"><defs><g/><clipPath id="05640d890e"><path d="M 26.671875 23.707031 L 48.421875 23.707031 L 48.421875 38.707031 L 26.671875 38.707031 Z M 26.671875 23.707031 " clip-rule="nonzero"/></clipPath><clipPath id="98666f470d"><path d="M 35.894531 35.507812 L 46.902344 35.507812 C 47.132812 35.1875 47.34375 34.84375 47.523438 34.484375 C 47.527344 34.480469 47.53125 34.472656 47.535156 34.464844 C 47.609375 34.3125 47.683594 34.160156 47.746094 34 C 47.886719 33.671875 48 33.328125 48.089844 32.976562 L 34.433594 32.976562 L 34.066406 33.609375 L 33.84375 34 L 33.023438 34 L 32.796875 33.609375 L 32.433594 32.976562 L 30.972656 32.976562 L 30.238281 34.242188 L 30.972656 35.507812 L 32.433594 35.507812 L 32.796875 34.875 L 33.023438 34.484375 L 33.84375 34.484375 L 34.066406 34.875 L 34.433594 35.507812 Z M 34.222656 28.304688 L 34.445312 28.695312 L 34.8125 29.328125 L 48.089844 29.328125 C 48 28.976562 47.886719 28.636719 47.746094 28.304688 C 47.683594 28.148438 47.609375 27.992188 47.535156 27.84375 C 47.53125 27.835938 47.527344 27.828125 47.523438 27.820312 C 47.34375 27.460938 47.132812 27.121094 46.898438 26.796875 L 34.8125 26.796875 L 34.445312 27.429688 L 34.222656 27.820312 L 33.402344 27.820312 L 33.175781 27.429688 L 32.8125 26.796875 L 31.351562 26.796875 L 30.617188 28.0625 L 31.351562 29.328125 L 32.8125 29.328125 L 33.175781 28.695312 L 33.402344 28.304688 Z M 44.628906 24.730469 C 43.523438 24.082031 42.238281 23.707031 40.871094 23.707031 L 38.101562 23.707031 L 37.738281 24.339844 L 37.511719 24.730469 L 36.691406 24.730469 L 36.101562 23.707031 L 34.640625 23.707031 L 34.273438 24.339844 L 34.050781 24.730469 L 33.910156 24.972656 L 34.050781 25.214844 L 34.273438 25.605469 L 34.640625 26.238281 L 36.101562 26.238281 L 36.46875 25.605469 L 36.691406 25.214844 L 37.511719 25.214844 L 37.738281 25.605469 L 38.101562 26.238281 L 46.453125 26.238281 C 46.121094 25.863281 45.75 25.519531 45.351562 25.214844 C 45.117188 25.039062 44.878906 24.878906 44.628906 24.730469 Z M 29.59375 31.152344 L 29.230469 30.519531 L 28.863281 29.886719 L 27.402344 29.886719 L 27.039062 30.519531 L 26.671875 31.152344 L 27.039062 31.785156 L 27.402344 32.417969 L 28.863281 32.417969 L 29.230469 31.785156 Z M 31.25 36.066406 L 27.515625 36.066406 L 27.148438 36.699219 L 26.785156 37.332031 L 27.148438 37.964844 L 27.515625 38.597656 L 31.25 38.597656 L 31.613281 37.964844 L 31.839844 37.574219 L 32.65625 37.574219 L 32.882812 37.964844 L 33.25 38.597656 L 40.871094 38.597656 C 42.238281 38.597656 43.523438 38.226562 44.628906 37.574219 C 44.878906 37.429688 45.117188 37.265625 45.351562 37.089844 C 45.75 36.789062 46.121094 36.445312 46.453125 36.066406 L 33.25 36.066406 L 32.882812 36.699219 L 32.65625 37.089844 L 31.839844 37.089844 L 31.613281 36.699219 Z M 36.347656 29.886719 L 32.820312 29.886719 L 32.453125 30.519531 L 32.230469 30.910156 L 32.089844 31.152344 L 32.230469 31.394531 L 32.453125 31.785156 L 32.820312 32.417969 L 36.347656 32.417969 L 36.714844 31.785156 L 36.9375 31.394531 L 37.757812 31.394531 L 37.617188 31.152344 L 37.984375 31.785156 L 38.347656 32.417969 L 48.207031 32.417969 C 48.265625 32.085938 48.300781 31.742188 48.3125 31.394531 C 48.316406 31.316406 48.316406 31.234375 48.316406 31.152344 C 48.316406 31.074219 48.316406 30.992188 48.3125 30.910156 C 48.300781 30.5625 48.265625 30.222656 48.207031 29.886719 L 38.347656 29.886719 L 37.984375 30.519531 L 37.617188 31.152344 L 37.757812 30.910156 L 36.9375 30.910156 L 36.714844 30.519531 Z M 36.347656 29.886719 " clip-rule="evenodd"/></clipPath><linearGradient x1="2685.787027" gradientTransform="matrix(0.00782818, 0, 0, 0.00782818, 26.67234, 23.707586)" y1="-54.279045" x2="914.649505" gradientUnits="userSpaceOnUse" y2="2529.320268" id="0942bb420f"><stop stop-opacity="1" stop-color="rgb(0%, 59.599304%, 85.499573%)" offset="0"/><stop stop-opacity="1" stop-color="rgb(0%, 59.599304%, 85.499573%)" offset="0.0625"/><stop stop-opacity="1" stop-color="rgb(0%, 59.632874%, 85.397339%)" offset="0.078125"/><stop stop-opacity="1" stop-color="rgb(0%, 59.733582%, 85.08606%)" offset="0.0820312"/><stop stop-opacity="1" stop-color="rgb(0%, 59.802246%, 84.87854%)" offset="0.0859375"/><stop stop-opacity="1" stop-color="rgb(0%, 59.870911%, 84.669495%)" offset="0.0898438"/><stop stop-opacity="1" stop-color="rgb(0%, 59.939575%, 84.461975%)" offset="0.09375"/><stop stop-opacity="1" stop-color="rgb(0%, 60.006714%, 84.25293%)" offset="0.0976563"/><stop stop-opacity="1" stop-color="rgb(0%, 60.075378%, 84.04541%)" offset="0.101562"/><stop stop-opacity="1" stop-color="rgb(0%, 60.142517%, 83.837891%)" offset="0.105469"/><stop stop-opacity="1" stop-color="rgb(0%, 60.211182%, 83.630371%)" offset="0.109375"/><stop stop-opacity="1" stop-color="rgb(0%, 60.279846%, 83.421326%)" offset="0.113281"/><stop stop-opacity="1" stop-color="rgb(0%, 60.348511%, 83.213806%)" offset="0.117188"/><stop stop-opacity="1" stop-color="rgb(0%, 60.415649%, 83.004761%)" offset="0.121094"/><stop stop-opacity="1" stop-color="rgb(0%, 60.484314%, 82.797241%)" offset="0.125"/><stop stop-opacity="1" stop-color="rgb(0%, 60.552979%, 82.588196%)" offset="0.128906"/><stop stop-opacity="1" stop-color="rgb(0%, 60.621643%, 82.380676%)" offset="0.132812"/><stop stop-opacity="1" stop-color="rgb(0%, 60.688782%, 82.171631%)" offset="0.136719"/><stop stop-opacity="1" stop-color="rgb(0%, 60.757446%, 81.964111%)" offset="0.140625"/><stop stop-opacity="1" stop-color="rgb(0%, 60.824585%, 81.755066%)" offset="0.144531"/><stop stop-opacity="1" stop-color="rgb(0%, 60.89325%, 81.547546%)" offset="0.148438"/><stop stop-opacity="1" stop-color="rgb(0%, 60.961914%, 81.338501%)" offset="0.152344"/><stop stop-opacity="1" stop-color="rgb(0%, 61.030579%, 81.130981%)" offset="0.15625"/><stop stop-opacity="1" stop-color="rgb(0%, 61.097717%, 80.921936%)" offset="0.160156"/><stop stop-opacity="1" stop-color="rgb(0%, 61.166382%, 80.714417%)" offset="0.164062"/><stop stop-opacity="1" stop-color="rgb(0%, 61.235046%, 80.506897%)" offset="0.167969"/><stop stop-opacity="1" stop-color="rgb(0%, 61.303711%, 80.299377%)" offset="0.171875"/><stop stop-opacity="1" stop-color="rgb(0%, 61.37085%, 80.090332%)" offset="0.175781"/><stop stop-opacity="1" stop-color="rgb(0%, 61.439514%, 79.882812%)" offset="0.179688"/><stop stop-opacity="1" stop-color="rgb(0%, 61.506653%, 79.673767%)" offset="0.183594"/><stop stop-opacity="1" stop-color="rgb(0%, 61.575317%, 79.466248%)" offset="0.1875"/><stop stop-opacity="1" stop-color="rgb(0%, 61.643982%, 79.257202%)" offset="0.191406"/><stop stop-opacity="1" stop-color="rgb(0%, 61.712646%, 79.049683%)" offset="0.195312"/><stop stop-opacity="1" stop-color="rgb(0%, 61.779785%, 78.840637%)" offset="0.199219"/><stop stop-opacity="1" stop-color="rgb(0%, 61.84845%, 78.633118%)" offset="0.203125"/><stop stop-opacity="1" stop-color="rgb(0%, 61.917114%, 78.424072%)" offset="0.207031"/><stop stop-opacity="1" stop-color="rgb(0%, 61.985779%, 78.216553%)" offset="0.210938"/><stop stop-opacity="1" stop-color="rgb(0%, 62.052917%, 78.007507%)" offset="0.214844"/><stop stop-opacity="1" stop-color="rgb(0%, 62.121582%, 77.799988%)" offset="0.21875"/><stop stop-opacity="1" stop-color="rgb(0%, 62.188721%, 77.590942%)" offset="0.222656"/><stop stop-opacity="1" stop-color="rgb(0%, 62.257385%, 77.383423%)" offset="0.226563"/><stop stop-opacity="1" stop-color="rgb(0%, 62.32605%, 77.175903%)" offset="0.230469"/><stop stop-opacity="1" stop-color="rgb(0%, 62.394714%, 76.968384%)" offset="0.234375"/><stop stop-opacity="1" stop-color="rgb(0%, 62.461853%, 76.759338%)" offset="0.238281"/><stop stop-opacity="1" stop-color="rgb(0%, 62.530518%, 76.551819%)" offset="0.242188"/><stop stop-opacity="1" stop-color="rgb(0%, 62.599182%, 76.342773%)" offset="0.246094"/><stop stop-opacity="1" stop-color="rgb(0%, 62.667847%, 76.135254%)" offset="0.25"/><stop stop-opacity="1" stop-color="rgb(0%, 62.734985%, 75.926208%)" offset="0.253906"/><stop stop-opacity="1" stop-color="rgb(0%, 62.80365%, 75.718689%)" offset="0.257812"/><stop stop-opacity="1" stop-color="rgb(0%, 62.870789%, 75.509644%)" offset="0.261719"/><stop stop-opacity="1" stop-color="rgb(0%, 62.939453%, 75.302124%)" offset="0.265625"/><stop stop-opacity="1" stop-color="rgb(0%, 63.008118%, 75.093079%)" offset="0.269531"/><stop stop-opacity="1" stop-color="rgb(0%, 63.076782%, 74.885559%)" offset="0.273438"/><stop stop-opacity="1" stop-color="rgb(0%, 63.143921%, 74.676514%)" offset="0.277344"/><stop stop-opacity="1" stop-color="rgb(0%, 63.212585%, 74.468994%)" offset="0.28125"/><stop stop-opacity="1" stop-color="rgb(0%, 63.28125%, 74.259949%)" offset="0.285156"/><stop stop-opacity="1" stop-color="rgb(0%, 63.349915%, 74.052429%)" offset="0.289062"/><stop stop-opacity="1" stop-color="rgb(0%, 63.417053%, 73.84491%)" offset="0.292969"/><stop stop-opacity="1" stop-color="rgb(0%, 63.485718%, 73.63739%)" offset="0.296875"/><stop stop-opacity="1" stop-color="rgb(0%, 63.552856%, 73.428345%)" offset="0.300781"/><stop stop-opacity="1" stop-color="rgb(0%, 63.621521%, 73.220825%)" offset="0.304688"/><stop stop-opacity="1" stop-color="rgb(0%, 63.690186%, 73.01178%)" offset="0.308594"/><stop stop-opacity="1" stop-color="rgb(0%, 63.75885%, 72.80426%)" offset="0.3125"/><stop stop-opacity="1" stop-color="rgb(0%, 63.825989%, 72.595215%)" offset="0.316406"/><stop stop-opacity="1" stop-color="rgb(0%, 63.894653%, 72.387695%)" offset="0.320312"/><stop stop-opacity="1" stop-color="rgb(0%, 63.963318%, 72.17865%)" offset="0.324219"/><stop stop-opacity="1" stop-color="rgb(0%, 64.031982%, 71.97113%)" offset="0.328125"/><stop stop-opacity="1" stop-color="rgb(0%, 64.099121%, 71.762085%)" offset="0.332031"/><stop stop-opacity="1" stop-color="rgb(0%, 64.167786%, 71.554565%)" offset="0.335938"/><stop stop-opacity="1" stop-color="rgb(0%, 64.234924%, 71.34552%)" offset="0.339844"/><stop stop-opacity="1" stop-color="rgb(0%, 64.303589%, 71.138%)" offset="0.34375"/><stop stop-opacity="1" stop-color="rgb(0%, 64.372253%, 70.930481%)" offset="0.347656"/><stop stop-opacity="1" stop-color="rgb(0%, 64.440918%, 70.722961%)" offset="0.351563"/><stop stop-opacity="1" stop-color="rgb(0%, 64.508057%, 70.513916%)" offset="0.355469"/><stop stop-opacity="1" stop-color="rgb(0%, 64.576721%, 70.306396%)" offset="0.359375"/><stop stop-opacity="1" stop-color="rgb(0%, 64.645386%, 70.097351%)" offset="0.363281"/><stop stop-opacity="1" stop-color="rgb(0%, 64.71405%, 69.889832%)" offset="0.367188"/><stop stop-opacity="1" stop-color="rgb(0%, 64.781189%, 69.680786%)" offset="0.371094"/><stop stop-opacity="1" stop-color="rgb(0%, 64.849854%, 69.473267%)" offset="0.375"/><stop stop-opacity="1" stop-color="rgb(0%, 64.916992%, 69.264221%)" offset="0.378906"/><stop stop-opacity="1" stop-color="rgb(0%, 64.985657%, 69.056702%)" offset="0.382813"/><stop stop-opacity="1" stop-color="rgb(0%, 65.054321%, 68.847656%)" offset="0.386719"/><stop stop-opacity="1" stop-color="rgb(0%, 65.122986%, 68.640137%)" offset="0.390625"/><stop stop-opacity="1" stop-color="rgb(0%, 65.190125%, 68.431091%)" offset="0.394531"/><stop stop-opacity="1" stop-color="rgb(0%, 65.258789%, 68.223572%)" offset="0.398438"/><stop stop-opacity="1" stop-color="rgb(0%, 65.327454%, 68.014526%)" offset="0.402344"/><stop stop-opacity="1" stop-color="rgb(0%, 65.396118%, 67.807007%)" offset="0.40625"/><stop stop-opacity="1" stop-color="rgb(0%, 65.463257%, 67.599487%)" offset="0.410156"/><stop stop-opacity="1" stop-color="rgb(0%, 65.531921%, 67.391968%)" offset="0.414062"/><stop stop-opacity="1" stop-color="rgb(0%, 65.59906%, 67.182922%)" offset="0.417969"/><stop stop-opacity="1" stop-color="rgb(0%, 65.667725%, 66.975403%)" offset="0.421875"/><stop stop-opacity="1" stop-color="rgb(0%, 65.736389%, 66.766357%)" offset="0.425781"/><stop stop-opacity="1" stop-color="rgb(0%, 65.805054%, 66.558838%)" offset="0.429688"/><stop stop-opacity="1" stop-color="rgb(0%, 65.872192%, 66.349792%)" offset="0.433594"/><stop stop-opacity="1" stop-color="rgb(0%, 65.940857%, 66.142273%)" offset="0.4375"/><stop stop-opacity="1" stop-color="rgb(0%, 66.009521%, 65.933228%)" offset="0.441406"/><stop stop-opacity="1" stop-color="rgb(0%, 66.078186%, 65.725708%)" offset="0.445312"/><stop stop-opacity="1" stop-color="rgb(0%, 66.145325%, 65.516663%)" offset="0.449219"/><stop stop-opacity="1" stop-color="rgb(0%, 66.213989%, 65.309143%)" offset="0.453125"/><stop stop-opacity="1" stop-color="rgb(0%, 66.281128%, 65.100098%)" offset="0.457031"/><stop stop-opacity="1" stop-color="rgb(0%, 66.349792%, 64.892578%)" offset="0.460938"/><stop stop-opacity="1" stop-color="rgb(0%, 66.418457%, 64.683533%)" offset="0.464844"/><stop stop-opacity="1" stop-color="rgb(0%, 66.487122%, 64.476013%)" offset="0.46875"/><stop stop-opacity="1" stop-color="rgb(0%, 66.55426%, 64.268494%)" offset="0.472656"/><stop stop-opacity="1" stop-color="rgb(0%, 66.622925%, 64.060974%)" offset="0.476562"/><stop stop-opacity="1" stop-color="rgb(0%, 66.691589%, 63.851929%)" offset="0.480469"/><stop stop-opacity="1" stop-color="rgb(0%, 66.760254%, 63.644409%)" offset="0.484375"/><stop stop-opacity="1" stop-color="rgb(0%, 66.827393%, 63.435364%)" offset="0.488281"/><stop stop-opacity="1" stop-color="rgb(0%, 66.896057%, 63.227844%)" offset="0.492188"/><stop stop-opacity="1" stop-color="rgb(0%, 66.963196%, 63.018799%)" offset="0.496094"/><stop stop-opacity="1" stop-color="rgb(0%, 67.03186%, 62.811279%)" offset="0.5"/><stop stop-opacity="1" stop-color="rgb(0%, 67.100525%, 62.602234%)" offset="0.503906"/><stop stop-opacity="1" stop-color="rgb(0%, 67.169189%, 62.394714%)" offset="0.507813"/><stop stop-opacity="1" stop-color="rgb(0%, 67.236328%, 62.185669%)" offset="0.511719"/><stop stop-opacity="1" stop-color="rgb(0%, 67.304993%, 61.978149%)" offset="0.515625"/><stop stop-opacity="1" stop-color="rgb(0%, 67.373657%, 61.769104%)" offset="0.519531"/><stop stop-opacity="1" stop-color="rgb(0%, 67.442322%, 61.561584%)" offset="0.523438"/><stop stop-opacity="1" stop-color="rgb(0%, 67.50946%, 61.352539%)" offset="0.527344"/><stop stop-opacity="1" stop-color="rgb(0%, 67.578125%, 61.14502%)" offset="0.53125"/><stop stop-opacity="1" stop-color="rgb(0%, 67.645264%, 60.9375%)" offset="0.535156"/><stop stop-opacity="1" stop-color="rgb(0%, 67.713928%, 60.72998%)" offset="0.539063"/><stop stop-opacity="1" stop-color="rgb(0%, 67.782593%, 60.520935%)" offset="0.542969"/><stop stop-opacity="1" stop-color="rgb(0%, 67.851257%, 60.313416%)" offset="0.546875"/><stop stop-opacity="1" stop-color="rgb(0%, 67.918396%, 60.10437%)" offset="0.550781"/><stop stop-opacity="1" stop-color="rgb(0%, 67.987061%, 59.896851%)" offset="0.554688"/><stop stop-opacity="1" stop-color="rgb(0%, 68.055725%, 59.687805%)" offset="0.558594"/><stop stop-opacity="1" stop-color="rgb(0%, 68.12439%, 59.480286%)" offset="0.5625"/><stop stop-opacity="1" stop-color="rgb(0%, 68.191528%, 59.27124%)" offset="0.566406"/><stop stop-opacity="1" stop-color="rgb(0%, 68.260193%, 59.063721%)" offset="0.570313"/><stop stop-opacity="1" stop-color="rgb(0%, 68.327332%, 58.854675%)" offset="0.574219"/><stop stop-opacity="1" stop-color="rgb(0%, 68.395996%, 58.647156%)" offset="0.578125"/><stop stop-opacity="1" stop-color="rgb(0%, 68.464661%, 58.43811%)" offset="0.582031"/><stop stop-opacity="1" stop-color="rgb(0%, 68.533325%, 58.230591%)" offset="0.585938"/><stop stop-opacity="1" stop-color="rgb(0%, 68.600464%, 58.021545%)" offset="0.589844"/><stop stop-opacity="1" stop-color="rgb(0%, 68.669128%, 57.814026%)" offset="0.59375"/><stop stop-opacity="1" stop-color="rgb(0%, 68.737793%, 57.606506%)" offset="0.597656"/><stop stop-opacity="1" stop-color="rgb(0%, 68.806458%, 57.398987%)" offset="0.601562"/><stop stop-opacity="1" stop-color="rgb(0%, 68.873596%, 57.189941%)" offset="0.605469"/><stop stop-opacity="1" stop-color="rgb(0%, 68.942261%, 56.982422%)" offset="0.609375"/><stop stop-opacity="1" stop-color="rgb(0%, 69.009399%, 56.773376%)" offset="0.613281"/><stop stop-opacity="1" stop-color="rgb(0%, 69.078064%, 56.565857%)" offset="0.617188"/><stop stop-opacity="1" stop-color="rgb(0%, 69.146729%, 56.356812%)" offset="0.621094"/><stop stop-opacity="1" stop-color="rgb(0%, 69.215393%, 56.149292%)" offset="0.625"/><stop stop-opacity="1" stop-color="rgb(0%, 69.282532%, 55.940247%)" offset="0.628906"/><stop stop-opacity="1" stop-color="rgb(0%, 69.351196%, 55.732727%)" offset="0.632812"/><stop stop-opacity="1" stop-color="rgb(0%, 69.419861%, 55.523682%)" offset="0.636719"/><stop stop-opacity="1" stop-color="rgb(0%, 69.488525%, 55.316162%)" offset="0.640625"/><stop stop-opacity="1" stop-color="rgb(0%, 69.555664%, 55.107117%)" offset="0.644531"/><stop stop-opacity="1" stop-color="rgb(0%, 69.624329%, 54.899597%)" offset="0.648438"/><stop stop-opacity="1" stop-color="rgb(0%, 69.691467%, 54.692078%)" offset="0.652344"/><stop stop-opacity="1" stop-color="rgb(0%, 69.760132%, 54.484558%)" offset="0.65625"/><stop stop-opacity="1" stop-color="rgb(0%, 69.828796%, 54.275513%)" offset="0.660156"/><stop stop-opacity="1" stop-color="rgb(0%, 69.897461%, 54.067993%)" offset="0.664062"/><stop stop-opacity="1" stop-color="rgb(0%, 69.9646%, 53.858948%)" offset="0.667969"/><stop stop-opacity="1" stop-color="rgb(0%, 70.033264%, 53.651428%)" offset="0.671875"/><stop stop-opacity="1" stop-color="rgb(0%, 70.101929%, 53.442383%)" offset="0.675781"/><stop stop-opacity="1" stop-color="rgb(0%, 70.170593%, 53.234863%)" offset="0.679687"/><stop stop-opacity="1" stop-color="rgb(0%, 70.237732%, 53.025818%)" offset="0.683594"/><stop stop-opacity="1" stop-color="rgb(0%, 70.306396%, 52.818298%)" offset="0.6875"/><stop stop-opacity="1" stop-color="rgb(0%, 70.373535%, 52.609253%)" offset="0.691406"/><stop stop-opacity="1" stop-color="rgb(0%, 70.4422%, 52.401733%)" offset="0.695312"/><stop stop-opacity="1" stop-color="rgb(0%, 70.510864%, 52.192688%)" offset="0.699219"/><stop stop-opacity="1" stop-color="rgb(0%, 70.579529%, 51.985168%)" offset="0.703125"/><stop stop-opacity="1" stop-color="rgb(0%, 70.646667%, 51.776123%)" offset="0.707031"/><stop stop-opacity="1" stop-color="rgb(0%, 70.715332%, 51.568604%)" offset="0.710938"/><stop stop-opacity="1" stop-color="rgb(0%, 70.783997%, 51.361084%)" offset="0.714844"/><stop stop-opacity="1" stop-color="rgb(0%, 70.852661%, 51.153564%)" offset="0.71875"/><stop stop-opacity="1" stop-color="rgb(0%, 70.9198%, 50.944519%)" offset="0.722656"/><stop stop-opacity="1" stop-color="rgb(0%, 70.988464%, 50.737%)" offset="0.726563"/><stop stop-opacity="1" stop-color="rgb(0%, 71.055603%, 50.527954%)" offset="0.730469"/><stop stop-opacity="1" stop-color="rgb(0%, 71.124268%, 50.320435%)" offset="0.734375"/><stop stop-opacity="1" stop-color="rgb(0%, 71.192932%, 50.111389%)" offset="0.738281"/><stop stop-opacity="1" stop-color="rgb(0%, 71.261597%, 49.90387%)" offset="0.742188"/><stop stop-opacity="1" stop-color="rgb(0%, 71.328735%, 49.694824%)" offset="0.746094"/><stop stop-opacity="1" stop-color="rgb(0%, 71.3974%, 49.487305%)" offset="0.75"/><stop stop-opacity="1" stop-color="rgb(0%, 71.466064%, 49.278259%)" offset="0.753906"/><stop stop-opacity="1" stop-color="rgb(0%, 71.534729%, 49.07074%)" offset="0.757813"/><stop stop-opacity="1" stop-color="rgb(0%, 71.601868%, 48.861694%)" offset="0.761719"/><stop stop-opacity="1" stop-color="rgb(0%, 71.670532%, 48.654175%)" offset="0.765625"/><stop stop-opacity="1" stop-color="rgb(0%, 71.737671%, 48.445129%)" offset="0.769531"/><stop stop-opacity="1" stop-color="rgb(0%, 71.806335%, 48.23761%)" offset="0.773438"/><stop stop-opacity="1" stop-color="rgb(0%, 71.875%, 48.03009%)" offset="0.777344"/><stop stop-opacity="1" stop-color="rgb(0%, 71.943665%, 47.822571%)" offset="0.78125"/><stop stop-opacity="1" stop-color="rgb(0%, 72.010803%, 47.613525%)" offset="0.785156"/><stop stop-opacity="1" stop-color="rgb(0%, 72.079468%, 47.406006%)" offset="0.789063"/><stop stop-opacity="1" stop-color="rgb(0%, 72.146606%, 47.19696%)" offset="0.792969"/><stop stop-opacity="1" stop-color="rgb(0%, 72.215271%, 46.989441%)" offset="0.796875"/><stop stop-opacity="1" stop-color="rgb(0%, 72.283936%, 46.780396%)" offset="0.800781"/><stop stop-opacity="1" stop-color="rgb(0%, 72.3526%, 46.572876%)" offset="0.804688"/><stop stop-opacity="1" stop-color="rgb(0%, 72.419739%, 46.363831%)" offset="0.808594"/><stop stop-opacity="1" stop-color="rgb(0%, 72.488403%, 46.156311%)" offset="0.8125"/><stop stop-opacity="1" stop-color="rgb(0%, 72.557068%, 45.947266%)" offset="0.816406"/><stop stop-opacity="1" stop-color="rgb(0%, 72.625732%, 45.739746%)" offset="0.820313"/><stop stop-opacity="1" stop-color="rgb(0%, 72.692871%, 45.530701%)" offset="0.824219"/><stop stop-opacity="1" stop-color="rgb(0%, 72.761536%, 45.323181%)" offset="0.828125"/><stop stop-opacity="1" stop-color="rgb(0%, 72.828674%, 45.114136%)" offset="0.832031"/><stop stop-opacity="1" stop-color="rgb(0%, 72.897339%, 44.906616%)" offset="0.835938"/><stop stop-opacity="1" stop-color="rgb(0%, 72.966003%, 44.699097%)" offset="0.839844"/><stop stop-opacity="1" stop-color="rgb(0%, 73.034668%, 44.491577%)" offset="0.84375"/><stop stop-opacity="1" stop-color="rgb(0%, 73.101807%, 44.282532%)" offset="0.847656"/><stop stop-opacity="1" stop-color="rgb(0%, 73.170471%, 44.075012%)" offset="0.851563"/><stop stop-opacity="1" stop-color="rgb(0%, 73.239136%, 43.865967%)" offset="0.855469"/><stop stop-opacity="1" stop-color="rgb(0%, 73.3078%, 43.658447%)" offset="0.859375"/><stop stop-opacity="1" stop-color="rgb(0%, 73.374939%, 43.449402%)" offset="0.863281"/><stop stop-opacity="1" stop-color="rgb(0%, 73.443604%, 43.241882%)" offset="0.867188"/><stop stop-opacity="1" stop-color="rgb(0%, 73.510742%, 43.032837%)" offset="0.871094"/><stop stop-opacity="1" stop-color="rgb(0%, 73.579407%, 42.825317%)" offset="0.875"/><stop stop-opacity="1" stop-color="rgb(0%, 73.648071%, 42.616272%)" offset="0.878906"/><stop stop-opacity="1" stop-color="rgb(0%, 73.716736%, 42.408752%)" offset="0.882812"/><stop stop-opacity="1" stop-color="rgb(0%, 73.783875%, 42.199707%)" offset="0.886719"/><stop stop-opacity="1" stop-color="rgb(0%, 73.852539%, 41.992188%)" offset="0.890625"/><stop stop-opacity="1" stop-color="rgb(0%, 73.921204%, 41.783142%)" offset="0.894531"/><stop stop-opacity="1" stop-color="rgb(0%, 73.989868%, 41.575623%)" offset="0.898438"/><stop stop-opacity="1" stop-color="rgb(0%, 74.057007%, 41.368103%)" offset="0.902344"/><stop stop-opacity="1" stop-color="rgb(0%, 74.125671%, 41.160583%)" offset="0.90625"/><stop stop-opacity="1" stop-color="rgb(0%, 74.19281%, 40.951538%)" offset="0.910156"/><stop stop-opacity="1" stop-color="rgb(0%, 74.261475%, 40.744019%)" offset="0.914062"/><stop stop-opacity="1" stop-color="rgb(0%, 74.330139%, 40.534973%)" offset="0.917969"/><stop stop-opacity="1" stop-color="rgb(0%, 74.398804%, 40.327454%)" offset="0.921875"/><stop stop-opacity="1" stop-color="rgb(0%, 74.465942%, 40.118408%)" offset="0.925781"/><stop stop-opacity="1" stop-color="rgb(0%, 74.534607%, 39.910889%)" offset="0.929687"/><stop stop-opacity="1" stop-color="rgb(0%, 74.603271%, 39.701843%)" offset="0.933594"/><stop stop-opacity="1" stop-color="rgb(0%, 74.671936%, 39.494324%)" offset="0.9375"/><stop stop-opacity="1" stop-color="rgb(0%, 74.739075%, 39.285278%)" offset="0.941406"/><stop stop-opacity="1" stop-color="rgb(0%, 74.807739%, 39.077759%)" offset="0.945312"/><stop stop-opacity="1" stop-color="rgb(0%, 74.853516%, 38.937378%)" offset="0.953125"/><stop stop-opacity="1" stop-color="rgb(0%, 74.899292%, 38.798523%)" offset="0.96875"/><stop stop-opacity="1" stop-color="rgb(0%, 74.899292%, 38.798523%)" offset="1"/></linearGradient></defs><g clip-path="url(#05640d890e)"><g clip-path="url(#98666f470d)"><path fill="url(#0942bb420f)" d="M 26.671875 23.707031 L 26.671875 38.597656 L 48.316406 38.597656 L 48.316406 23.707031 Z M 26.671875 23.707031 " fill-rule="nonzero"/></g></g><g fill="#d9d9d9" fill-opacity="1"><g transform="translate(23.749444, 44.977629)"><g><path d="M 0.265625 -3.453125 L 1.859375 -3.453125 C 2.378906 -3.453125 2.640625 -3.226562 2.640625 -2.78125 L 2.640625 -0.671875 C 2.640625 -0.222656 2.378906 0 1.859375 0 L 0.265625 0 Z M 1.703125 -0.734375 L 1.703125 -2.71875 C 1.703125 -2.789062 1.65625 -2.828125 1.5625 -2.828125 L 1.203125 -2.828125 L 1.203125 -0.625 L 1.5625 -0.625 C 1.65625 -0.625 1.703125 -0.660156 1.703125 -0.734375 Z M 1.703125 -0.734375 "/></g></g></g><g fill="#d9d9d9" fill-opacity="1"><g transform="translate(27.348228, 44.977629)"><g><path d="M 1.15625 -1.21875 L 1.15625 0 L 0.21875 0 L 0.21875 -3.453125 L 1.8125 -3.453125 C 2.332031 -3.453125 2.59375 -3.226562 2.59375 -2.78125 L 2.59375 -1.890625 C 2.59375 -1.546875 2.441406 -1.335938 2.140625 -1.265625 L 2.78125 0 L 1.765625 0 L 1.21875 -1.21875 Z M 1.53125 -2.78125 L 1.15625 -2.78125 L 1.15625 -1.859375 L 1.53125 -1.859375 C 1.613281 -1.859375 1.65625 -1.898438 1.65625 -1.984375 L 1.65625 -2.65625 C 1.65625 -2.738281 1.613281 -2.78125 1.53125 -2.78125 Z M 1.53125 -2.78125 "/></g></g></g><g fill="#d9d9d9" fill-opacity="1"><g transform="translate(30.866324, 44.977629)"><g><path d="M 1.15625 -0.671875 L 2.328125 -0.671875 L 2.328125 0 L 0.21875 0 L 0.21875 -3.453125 L 2.28125 -3.453125 L 2.28125 -2.78125 L 1.15625 -2.78125 L 1.15625 -2.078125 L 2.125 -2.078125 L 2.125 -1.40625 L 1.15625 -1.40625 Z M 1.15625 -0.671875 "/></g></g></g><g fill="#d9d9d9" fill-opacity="1"><g transform="translate(34.034777, 44.977629)"><g><path d="M 1.96875 0 L 1.859375 -0.515625 L 1.03125 -0.515625 L 0.921875 0 L 0 0 L 0.890625 -3.453125 L 2.03125 -3.453125 L 2.921875 0 Z M 1.1875 -1.1875 L 1.71875 -1.1875 L 1.453125 -2.421875 Z M 1.1875 -1.1875 "/></g></g></g><g fill="#d9d9d9" fill-opacity="1"><g transform="translate(37.708868, 44.977629)"><g><path d="M 1.046875 0 L 0.21875 0 L 0.21875 -3.453125 L 1.234375 -3.453125 L 1.796875 -1.609375 L 2.359375 -3.453125 L 3.390625 -3.453125 L 3.390625 0 L 2.546875 0 L 2.546875 -2.1875 L 2.125 -0.75 L 1.484375 -0.75 L 1.046875 -2.1875 Z M 1.046875 0 "/></g></g></g><g fill="#d9d9d9" fill-opacity="1"><g transform="translate(42.066112, 44.977629)"><g><path d="M 1.15625 -0.671875 L 2.328125 -0.671875 L 2.328125 0 L 0.21875 0 L 0.21875 -3.453125 L 2.28125 -3.453125 L 2.28125 -2.78125 L 1.15625 -2.78125 L 1.15625 -2.078125 L 2.125 -2.078125 L 2.125 -1.40625 L 1.15625 -1.40625 Z M 1.15625 -0.671875 "/></g></g></g><g fill="#d9d9d9" fill-opacity="1"><g transform="translate(45.234564, 44.977629)"><g><path d="M 1.15625 -1.21875 L 1.15625 0 L 0.21875 0 L 0.21875 -3.453125 L 1.8125 -3.453125 C 2.332031 -3.453125 2.59375 -3.226562 2.59375 -2.78125 L 2.59375 -1.890625 C 2.59375 -1.546875 2.441406 -1.335938 2.140625 -1.265625 L 2.78125 0 L 1.765625 0 L 1.21875 -1.21875 Z M 1.53125 -2.78125 L 1.15625 -2.78125 L 1.15625 -1.859375 L 1.53125 -1.859375 C 1.613281 -1.859375 1.65625 -1.898438 1.65625 -1.984375 L 1.65625 -2.65625 C 1.65625 -2.738281 1.613281 -2.78125 1.53125 -2.78125 Z M 1.53125 -2.78125 "/></g></g></g><g fill="#d9d9d9" fill-opacity="1"><g transform="translate(48.75266, 44.977629)"><g><path d="M 2.390625 -3.453125 L 2.390625 -2.78125 L 1.09375 -0.671875 L 2.34375 -0.671875 L 2.34375 0 L 0.109375 0 L 0.109375 -0.671875 L 1.40625 -2.78125 L 0.171875 -2.78125 L 0.171875 -3.453125 Z M 2.390625 -3.453125 "/></g></g></g><g fill="#d9d9d9" fill-opacity="1"><g transform="translate(35.177067, 50.115715)"><g><path d="M 1.125 -2.359375 C 1.425781 -2.359375 1.578125 -2.203125 1.578125 -1.890625 L 1.578125 -0.484375 C 1.578125 -0.160156 1.425781 0 1.125 0 L 0.1875 0 L 0.1875 -2.359375 Z M 1.0625 -0.421875 L 1.0625 -1.9375 C 1.0625 -1.957031 1.054688 -1.972656 1.046875 -1.984375 C 1.035156 -2.003906 1.019531 -2.015625 1 -2.015625 L 0.6875 -2.015625 L 0.6875 -0.34375 L 1 -0.34375 C 1.019531 -0.34375 1.035156 -0.347656 1.046875 -0.359375 C 1.054688 -0.378906 1.0625 -0.398438 1.0625 -0.421875 Z M 1.0625 -0.421875 "/></g></g></g><g fill="#d9d9d9" fill-opacity="1"><g transform="translate(38.053592, 50.115715)"><g><path d="M 1.578125 -1.921875 L 1.578125 -0.453125 C 1.578125 -0.128906 1.425781 0.03125 1.125 0.03125 L 0.640625 0.03125 C 0.335938 0.03125 0.1875 -0.128906 0.1875 -0.453125 L 0.1875 -1.921875 C 0.1875 -2.242188 0.335938 -2.40625 0.640625 -2.40625 L 1.125 -2.40625 C 1.425781 -2.40625 1.578125 -2.242188 1.578125 -1.921875 Z M 1.0625 -0.390625 L 1.0625 -1.984375 C 1.0625 -2.003906 1.054688 -2.019531 1.046875 -2.03125 C 1.035156 -2.050781 1.019531 -2.0625 1 -2.0625 L 0.765625 -2.0625 C 0.742188 -2.0625 0.722656 -2.050781 0.703125 -2.03125 C 0.691406 -2.019531 0.6875 -2.003906 0.6875 -1.984375 L 0.6875 -0.390625 C 0.6875 -0.367188 0.691406 -0.347656 0.703125 -0.328125 C 0.722656 -0.316406 0.742188 -0.3125 0.765625 -0.3125 L 1 -0.3125 C 1.019531 -0.3125 1.035156 -0.316406 1.046875 -0.328125 C 1.054688 -0.347656 1.0625 -0.367188 1.0625 -0.390625 Z M 1.0625 -0.390625 "/></g></g></g></svg>