<svg xmlns="http://www.w3.org/2000/svg" xmlns:xlink="http://www.w3.org/1999/xlink" width="50" zoomAndPan="magnify" viewBox="0 0 37.5 37.499999" height="50" preserveAspectRatio="xMidYMid meet" version="1.0"><defs><g/><clipPath id="ee297c6b57"><path d="M 13.160156 11.695312 L 23.523438 11.695312 L 23.523438 19.097656 L 13.160156 19.097656 Z M 13.160156 11.695312 " clip-rule="nonzero"/></clipPath><clipPath id="963fc2aa0e"><path d="M 17.707031 17.515625 L 23.136719 17.515625 C 23.25 17.359375 23.355469 17.1875 23.445312 17.011719 C 23.445312 17.007812 23.449219 17.003906 23.449219 17 C 23.488281 16.925781 23.519531 16.851562 23.554688 16.773438 C 23.621094 16.609375 23.679688 16.441406 23.722656 16.269531 L 16.988281 16.269531 L 16.808594 16.582031 L 16.695312 16.773438 L 16.292969 16.773438 L 16.183594 16.582031 L 16 16.269531 L 15.28125 16.269531 L 14.921875 16.894531 L 15.101562 17.203125 L 15.28125 17.515625 L 16 17.515625 L 16.183594 17.203125 L 16.292969 17.011719 L 16.695312 17.011719 L 16.808594 17.203125 L 16.988281 17.515625 Z M 16.882812 13.964844 L 16.996094 14.15625 L 17.175781 14.46875 L 23.722656 14.46875 C 23.679688 14.296875 23.621094 14.128906 23.554688 13.964844 C 23.523438 13.886719 23.488281 13.8125 23.449219 13.734375 C 23.449219 13.734375 23.445312 13.730469 23.445312 13.726562 C 23.355469 13.550781 23.25 13.378906 23.136719 13.222656 L 17.175781 13.222656 L 16.996094 13.53125 L 16.882812 13.726562 L 16.480469 13.726562 L 16.367188 13.53125 L 16.1875 13.222656 L 15.46875 13.222656 L 15.289062 13.53125 L 15.105469 13.84375 L 15.289062 14.15625 L 15.46875 14.46875 L 16.1875 14.46875 L 16.367188 14.15625 L 16.480469 13.964844 Z M 22.015625 12.203125 C 21.46875 11.882812 20.835938 11.695312 20.164062 11.695312 L 18.796875 11.695312 L 18.617188 12.007812 L 18.507812 12.203125 L 18.101562 12.203125 L 17.8125 11.695312 L 17.089844 11.695312 L 16.910156 12.007812 L 16.796875 12.203125 L 16.730469 12.320312 L 16.796875 12.441406 L 16.910156 12.632812 L 17.089844 12.945312 L 17.8125 12.945312 L 17.992188 12.632812 L 18.101562 12.441406 L 18.507812 12.441406 L 18.617188 12.632812 L 18.796875 12.945312 L 22.914062 12.945312 C 22.75 12.757812 22.570312 12.589844 22.371094 12.441406 C 22.257812 12.355469 22.140625 12.273438 22.015625 12.203125 Z M 14.601562 15.367188 L 14.421875 15.058594 L 14.242188 14.746094 L 13.519531 14.746094 L 13.339844 15.058594 L 13.160156 15.367188 L 13.519531 15.992188 L 14.242188 15.992188 Z M 15.417969 17.792969 L 13.578125 17.792969 L 13.394531 18.105469 L 13.214844 18.417969 L 13.394531 18.726562 L 13.578125 19.039062 L 15.417969 19.039062 L 15.597656 18.726562 L 15.707031 18.535156 L 16.113281 18.535156 L 16.222656 18.726562 L 16.402344 19.039062 L 20.164062 19.039062 C 20.835938 19.039062 21.46875 18.855469 22.015625 18.535156 C 22.140625 18.464844 22.257812 18.382812 22.371094 18.296875 C 22.570312 18.148438 22.75 17.976562 22.914062 17.792969 L 16.402344 17.792969 L 16.222656 18.105469 L 16.113281 18.296875 L 15.707031 18.296875 L 15.597656 18.105469 Z M 17.933594 14.746094 L 16.191406 14.746094 L 16.011719 15.058594 L 15.902344 15.25 L 15.832031 15.367188 L 15.902344 15.488281 L 16.011719 15.679688 L 16.191406 15.992188 L 17.933594 15.992188 L 18.113281 15.679688 L 18.222656 15.488281 L 18.628906 15.488281 L 18.558594 15.367188 L 18.917969 15.992188 L 23.78125 15.992188 C 23.808594 15.828125 23.828125 15.660156 23.832031 15.488281 C 23.835938 15.449219 23.835938 15.410156 23.835938 15.367188 C 23.835938 15.328125 23.835938 15.289062 23.832031 15.25 C 23.828125 15.078125 23.808594 14.910156 23.78125 14.746094 L 18.917969 14.746094 L 18.738281 15.058594 L 18.558594 15.367188 L 18.628906 15.25 L 18.222656 15.25 L 18.113281 15.058594 Z M 17.933594 14.746094 " clip-rule="evenodd"/></clipPath><linearGradient x1="2659.940852" gradientTransform="matrix(0.00386034, 0, 0, 0.00386034, 13.160909, 11.69707)" y1="-16.576631" x2="914.649639" gradientUnits="userSpaceOnUse" y2="2529.320073" id="9097d50516"><stop stop-opacity="1" stop-color="rgb(0%, 59.599304%, 85.499573%)" offset="0"/><stop stop-opacity="1" stop-color="rgb(0%, 59.616089%, 85.449219%)" offset="0.0625"/><stop stop-opacity="1" stop-color="rgb(0%, 59.700012%, 85.192871%)" offset="0.0664062"/><stop stop-opacity="1" stop-color="rgb(0%, 59.767151%, 84.988403%)" offset="0.0703125"/><stop stop-opacity="1" stop-color="rgb(0%, 59.83429%, 84.78241%)" offset="0.0742188"/><stop stop-opacity="1" stop-color="rgb(0%, 59.901428%, 84.577942%)" offset="0.078125"/><stop stop-opacity="1" stop-color="rgb(0%, 59.968567%, 84.371948%)" offset="0.0820312"/><stop stop-opacity="1" stop-color="rgb(0%, 60.035706%, 84.16748%)" offset="0.0859375"/><stop stop-opacity="1" stop-color="rgb(0%, 60.102844%, 83.961487%)" offset="0.0898437"/><stop stop-opacity="1" stop-color="rgb(0%, 60.169983%, 83.757019%)" offset="0.09375"/><stop stop-opacity="1" stop-color="rgb(0%, 60.237122%, 83.551025%)" offset="0.0976562"/><stop stop-opacity="1" stop-color="rgb(0%, 60.30426%, 83.346558%)" offset="0.101562"/><stop stop-opacity="1" stop-color="rgb(0%, 60.371399%, 83.14209%)" offset="0.105469"/><stop stop-opacity="1" stop-color="rgb(0%, 60.438538%, 82.937622%)" offset="0.109375"/><stop stop-opacity="1" stop-color="rgb(0%, 60.505676%, 82.731628%)" offset="0.113281"/><stop stop-opacity="1" stop-color="rgb(0%, 60.572815%, 82.527161%)" offset="0.117187"/><stop stop-opacity="1" stop-color="rgb(0%, 60.639954%, 82.321167%)" offset="0.121094"/><stop stop-opacity="1" stop-color="rgb(0%, 60.707092%, 82.116699%)" offset="0.125"/><stop stop-opacity="1" stop-color="rgb(0%, 60.774231%, 81.910706%)" offset="0.128906"/><stop stop-opacity="1" stop-color="rgb(0%, 60.84137%, 81.706238%)" offset="0.132812"/><stop stop-opacity="1" stop-color="rgb(0%, 60.908508%, 81.500244%)" offset="0.136719"/><stop stop-opacity="1" stop-color="rgb(0%, 60.975647%, 81.295776%)" offset="0.140625"/><stop stop-opacity="1" stop-color="rgb(0%, 61.042786%, 81.089783%)" offset="0.144531"/><stop stop-opacity="1" stop-color="rgb(0%, 61.11145%, 80.885315%)" offset="0.148437"/><stop stop-opacity="1" stop-color="rgb(0%, 61.178589%, 80.679321%)" offset="0.152344"/><stop stop-opacity="1" stop-color="rgb(0%, 61.245728%, 80.474854%)" offset="0.15625"/><stop stop-opacity="1" stop-color="rgb(0%, 61.312866%, 80.26886%)" offset="0.160156"/><stop stop-opacity="1" stop-color="rgb(0%, 61.380005%, 80.064392%)" offset="0.164062"/><stop stop-opacity="1" stop-color="rgb(0%, 61.447144%, 79.858398%)" offset="0.167969"/><stop stop-opacity="1" stop-color="rgb(0%, 61.514282%, 79.653931%)" offset="0.171875"/><stop stop-opacity="1" stop-color="rgb(0%, 61.581421%, 79.449463%)" offset="0.175781"/><stop stop-opacity="1" stop-color="rgb(0%, 61.64856%, 79.244995%)" offset="0.179687"/><stop stop-opacity="1" stop-color="rgb(0%, 61.715698%, 79.039001%)" offset="0.183594"/><stop stop-opacity="1" stop-color="rgb(0%, 61.782837%, 78.834534%)" offset="0.1875"/><stop stop-opacity="1" stop-color="rgb(0%, 61.849976%, 78.62854%)" offset="0.191406"/><stop stop-opacity="1" stop-color="rgb(0%, 61.917114%, 78.424072%)" offset="0.195312"/><stop stop-opacity="1" stop-color="rgb(0%, 61.984253%, 78.218079%)" offset="0.199219"/><stop stop-opacity="1" stop-color="rgb(0%, 62.051392%, 78.013611%)" offset="0.203125"/><stop stop-opacity="1" stop-color="rgb(0%, 62.11853%, 77.807617%)" offset="0.207031"/><stop stop-opacity="1" stop-color="rgb(0%, 62.185669%, 77.603149%)" offset="0.210937"/><stop stop-opacity="1" stop-color="rgb(0%, 62.252808%, 77.397156%)" offset="0.214844"/><stop stop-opacity="1" stop-color="rgb(0%, 62.319946%, 77.192688%)" offset="0.21875"/><stop stop-opacity="1" stop-color="rgb(0%, 62.387085%, 76.986694%)" offset="0.222656"/><stop stop-opacity="1" stop-color="rgb(0%, 62.45575%, 76.782227%)" offset="0.226562"/><stop stop-opacity="1" stop-color="rgb(0%, 62.522888%, 76.576233%)" offset="0.230469"/><stop stop-opacity="1" stop-color="rgb(0%, 62.590027%, 76.371765%)" offset="0.234375"/><stop stop-opacity="1" stop-color="rgb(0%, 62.657166%, 76.165771%)" offset="0.238281"/><stop stop-opacity="1" stop-color="rgb(0%, 62.724304%, 75.961304%)" offset="0.242187"/><stop stop-opacity="1" stop-color="rgb(0%, 62.791443%, 75.756836%)" offset="0.246094"/><stop stop-opacity="1" stop-color="rgb(0%, 62.858582%, 75.552368%)" offset="0.25"/><stop stop-opacity="1" stop-color="rgb(0%, 62.92572%, 75.346375%)" offset="0.253906"/><stop stop-opacity="1" stop-color="rgb(0%, 62.992859%, 75.141907%)" offset="0.257812"/><stop stop-opacity="1" stop-color="rgb(0%, 63.059998%, 74.935913%)" offset="0.261719"/><stop stop-opacity="1" stop-color="rgb(0%, 63.127136%, 74.731445%)" offset="0.265625"/><stop stop-opacity="1" stop-color="rgb(0%, 63.194275%, 74.525452%)" offset="0.269531"/><stop stop-opacity="1" stop-color="rgb(0%, 63.261414%, 74.320984%)" offset="0.273438"/><stop stop-opacity="1" stop-color="rgb(0%, 63.328552%, 74.11499%)" offset="0.277344"/><stop stop-opacity="1" stop-color="rgb(0%, 63.395691%, 73.910522%)" offset="0.28125"/><stop stop-opacity="1" stop-color="rgb(0%, 63.46283%, 73.704529%)" offset="0.285156"/><stop stop-opacity="1" stop-color="rgb(0%, 63.529968%, 73.500061%)" offset="0.289062"/><stop stop-opacity="1" stop-color="rgb(0%, 63.597107%, 73.294067%)" offset="0.292969"/><stop stop-opacity="1" stop-color="rgb(0%, 63.664246%, 73.0896%)" offset="0.296875"/><stop stop-opacity="1" stop-color="rgb(0%, 63.731384%, 72.883606%)" offset="0.300781"/><stop stop-opacity="1" stop-color="rgb(0%, 63.798523%, 72.679138%)" offset="0.304688"/><stop stop-opacity="1" stop-color="rgb(0%, 63.865662%, 72.473145%)" offset="0.308594"/><stop stop-opacity="1" stop-color="rgb(0%, 63.934326%, 72.268677%)" offset="0.3125"/><stop stop-opacity="1" stop-color="rgb(0%, 64.001465%, 72.064209%)" offset="0.316406"/><stop stop-opacity="1" stop-color="rgb(0%, 64.068604%, 71.859741%)" offset="0.320312"/><stop stop-opacity="1" stop-color="rgb(0%, 64.135742%, 71.653748%)" offset="0.324219"/><stop stop-opacity="1" stop-color="rgb(0%, 64.202881%, 71.44928%)" offset="0.328125"/><stop stop-opacity="1" stop-color="rgb(0%, 64.27002%, 71.243286%)" offset="0.332031"/><stop stop-opacity="1" stop-color="rgb(0%, 64.337158%, 71.038818%)" offset="0.335937"/><stop stop-opacity="1" stop-color="rgb(0%, 64.404297%, 70.832825%)" offset="0.339844"/><stop stop-opacity="1" stop-color="rgb(0%, 64.471436%, 70.628357%)" offset="0.34375"/><stop stop-opacity="1" stop-color="rgb(0%, 64.538574%, 70.422363%)" offset="0.347656"/><stop stop-opacity="1" stop-color="rgb(0%, 64.605713%, 70.217896%)" offset="0.351562"/><stop stop-opacity="1" stop-color="rgb(0%, 64.672852%, 70.011902%)" offset="0.355469"/><stop stop-opacity="1" stop-color="rgb(0%, 64.73999%, 69.807434%)" offset="0.359375"/><stop stop-opacity="1" stop-color="rgb(0%, 64.807129%, 69.60144%)" offset="0.363281"/><stop stop-opacity="1" stop-color="rgb(0%, 64.874268%, 69.396973%)" offset="0.367188"/><stop stop-opacity="1" stop-color="rgb(0%, 64.941406%, 69.190979%)" offset="0.371094"/><stop stop-opacity="1" stop-color="rgb(0%, 65.008545%, 68.986511%)" offset="0.375"/><stop stop-opacity="1" stop-color="rgb(0%, 65.075684%, 68.780518%)" offset="0.378906"/><stop stop-opacity="1" stop-color="rgb(0%, 65.142822%, 68.57605%)" offset="0.382812"/><stop stop-opacity="1" stop-color="rgb(0%, 65.209961%, 68.371582%)" offset="0.386719"/><stop stop-opacity="1" stop-color="rgb(0%, 65.278625%, 68.167114%)" offset="0.390625"/><stop stop-opacity="1" stop-color="rgb(0%, 65.345764%, 67.961121%)" offset="0.394531"/><stop stop-opacity="1" stop-color="rgb(0%, 65.412903%, 67.756653%)" offset="0.398437"/><stop stop-opacity="1" stop-color="rgb(0%, 65.480042%, 67.550659%)" offset="0.402344"/><stop stop-opacity="1" stop-color="rgb(0%, 65.54718%, 67.346191%)" offset="0.40625"/><stop stop-opacity="1" stop-color="rgb(0%, 65.614319%, 67.140198%)" offset="0.410156"/><stop stop-opacity="1" stop-color="rgb(0%, 65.681458%, 66.93573%)" offset="0.414062"/><stop stop-opacity="1" stop-color="rgb(0%, 65.748596%, 66.729736%)" offset="0.417969"/><stop stop-opacity="1" stop-color="rgb(0%, 65.815735%, 66.525269%)" offset="0.421875"/><stop stop-opacity="1" stop-color="rgb(0%, 65.882874%, 66.319275%)" offset="0.425781"/><stop stop-opacity="1" stop-color="rgb(0%, 65.950012%, 66.114807%)" offset="0.429687"/><stop stop-opacity="1" stop-color="rgb(0%, 66.017151%, 65.908813%)" offset="0.433594"/><stop stop-opacity="1" stop-color="rgb(0%, 66.08429%, 65.704346%)" offset="0.4375"/><stop stop-opacity="1" stop-color="rgb(0%, 66.151428%, 65.498352%)" offset="0.441406"/><stop stop-opacity="1" stop-color="rgb(0%, 66.218567%, 65.293884%)" offset="0.445312"/><stop stop-opacity="1" stop-color="rgb(0%, 66.285706%, 65.087891%)" offset="0.449219"/><stop stop-opacity="1" stop-color="rgb(0%, 66.352844%, 64.883423%)" offset="0.453125"/><stop stop-opacity="1" stop-color="rgb(0%, 66.419983%, 64.678955%)" offset="0.457031"/><stop stop-opacity="1" stop-color="rgb(0%, 66.487122%, 64.474487%)" offset="0.460938"/><stop stop-opacity="1" stop-color="rgb(0%, 66.55426%, 64.268494%)" offset="0.464844"/><stop stop-opacity="1" stop-color="rgb(0%, 66.621399%, 64.064026%)" offset="0.46875"/><stop stop-opacity="1" stop-color="rgb(0%, 66.688538%, 63.858032%)" offset="0.472656"/><stop stop-opacity="1" stop-color="rgb(0%, 66.757202%, 63.653564%)" offset="0.476562"/><stop stop-opacity="1" stop-color="rgb(0%, 66.824341%, 63.447571%)" offset="0.480469"/><stop stop-opacity="1" stop-color="rgb(0%, 66.891479%, 63.243103%)" offset="0.484375"/><stop stop-opacity="1" stop-color="rgb(0%, 66.958618%, 63.037109%)" offset="0.488281"/><stop stop-opacity="1" stop-color="rgb(0%, 67.025757%, 62.832642%)" offset="0.492187"/><stop stop-opacity="1" stop-color="rgb(0%, 67.092896%, 62.626648%)" offset="0.496094"/><stop stop-opacity="1" stop-color="rgb(0%, 67.160034%, 62.42218%)" offset="0.5"/><stop stop-opacity="1" stop-color="rgb(0%, 67.227173%, 62.216187%)" offset="0.503906"/><stop stop-opacity="1" stop-color="rgb(0%, 67.294312%, 62.011719%)" offset="0.507812"/><stop stop-opacity="1" stop-color="rgb(0%, 67.36145%, 61.805725%)" offset="0.511719"/><stop stop-opacity="1" stop-color="rgb(0%, 67.428589%, 61.601257%)" offset="0.515625"/><stop stop-opacity="1" stop-color="rgb(0%, 67.495728%, 61.395264%)" offset="0.519531"/><stop stop-opacity="1" stop-color="rgb(0%, 67.562866%, 61.190796%)" offset="0.523437"/><stop stop-opacity="1" stop-color="rgb(0%, 67.630005%, 60.986328%)" offset="0.527344"/><stop stop-opacity="1" stop-color="rgb(0%, 67.697144%, 60.78186%)" offset="0.53125"/><stop stop-opacity="1" stop-color="rgb(0%, 67.764282%, 60.575867%)" offset="0.535156"/><stop stop-opacity="1" stop-color="rgb(0%, 67.831421%, 60.371399%)" offset="0.539062"/><stop stop-opacity="1" stop-color="rgb(0%, 67.89856%, 60.165405%)" offset="0.542969"/><stop stop-opacity="1" stop-color="rgb(0%, 67.965698%, 59.960938%)" offset="0.546875"/><stop stop-opacity="1" stop-color="rgb(0%, 68.032837%, 59.754944%)" offset="0.550781"/><stop stop-opacity="1" stop-color="rgb(0%, 68.099976%, 59.550476%)" offset="0.554688"/><stop stop-opacity="1" stop-color="rgb(0%, 68.167114%, 59.344482%)" offset="0.558594"/><stop stop-opacity="1" stop-color="rgb(0%, 68.235779%, 59.140015%)" offset="0.5625"/><stop stop-opacity="1" stop-color="rgb(0%, 68.302917%, 58.934021%)" offset="0.566406"/><stop stop-opacity="1" stop-color="rgb(0%, 68.370056%, 58.729553%)" offset="0.570312"/><stop stop-opacity="1" stop-color="rgb(0%, 68.437195%, 58.52356%)" offset="0.574219"/><stop stop-opacity="1" stop-color="rgb(0%, 68.504333%, 58.319092%)" offset="0.578125"/><stop stop-opacity="1" stop-color="rgb(0%, 68.571472%, 58.113098%)" offset="0.582031"/><stop stop-opacity="1" stop-color="rgb(0%, 68.638611%, 57.90863%)" offset="0.585938"/><stop stop-opacity="1" stop-color="rgb(0%, 68.70575%, 57.702637%)" offset="0.589844"/><stop stop-opacity="1" stop-color="rgb(0%, 68.772888%, 57.498169%)" offset="0.59375"/><stop stop-opacity="1" stop-color="rgb(0%, 68.840027%, 57.293701%)" offset="0.597656"/><stop stop-opacity="1" stop-color="rgb(0%, 68.907166%, 57.089233%)" offset="0.601562"/><stop stop-opacity="1" stop-color="rgb(0%, 68.974304%, 56.88324%)" offset="0.605469"/><stop stop-opacity="1" stop-color="rgb(0%, 69.041443%, 56.678772%)" offset="0.609375"/><stop stop-opacity="1" stop-color="rgb(0%, 69.108582%, 56.472778%)" offset="0.613281"/><stop stop-opacity="1" stop-color="rgb(0%, 69.17572%, 56.268311%)" offset="0.617187"/><stop stop-opacity="1" stop-color="rgb(0%, 69.242859%, 56.062317%)" offset="0.621094"/><stop stop-opacity="1" stop-color="rgb(0%, 69.309998%, 55.857849%)" offset="0.625"/><stop stop-opacity="1" stop-color="rgb(0%, 69.377136%, 55.651855%)" offset="0.628906"/><stop stop-opacity="1" stop-color="rgb(0%, 69.444275%, 55.447388%)" offset="0.632812"/><stop stop-opacity="1" stop-color="rgb(0%, 69.511414%, 55.241394%)" offset="0.636719"/><stop stop-opacity="1" stop-color="rgb(0%, 69.580078%, 55.036926%)" offset="0.640625"/><stop stop-opacity="1" stop-color="rgb(0%, 69.647217%, 54.830933%)" offset="0.644531"/><stop stop-opacity="1" stop-color="rgb(0%, 69.714355%, 54.626465%)" offset="0.648438"/><stop stop-opacity="1" stop-color="rgb(0%, 69.781494%, 54.420471%)" offset="0.652344"/><stop stop-opacity="1" stop-color="rgb(0%, 69.848633%, 54.216003%)" offset="0.65625"/><stop stop-opacity="1" stop-color="rgb(0%, 69.915771%, 54.01001%)" offset="0.660156"/><stop stop-opacity="1" stop-color="rgb(0%, 69.98291%, 53.805542%)" offset="0.664062"/><stop stop-opacity="1" stop-color="rgb(0%, 70.050049%, 53.601074%)" offset="0.667969"/><stop stop-opacity="1" stop-color="rgb(0%, 70.117188%, 53.396606%)" offset="0.671875"/><stop stop-opacity="1" stop-color="rgb(0%, 70.184326%, 53.190613%)" offset="0.675781"/><stop stop-opacity="1" stop-color="rgb(0%, 70.251465%, 52.986145%)" offset="0.679688"/><stop stop-opacity="1" stop-color="rgb(0%, 70.318604%, 52.780151%)" offset="0.683594"/><stop stop-opacity="1" stop-color="rgb(0%, 70.385742%, 52.575684%)" offset="0.6875"/><stop stop-opacity="1" stop-color="rgb(0%, 70.452881%, 52.36969%)" offset="0.691406"/><stop stop-opacity="1" stop-color="rgb(0%, 70.52002%, 52.165222%)" offset="0.695312"/><stop stop-opacity="1" stop-color="rgb(0%, 70.587158%, 51.959229%)" offset="0.699219"/><stop stop-opacity="1" stop-color="rgb(0%, 70.654297%, 51.754761%)" offset="0.703125"/><stop stop-opacity="1" stop-color="rgb(0%, 70.721436%, 51.548767%)" offset="0.707031"/><stop stop-opacity="1" stop-color="rgb(0%, 70.788574%, 51.344299%)" offset="0.710937"/><stop stop-opacity="1" stop-color="rgb(0%, 70.855713%, 51.138306%)" offset="0.714844"/><stop stop-opacity="1" stop-color="rgb(0%, 70.922852%, 50.933838%)" offset="0.71875"/><stop stop-opacity="1" stop-color="rgb(0%, 70.98999%, 50.727844%)" offset="0.722656"/><stop stop-opacity="1" stop-color="rgb(0%, 71.058655%, 50.523376%)" offset="0.726562"/><stop stop-opacity="1" stop-color="rgb(0%, 71.125793%, 50.317383%)" offset="0.730469"/><stop stop-opacity="1" stop-color="rgb(0%, 71.192932%, 50.112915%)" offset="0.734375"/><stop stop-opacity="1" stop-color="rgb(0%, 71.260071%, 49.908447%)" offset="0.738281"/><stop stop-opacity="1" stop-color="rgb(0%, 71.327209%, 49.703979%)" offset="0.742187"/><stop stop-opacity="1" stop-color="rgb(0%, 71.394348%, 49.497986%)" offset="0.746094"/><stop stop-opacity="1" stop-color="rgb(0%, 71.461487%, 49.293518%)" offset="0.75"/><stop stop-opacity="1" stop-color="rgb(0%, 71.528625%, 49.087524%)" offset="0.753906"/><stop stop-opacity="1" stop-color="rgb(0%, 71.595764%, 48.883057%)" offset="0.757812"/><stop stop-opacity="1" stop-color="rgb(0%, 71.662903%, 48.677063%)" offset="0.761719"/><stop stop-opacity="1" stop-color="rgb(0%, 71.730042%, 48.472595%)" offset="0.765625"/><stop stop-opacity="1" stop-color="rgb(0%, 71.79718%, 48.266602%)" offset="0.769531"/><stop stop-opacity="1" stop-color="rgb(0%, 71.864319%, 48.062134%)" offset="0.773438"/><stop stop-opacity="1" stop-color="rgb(0%, 71.931458%, 47.85614%)" offset="0.777344"/><stop stop-opacity="1" stop-color="rgb(0%, 71.998596%, 47.651672%)" offset="0.78125"/><stop stop-opacity="1" stop-color="rgb(0%, 72.065735%, 47.445679%)" offset="0.785156"/><stop stop-opacity="1" stop-color="rgb(0%, 72.132874%, 47.241211%)" offset="0.789062"/><stop stop-opacity="1" stop-color="rgb(0%, 72.200012%, 47.035217%)" offset="0.792969"/><stop stop-opacity="1" stop-color="rgb(0%, 72.267151%, 46.83075%)" offset="0.796875"/><stop stop-opacity="1" stop-color="rgb(0%, 72.33429%, 46.624756%)" offset="0.800781"/><stop stop-opacity="1" stop-color="rgb(0%, 72.402954%, 46.420288%)" offset="0.804688"/><stop stop-opacity="1" stop-color="rgb(0%, 72.470093%, 46.21582%)" offset="0.808594"/><stop stop-opacity="1" stop-color="rgb(0%, 72.537231%, 46.011353%)" offset="0.8125"/><stop stop-opacity="1" stop-color="rgb(0%, 72.60437%, 45.805359%)" offset="0.816406"/><stop stop-opacity="1" stop-color="rgb(0%, 72.671509%, 45.600891%)" offset="0.820312"/><stop stop-opacity="1" stop-color="rgb(0%, 72.738647%, 45.394897%)" offset="0.824219"/><stop stop-opacity="1" stop-color="rgb(0%, 72.805786%, 45.19043%)" offset="0.828125"/><stop stop-opacity="1" stop-color="rgb(0%, 72.872925%, 44.984436%)" offset="0.832031"/><stop stop-opacity="1" stop-color="rgb(0%, 72.940063%, 44.779968%)" offset="0.835937"/><stop stop-opacity="1" stop-color="rgb(0%, 73.007202%, 44.573975%)" offset="0.839844"/><stop stop-opacity="1" stop-color="rgb(0%, 73.074341%, 44.369507%)" offset="0.84375"/><stop stop-opacity="1" stop-color="rgb(0%, 73.141479%, 44.163513%)" offset="0.847656"/><stop stop-opacity="1" stop-color="rgb(0%, 73.208618%, 43.959045%)" offset="0.851562"/><stop stop-opacity="1" stop-color="rgb(0%, 73.275757%, 43.753052%)" offset="0.855469"/><stop stop-opacity="1" stop-color="rgb(0%, 73.342896%, 43.548584%)" offset="0.859375"/><stop stop-opacity="1" stop-color="rgb(0%, 73.410034%, 43.34259%)" offset="0.863281"/><stop stop-opacity="1" stop-color="rgb(0%, 73.477173%, 43.138123%)" offset="0.867188"/><stop stop-opacity="1" stop-color="rgb(0%, 73.544312%, 42.932129%)" offset="0.871094"/><stop stop-opacity="1" stop-color="rgb(0%, 73.61145%, 42.727661%)" offset="0.875"/><stop stop-opacity="1" stop-color="rgb(0%, 73.678589%, 42.521667%)" offset="0.878906"/><stop stop-opacity="1" stop-color="rgb(0%, 73.745728%, 42.3172%)" offset="0.882812"/><stop stop-opacity="1" stop-color="rgb(0%, 73.812866%, 42.112732%)" offset="0.886719"/><stop stop-opacity="1" stop-color="rgb(0%, 73.881531%, 41.908264%)" offset="0.890625"/><stop stop-opacity="1" stop-color="rgb(0%, 73.948669%, 41.702271%)" offset="0.894531"/><stop stop-opacity="1" stop-color="rgb(0%, 74.015808%, 41.497803%)" offset="0.898438"/><stop stop-opacity="1" stop-color="rgb(0%, 74.082947%, 41.291809%)" offset="0.902344"/><stop stop-opacity="1" stop-color="rgb(0%, 74.150085%, 41.087341%)" offset="0.90625"/><stop stop-opacity="1" stop-color="rgb(0%, 74.217224%, 40.881348%)" offset="0.910156"/><stop stop-opacity="1" stop-color="rgb(0%, 74.284363%, 40.67688%)" offset="0.914062"/><stop stop-opacity="1" stop-color="rgb(0%, 74.351501%, 40.470886%)" offset="0.917969"/><stop stop-opacity="1" stop-color="rgb(0%, 74.41864%, 40.266418%)" offset="0.921875"/><stop stop-opacity="1" stop-color="rgb(0%, 74.485779%, 40.060425%)" offset="0.925781"/><stop stop-opacity="1" stop-color="rgb(0%, 74.552917%, 39.855957%)" offset="0.929688"/><stop stop-opacity="1" stop-color="rgb(0%, 74.620056%, 39.649963%)" offset="0.933594"/><stop stop-opacity="1" stop-color="rgb(0%, 74.687195%, 39.445496%)" offset="0.9375"/><stop stop-opacity="1" stop-color="rgb(0%, 74.754333%, 39.239502%)" offset="0.941406"/><stop stop-opacity="1" stop-color="rgb(0%, 74.821472%, 39.035034%)" offset="0.945312"/><stop stop-opacity="1" stop-color="rgb(0%, 74.859619%, 38.916016%)" offset="0.953125"/><stop stop-opacity="1" stop-color="rgb(0%, 74.899292%, 38.798523%)" offset="0.96875"/><stop stop-opacity="1" stop-color="rgb(0%, 74.899292%, 38.798523%)" offset="1"/></linearGradient></defs><g clip-path="url(#ee297c6b57)"><g clip-path="url(#963fc2aa0e)"><path fill="url(#9097d50516)" d="M 13.160156 11.695312 L 13.160156 19.039062 L 23.523438 19.039062 L 23.523438 11.695312 Z M 13.160156 11.695312 " fill-rule="nonzero"/></g></g><g fill="#d9d9d9" fill-opacity="1"><g transform="translate(11.718476, 22.19291)"><g><path d="M 0.125 -1.703125 L 0.921875 -1.703125 C 1.179688 -1.703125 1.3125 -1.59375 1.3125 -1.375 L 1.3125 -0.328125 C 1.3125 -0.109375 1.179688 0 0.921875 0 L 0.125 0 Z M 0.84375 -0.359375 L 0.84375 -1.34375 C 0.84375 -1.382812 0.820312 -1.40625 0.78125 -1.40625 L 0.59375 -1.40625 L 0.59375 -0.3125 L 0.78125 -0.3125 C 0.820312 -0.3125 0.84375 -0.328125 0.84375 -0.359375 Z M 0.84375 -0.359375 "/></g></g></g><g fill="#d9d9d9" fill-opacity="1"><g transform="translate(13.494191, 22.19291)"><g><path d="M 0.578125 -0.609375 L 0.578125 0 L 0.109375 0 L 0.109375 -1.703125 L 0.890625 -1.703125 C 1.148438 -1.703125 1.28125 -1.59375 1.28125 -1.375 L 1.28125 -0.9375 C 1.28125 -0.769531 1.207031 -0.664062 1.0625 -0.625 L 1.375 0 L 0.875 0 L 0.59375 -0.609375 Z M 0.75 -1.375 L 0.578125 -1.375 L 0.578125 -0.921875 L 0.75 -0.921875 C 0.800781 -0.921875 0.828125 -0.941406 0.828125 -0.984375 L 0.828125 -1.3125 C 0.828125 -1.351562 0.800781 -1.375 0.75 -1.375 Z M 0.75 -1.375 "/></g></g></g><g fill="#d9d9d9" fill-opacity="1"><g transform="translate(15.230094, 22.19291)"><g><path d="M 0.578125 -0.328125 L 1.15625 -0.328125 L 1.15625 0 L 0.109375 0 L 0.109375 -1.703125 L 1.125 -1.703125 L 1.125 -1.375 L 0.578125 -1.375 L 0.578125 -1.03125 L 1.046875 -1.03125 L 1.046875 -0.6875 L 0.578125 -0.6875 Z M 0.578125 -0.328125 "/></g></g></g><g fill="#d9d9d9" fill-opacity="1"><g transform="translate(16.793475, 22.19291)"><g><path d="M 0.96875 0 L 0.921875 -0.25 L 0.515625 -0.25 L 0.453125 0 L 0 0 L 0.4375 -1.703125 L 1 -1.703125 L 1.4375 0 Z M 0.578125 -0.578125 L 0.84375 -0.578125 L 0.71875 -1.203125 Z M 0.578125 -0.578125 "/></g></g></g><g fill="#d9d9d9" fill-opacity="1"><g transform="translate(18.606349, 22.19291)"><g><path d="M 0.515625 0 L 0.109375 0 L 0.109375 -1.703125 L 0.609375 -1.703125 L 0.890625 -0.796875 L 1.171875 -1.703125 L 1.671875 -1.703125 L 1.671875 0 L 1.265625 0 L 1.265625 -1.078125 L 1.046875 -0.375 L 0.734375 -0.375 L 0.515625 -1.078125 Z M 0.515625 0 "/></g></g></g><g fill="#d9d9d9" fill-opacity="1"><g transform="translate(20.756305, 22.19291)"><g><path d="M 0.578125 -0.328125 L 1.15625 -0.328125 L 1.15625 0 L 0.109375 0 L 0.109375 -1.703125 L 1.125 -1.703125 L 1.125 -1.375 L 0.578125 -1.375 L 0.578125 -1.03125 L 1.046875 -1.03125 L 1.046875 -0.6875 L 0.578125 -0.6875 Z M 0.578125 -0.328125 "/></g></g></g><g fill="#d9d9d9" fill-opacity="1"><g transform="translate(22.319686, 22.19291)"><g><path d="M 0.578125 -0.609375 L 0.578125 0 L 0.109375 0 L 0.109375 -1.703125 L 0.890625 -1.703125 C 1.148438 -1.703125 1.28125 -1.59375 1.28125 -1.375 L 1.28125 -0.9375 C 1.28125 -0.769531 1.207031 -0.664062 1.0625 -0.625 L 1.375 0 L 0.875 0 L 0.59375 -0.609375 Z M 0.75 -1.375 L 0.578125 -1.375 L 0.578125 -0.921875 L 0.75 -0.921875 C 0.800781 -0.921875 0.828125 -0.941406 0.828125 -0.984375 L 0.828125 -1.3125 C 0.828125 -1.351562 0.800781 -1.375 0.75 -1.375 Z M 0.75 -1.375 "/></g></g></g><g fill="#d9d9d9" fill-opacity="1"><g transform="translate(24.055589, 22.19291)"><g><path d="M 1.171875 -1.703125 L 1.171875 -1.375 L 0.546875 -0.328125 L 1.15625 -0.328125 L 1.15625 0 L 0.046875 0 L 0.046875 -0.328125 L 0.6875 -1.375 L 0.09375 -1.375 L 0.09375 -1.703125 Z M 1.171875 -1.703125 "/></g></g></g><g fill="#d9d9d9" fill-opacity="1"><g transform="translate(17.357106, 24.728149)"><g><path d="M 0.546875 -1.15625 C 0.703125 -1.15625 0.78125 -1.078125 0.78125 -0.921875 L 0.78125 -0.234375 C 0.78125 -0.078125 0.703125 0 0.546875 0 L 0.09375 0 L 0.09375 -1.15625 Z M 0.515625 -0.203125 L 0.515625 -0.953125 C 0.515625 -0.960938 0.507812 -0.96875 0.5 -0.96875 C 0.5 -0.976562 0.492188 -0.984375 0.484375 -0.984375 L 0.34375 -0.984375 L 0.34375 -0.171875 L 0.484375 -0.171875 C 0.492188 -0.171875 0.5 -0.171875 0.5 -0.171875 C 0.507812 -0.179688 0.515625 -0.191406 0.515625 -0.203125 Z M 0.515625 -0.203125 "/></g></g></g><g fill="#d9d9d9" fill-opacity="1"><g transform="translate(18.776443, 24.728149)"><g><path d="M 0.78125 -0.9375 L 0.78125 -0.21875 C 0.78125 -0.0625 0.703125 0.015625 0.546875 0.015625 L 0.3125 0.015625 C 0.164062 0.015625 0.09375 -0.0625 0.09375 -0.21875 L 0.09375 -0.9375 C 0.09375 -1.101562 0.164062 -1.1875 0.3125 -1.1875 L 0.546875 -1.1875 C 0.703125 -1.1875 0.78125 -1.101562 0.78125 -0.9375 Z M 0.515625 -0.1875 L 0.515625 -0.96875 C 0.515625 -0.976562 0.507812 -0.988281 0.5 -1 C 0.5 -1.007812 0.492188 -1.015625 0.484375 -1.015625 L 0.375 -1.015625 C 0.363281 -1.015625 0.351562 -1.007812 0.34375 -1 C 0.34375 -0.988281 0.34375 -0.976562 0.34375 -0.96875 L 0.34375 -0.1875 C 0.34375 -0.175781 0.34375 -0.164062 0.34375 -0.15625 C 0.351562 -0.15625 0.363281 -0.15625 0.375 -0.15625 L 0.484375 -0.15625 C 0.492188 -0.15625 0.5 -0.15625 0.5 -0.15625 C 0.507812 -0.164062 0.515625 -0.175781 0.515625 -0.1875 Z M 0.515625 -0.1875 "/></g></g></g></svg>