<svg xmlns="http://www.w3.org/2000/svg" xmlns:xlink="http://www.w3.org/1999/xlink" width="250" zoomAndPan="magnify" viewBox="0 0 187.5 187.499992" height="250" preserveAspectRatio="xMidYMid meet" version="1.0"><defs><g/><clipPath id="543cf48fab"><path d="M 17.222656 11.902344 L 169.8125 11.902344 L 169.8125 116.621094 L 17.222656 116.621094 Z M 17.222656 11.902344 " clip-rule="nonzero"/></clipPath><clipPath id="4b83dc19f9"><path d="M 82.226562 95.070312 L 159.785156 95.070312 C 161.433594 92.792969 162.910156 90.378906 164.1875 87.855469 C 164.210938 87.804688 164.234375 87.757812 164.257812 87.710938 C 164.792969 86.640625 165.292969 85.550781 165.753906 84.445312 C 166.726562 82.117188 167.535156 79.707031 168.164062 77.230469 L 71.925781 77.230469 L 69.351562 81.691406 L 67.757812 84.445312 L 61.992188 84.445312 L 60.402344 81.691406 L 57.828125 77.230469 L 47.527344 77.230469 L 44.949219 81.691406 L 42.375 86.148438 L 44.949219 90.609375 L 47.527344 95.070312 L 57.828125 95.070312 L 60.402344 90.609375 L 61.992188 87.855469 L 67.757812 87.855469 L 69.351562 90.609375 L 71.925781 95.070312 Z M 70.429688 44.300781 L 72.023438 47.058594 L 74.597656 51.519531 L 168.164062 51.519531 C 167.535156 49.039062 166.726562 46.628906 165.753906 44.300781 C 165.292969 43.195312 164.792969 42.105469 164.257812 41.035156 C 164.234375 40.988281 164.210938 40.941406 164.183594 40.894531 C 162.910156 38.367188 161.433594 35.953125 159.785156 33.679688 L 74.597656 33.679688 L 72.023438 38.136719 L 70.429688 40.894531 L 64.660156 40.894531 L 63.070312 38.136719 L 60.496094 33.679688 L 50.199219 33.679688 L 47.621094 38.136719 L 45.046875 42.597656 L 47.621094 47.058594 L 50.199219 51.519531 L 60.496094 51.519531 L 63.070312 47.058594 L 64.660156 44.300781 Z M 143.769531 19.117188 C 135.984375 14.535156 126.933594 11.902344 117.296875 11.902344 L 97.785156 11.902344 L 95.210938 16.359375 L 93.621094 19.117188 L 87.855469 19.117188 L 83.6875 11.902344 L 73.386719 11.902344 L 70.8125 16.359375 L 69.222656 19.117188 L 68.238281 20.820312 L 69.222656 22.523438 L 70.8125 25.28125 L 73.386719 29.738281 L 83.6875 29.738281 L 86.261719 25.28125 L 87.855469 22.523438 L 93.621094 22.523438 L 95.210938 25.28125 L 97.785156 29.738281 L 156.632812 29.738281 C 154.292969 27.085938 151.6875 24.664062 148.859375 22.523438 C 147.230469 21.292969 145.535156 20.152344 143.769531 19.117188 Z M 37.832031 64.371094 L 35.257812 59.914062 L 32.683594 55.453125 L 22.382812 55.453125 L 19.808594 59.914062 L 17.234375 64.371094 L 22.382812 73.292969 L 32.683594 73.292969 Z M 49.480469 99.003906 L 23.175781 99.003906 L 18.027344 107.925781 L 20.601562 112.382812 L 23.175781 116.84375 L 49.480469 116.84375 L 52.054688 112.382812 L 53.644531 109.628906 L 59.410156 109.628906 L 61.003906 112.382812 L 63.578125 116.84375 L 117.296875 116.84375 C 126.933594 116.84375 135.984375 114.210938 143.769531 109.628906 C 145.53125 108.589844 147.230469 107.453125 148.855469 106.21875 C 151.683594 104.078125 154.289062 101.660156 156.632812 99.003906 L 63.578125 99.003906 L 61.003906 103.464844 L 59.410156 106.21875 L 53.644531 106.21875 L 52.054688 103.464844 Z M 85.421875 55.453125 L 60.5625 55.453125 L 57.984375 59.914062 L 56.394531 62.667969 L 55.410156 64.375 L 56.394531 66.078125 L 57.984375 68.832031 L 60.5625 73.292969 L 85.421875 73.292969 L 87.996094 68.832031 L 89.585938 66.078125 L 95.355469 66.078125 L 94.371094 64.375 L 96.945312 68.832031 L 99.519531 73.292969 L 169.003906 73.292969 C 169.410156 70.9375 169.660156 68.527344 169.738281 66.078125 C 169.757812 65.511719 169.765625 64.941406 169.765625 64.375 C 169.765625 63.804688 169.757812 63.234375 169.738281 62.667969 C 169.660156 60.21875 169.410156 57.808594 169.003906 55.453125 L 99.519531 55.453125 L 94.371094 64.375 L 95.355469 62.667969 L 89.585938 62.667969 L 87.996094 59.914062 Z M 85.421875 55.453125 " clip-rule="evenodd"/></clipPath><linearGradient x1="2685.782156" gradientTransform="matrix(0.0551666, 0, 0, 0.0551666, 17.233752, 11.901562)" y1="-54.271939" x2="916.531213" gradientUnits="userSpaceOnUse" y2="2526.575377" id="4503bc7742"><stop stop-opacity="1" stop-color="rgb(0%, 59.599304%, 85.499573%)" offset="0"/><stop stop-opacity="1" stop-color="rgb(0%, 59.599304%, 85.499573%)" offset="0.0625"/><stop stop-opacity="1" stop-color="rgb(0%, 59.631348%, 85.398865%)" offset="0.078125"/><stop stop-opacity="1" stop-color="rgb(0%, 59.732056%, 85.090637%)" offset="0.0820312"/><stop stop-opacity="1" stop-color="rgb(0%, 59.80072%, 84.883118%)" offset="0.0859375"/><stop stop-opacity="1" stop-color="rgb(0%, 59.867859%, 84.675598%)" offset="0.0898438"/><stop stop-opacity="1" stop-color="rgb(0%, 59.936523%, 84.468079%)" offset="0.09375"/><stop stop-opacity="1" stop-color="rgb(0%, 60.005188%, 84.259033%)" offset="0.0976562"/><stop stop-opacity="1" stop-color="rgb(0%, 60.073853%, 84.051514%)" offset="0.101562"/><stop stop-opacity="1" stop-color="rgb(0%, 60.140991%, 83.843994%)" offset="0.105469"/><stop stop-opacity="1" stop-color="rgb(0%, 60.209656%, 83.636475%)" offset="0.109375"/><stop stop-opacity="1" stop-color="rgb(0%, 60.276794%, 83.427429%)" offset="0.113281"/><stop stop-opacity="1" stop-color="rgb(0%, 60.345459%, 83.21991%)" offset="0.117187"/><stop stop-opacity="1" stop-color="rgb(0%, 60.414124%, 83.010864%)" offset="0.121094"/><stop stop-opacity="1" stop-color="rgb(0%, 60.482788%, 82.803345%)" offset="0.125"/><stop stop-opacity="1" stop-color="rgb(0%, 60.549927%, 82.595825%)" offset="0.128906"/><stop stop-opacity="1" stop-color="rgb(0%, 60.618591%, 82.388306%)" offset="0.132812"/><stop stop-opacity="1" stop-color="rgb(0%, 60.68573%, 82.17926%)" offset="0.136719"/><stop stop-opacity="1" stop-color="rgb(0%, 60.754395%, 81.971741%)" offset="0.140625"/><stop stop-opacity="1" stop-color="rgb(0%, 60.823059%, 81.764221%)" offset="0.144531"/><stop stop-opacity="1" stop-color="rgb(0%, 60.891724%, 81.556702%)" offset="0.148437"/><stop stop-opacity="1" stop-color="rgb(0%, 60.958862%, 81.347656%)" offset="0.152344"/><stop stop-opacity="1" stop-color="rgb(0%, 61.027527%, 81.140137%)" offset="0.15625"/><stop stop-opacity="1" stop-color="rgb(0%, 61.094666%, 80.931091%)" offset="0.160156"/><stop stop-opacity="1" stop-color="rgb(0%, 61.16333%, 80.723572%)" offset="0.164062"/><stop stop-opacity="1" stop-color="rgb(0%, 61.231995%, 80.516052%)" offset="0.167969"/><stop stop-opacity="1" stop-color="rgb(0%, 61.300659%, 80.308533%)" offset="0.171875"/><stop stop-opacity="1" stop-color="rgb(0%, 61.367798%, 80.099487%)" offset="0.175781"/><stop stop-opacity="1" stop-color="rgb(0%, 61.436462%, 79.891968%)" offset="0.179688"/><stop stop-opacity="1" stop-color="rgb(0%, 61.503601%, 79.684448%)" offset="0.183594"/><stop stop-opacity="1" stop-color="rgb(0%, 61.572266%, 79.476929%)" offset="0.1875"/><stop stop-opacity="1" stop-color="rgb(0%, 61.639404%, 79.267883%)" offset="0.191406"/><stop stop-opacity="1" stop-color="rgb(0%, 61.708069%, 79.060364%)" offset="0.195312"/><stop stop-opacity="1" stop-color="rgb(0%, 61.776733%, 78.852844%)" offset="0.199219"/><stop stop-opacity="1" stop-color="rgb(0%, 61.845398%, 78.645325%)" offset="0.203125"/><stop stop-opacity="1" stop-color="rgb(0%, 61.912537%, 78.436279%)" offset="0.207031"/><stop stop-opacity="1" stop-color="rgb(0%, 61.981201%, 78.22876%)" offset="0.210937"/><stop stop-opacity="1" stop-color="rgb(0%, 62.04834%, 78.019714%)" offset="0.214844"/><stop stop-opacity="1" stop-color="rgb(0%, 62.117004%, 77.812195%)" offset="0.21875"/><stop stop-opacity="1" stop-color="rgb(0%, 62.185669%, 77.604675%)" offset="0.222656"/><stop stop-opacity="1" stop-color="rgb(0%, 62.254333%, 77.397156%)" offset="0.226562"/><stop stop-opacity="1" stop-color="rgb(0%, 62.321472%, 77.18811%)" offset="0.230469"/><stop stop-opacity="1" stop-color="rgb(0%, 62.390137%, 76.980591%)" offset="0.234375"/><stop stop-opacity="1" stop-color="rgb(0%, 62.457275%, 76.773071%)" offset="0.238281"/><stop stop-opacity="1" stop-color="rgb(0%, 62.52594%, 76.565552%)" offset="0.242188"/><stop stop-opacity="1" stop-color="rgb(0%, 62.594604%, 76.356506%)" offset="0.246094"/><stop stop-opacity="1" stop-color="rgb(0%, 62.663269%, 76.148987%)" offset="0.25"/><stop stop-opacity="1" stop-color="rgb(0%, 62.730408%, 75.939941%)" offset="0.253906"/><stop stop-opacity="1" stop-color="rgb(0%, 62.799072%, 75.732422%)" offset="0.257812"/><stop stop-opacity="1" stop-color="rgb(0%, 62.866211%, 75.524902%)" offset="0.261719"/><stop stop-opacity="1" stop-color="rgb(0%, 62.934875%, 75.317383%)" offset="0.265625"/><stop stop-opacity="1" stop-color="rgb(0%, 63.002014%, 75.108337%)" offset="0.269531"/><stop stop-opacity="1" stop-color="rgb(0%, 63.070679%, 74.900818%)" offset="0.273438"/><stop stop-opacity="1" stop-color="rgb(0%, 63.139343%, 74.693298%)" offset="0.277344"/><stop stop-opacity="1" stop-color="rgb(0%, 63.208008%, 74.485779%)" offset="0.28125"/><stop stop-opacity="1" stop-color="rgb(0%, 63.275146%, 74.276733%)" offset="0.285156"/><stop stop-opacity="1" stop-color="rgb(0%, 63.343811%, 74.069214%)" offset="0.289062"/><stop stop-opacity="1" stop-color="rgb(0%, 63.41095%, 73.861694%)" offset="0.292969"/><stop stop-opacity="1" stop-color="rgb(0%, 63.479614%, 73.654175%)" offset="0.296875"/><stop stop-opacity="1" stop-color="rgb(0%, 63.548279%, 73.445129%)" offset="0.300781"/><stop stop-opacity="1" stop-color="rgb(0%, 63.616943%, 73.23761%)" offset="0.304688"/><stop stop-opacity="1" stop-color="rgb(0%, 63.684082%, 73.028564%)" offset="0.308594"/><stop stop-opacity="1" stop-color="rgb(0%, 63.752747%, 72.821045%)" offset="0.3125"/><stop stop-opacity="1" stop-color="rgb(0%, 63.819885%, 72.613525%)" offset="0.316406"/><stop stop-opacity="1" stop-color="rgb(0%, 63.88855%, 72.406006%)" offset="0.320312"/><stop stop-opacity="1" stop-color="rgb(0%, 63.957214%, 72.19696%)" offset="0.324219"/><stop stop-opacity="1" stop-color="rgb(0%, 64.025879%, 71.989441%)" offset="0.328125"/><stop stop-opacity="1" stop-color="rgb(0%, 64.093018%, 71.781921%)" offset="0.332031"/><stop stop-opacity="1" stop-color="rgb(0%, 64.161682%, 71.574402%)" offset="0.335938"/><stop stop-opacity="1" stop-color="rgb(0%, 64.228821%, 71.365356%)" offset="0.339844"/><stop stop-opacity="1" stop-color="rgb(0%, 64.297485%, 71.157837%)" offset="0.34375"/><stop stop-opacity="1" stop-color="rgb(0%, 64.364624%, 70.948792%)" offset="0.347656"/><stop stop-opacity="1" stop-color="rgb(0%, 64.433289%, 70.741272%)" offset="0.351562"/><stop stop-opacity="1" stop-color="rgb(0%, 64.501953%, 70.533752%)" offset="0.355469"/><stop stop-opacity="1" stop-color="rgb(0%, 64.570618%, 70.326233%)" offset="0.359375"/><stop stop-opacity="1" stop-color="rgb(0%, 64.637756%, 70.117188%)" offset="0.363281"/><stop stop-opacity="1" stop-color="rgb(0%, 64.706421%, 69.909668%)" offset="0.367188"/><stop stop-opacity="1" stop-color="rgb(0%, 64.77356%, 69.702148%)" offset="0.371094"/><stop stop-opacity="1" stop-color="rgb(0%, 64.842224%, 69.494629%)" offset="0.375"/><stop stop-opacity="1" stop-color="rgb(0%, 64.910889%, 69.285583%)" offset="0.378906"/><stop stop-opacity="1" stop-color="rgb(0%, 64.979553%, 69.078064%)" offset="0.382812"/><stop stop-opacity="1" stop-color="rgb(0%, 65.046692%, 68.870544%)" offset="0.386719"/><stop stop-opacity="1" stop-color="rgb(0%, 65.115356%, 68.663025%)" offset="0.390625"/><stop stop-opacity="1" stop-color="rgb(0%, 65.182495%, 68.453979%)" offset="0.394531"/><stop stop-opacity="1" stop-color="rgb(0%, 65.25116%, 68.24646%)" offset="0.398438"/><stop stop-opacity="1" stop-color="rgb(0%, 65.319824%, 68.037415%)" offset="0.402344"/><stop stop-opacity="1" stop-color="rgb(0%, 65.388489%, 67.829895%)" offset="0.40625"/><stop stop-opacity="1" stop-color="rgb(0%, 65.455627%, 67.622375%)" offset="0.410156"/><stop stop-opacity="1" stop-color="rgb(0%, 65.524292%, 67.414856%)" offset="0.414063"/><stop stop-opacity="1" stop-color="rgb(0%, 65.591431%, 67.205811%)" offset="0.417969"/><stop stop-opacity="1" stop-color="rgb(0%, 65.660095%, 66.998291%)" offset="0.421875"/><stop stop-opacity="1" stop-color="rgb(0%, 65.72876%, 66.790771%)" offset="0.425781"/><stop stop-opacity="1" stop-color="rgb(0%, 65.797424%, 66.583252%)" offset="0.429688"/><stop stop-opacity="1" stop-color="rgb(0%, 65.864563%, 66.374207%)" offset="0.433594"/><stop stop-opacity="1" stop-color="rgb(0%, 65.933228%, 66.166687%)" offset="0.4375"/><stop stop-opacity="1" stop-color="rgb(0%, 66.000366%, 65.959167%)" offset="0.441406"/><stop stop-opacity="1" stop-color="rgb(0%, 66.069031%, 65.751648%)" offset="0.445313"/><stop stop-opacity="1" stop-color="rgb(0%, 66.136169%, 65.542603%)" offset="0.449219"/><stop stop-opacity="1" stop-color="rgb(0%, 66.204834%, 65.335083%)" offset="0.453125"/><stop stop-opacity="1" stop-color="rgb(0%, 66.273499%, 65.126038%)" offset="0.457031"/><stop stop-opacity="1" stop-color="rgb(0%, 66.342163%, 64.918518%)" offset="0.460938"/><stop stop-opacity="1" stop-color="rgb(0%, 66.409302%, 64.710999%)" offset="0.464844"/><stop stop-opacity="1" stop-color="rgb(0%, 66.477966%, 64.503479%)" offset="0.46875"/><stop stop-opacity="1" stop-color="rgb(0%, 66.545105%, 64.294434%)" offset="0.472656"/><stop stop-opacity="1" stop-color="rgb(0%, 66.61377%, 64.086914%)" offset="0.476563"/><stop stop-opacity="1" stop-color="rgb(0%, 66.682434%, 63.879395%)" offset="0.480469"/><stop stop-opacity="1" stop-color="rgb(0%, 66.751099%, 63.671875%)" offset="0.484375"/><stop stop-opacity="1" stop-color="rgb(0%, 66.818237%, 63.46283%)" offset="0.488281"/><stop stop-opacity="1" stop-color="rgb(0%, 66.886902%, 63.25531%)" offset="0.492187"/><stop stop-opacity="1" stop-color="rgb(0%, 66.954041%, 63.046265%)" offset="0.496094"/><stop stop-opacity="1" stop-color="rgb(0%, 67.022705%, 62.838745%)" offset="0.5"/><stop stop-opacity="1" stop-color="rgb(0%, 67.09137%, 62.631226%)" offset="0.503906"/><stop stop-opacity="1" stop-color="rgb(0%, 67.160034%, 62.423706%)" offset="0.507812"/><stop stop-opacity="1" stop-color="rgb(0%, 67.227173%, 62.214661%)" offset="0.511719"/><stop stop-opacity="1" stop-color="rgb(0%, 67.295837%, 62.007141%)" offset="0.515625"/><stop stop-opacity="1" stop-color="rgb(0%, 67.362976%, 61.799622%)" offset="0.519531"/><stop stop-opacity="1" stop-color="rgb(0%, 67.431641%, 61.592102%)" offset="0.523438"/><stop stop-opacity="1" stop-color="rgb(0%, 67.498779%, 61.383057%)" offset="0.527344"/><stop stop-opacity="1" stop-color="rgb(0%, 67.567444%, 61.175537%)" offset="0.53125"/><stop stop-opacity="1" stop-color="rgb(0%, 67.636108%, 60.968018%)" offset="0.535156"/><stop stop-opacity="1" stop-color="rgb(0%, 67.704773%, 60.760498%)" offset="0.539062"/><stop stop-opacity="1" stop-color="rgb(0%, 67.771912%, 60.551453%)" offset="0.542969"/><stop stop-opacity="1" stop-color="rgb(0%, 67.840576%, 60.343933%)" offset="0.546875"/><stop stop-opacity="1" stop-color="rgb(0%, 67.907715%, 60.134888%)" offset="0.550781"/><stop stop-opacity="1" stop-color="rgb(0%, 67.976379%, 59.927368%)" offset="0.554688"/><stop stop-opacity="1" stop-color="rgb(0%, 68.045044%, 59.719849%)" offset="0.558594"/><stop stop-opacity="1" stop-color="rgb(0%, 68.113708%, 59.512329%)" offset="0.5625"/><stop stop-opacity="1" stop-color="rgb(0%, 68.180847%, 59.303284%)" offset="0.566406"/><stop stop-opacity="1" stop-color="rgb(0%, 68.249512%, 59.095764%)" offset="0.570312"/><stop stop-opacity="1" stop-color="rgb(0%, 68.31665%, 58.888245%)" offset="0.574219"/><stop stop-opacity="1" stop-color="rgb(0%, 68.385315%, 58.680725%)" offset="0.578125"/><stop stop-opacity="1" stop-color="rgb(0%, 68.453979%, 58.47168%)" offset="0.582031"/><stop stop-opacity="1" stop-color="rgb(0%, 68.522644%, 58.26416%)" offset="0.585938"/><stop stop-opacity="1" stop-color="rgb(0%, 68.589783%, 58.055115%)" offset="0.589844"/><stop stop-opacity="1" stop-color="rgb(0%, 68.658447%, 57.847595%)" offset="0.59375"/><stop stop-opacity="1" stop-color="rgb(0%, 68.725586%, 57.640076%)" offset="0.597656"/><stop stop-opacity="1" stop-color="rgb(0%, 68.79425%, 57.432556%)" offset="0.601562"/><stop stop-opacity="1" stop-color="rgb(0%, 68.862915%, 57.223511%)" offset="0.605469"/><stop stop-opacity="1" stop-color="rgb(0%, 68.93158%, 57.015991%)" offset="0.609375"/><stop stop-opacity="1" stop-color="rgb(0%, 68.998718%, 56.808472%)" offset="0.613281"/><stop stop-opacity="1" stop-color="rgb(0%, 69.067383%, 56.600952%)" offset="0.617188"/><stop stop-opacity="1" stop-color="rgb(0%, 69.134521%, 56.391907%)" offset="0.621094"/><stop stop-opacity="1" stop-color="rgb(0%, 69.203186%, 56.184387%)" offset="0.625"/><stop stop-opacity="1" stop-color="rgb(0%, 69.270325%, 55.976868%)" offset="0.628906"/><stop stop-opacity="1" stop-color="rgb(0%, 69.338989%, 55.769348%)" offset="0.632812"/><stop stop-opacity="1" stop-color="rgb(0%, 69.407654%, 55.560303%)" offset="0.636719"/><stop stop-opacity="1" stop-color="rgb(0%, 69.476318%, 55.352783%)" offset="0.640625"/><stop stop-opacity="1" stop-color="rgb(0%, 69.543457%, 55.143738%)" offset="0.644531"/><stop stop-opacity="1" stop-color="rgb(0%, 69.612122%, 54.936218%)" offset="0.648438"/><stop stop-opacity="1" stop-color="rgb(0%, 69.67926%, 54.728699%)" offset="0.652344"/><stop stop-opacity="1" stop-color="rgb(0%, 69.747925%, 54.521179%)" offset="0.65625"/><stop stop-opacity="1" stop-color="rgb(0%, 69.816589%, 54.312134%)" offset="0.660156"/><stop stop-opacity="1" stop-color="rgb(0%, 69.885254%, 54.104614%)" offset="0.664062"/><stop stop-opacity="1" stop-color="rgb(0%, 69.952393%, 53.897095%)" offset="0.667969"/><stop stop-opacity="1" stop-color="rgb(0%, 70.021057%, 53.689575%)" offset="0.671875"/><stop stop-opacity="1" stop-color="rgb(0%, 70.088196%, 53.48053%)" offset="0.675781"/><stop stop-opacity="1" stop-color="rgb(0%, 70.15686%, 53.27301%)" offset="0.679688"/><stop stop-opacity="1" stop-color="rgb(0%, 70.225525%, 53.063965%)" offset="0.683594"/><stop stop-opacity="1" stop-color="rgb(0%, 70.294189%, 52.856445%)" offset="0.6875"/><stop stop-opacity="1" stop-color="rgb(0%, 70.361328%, 52.648926%)" offset="0.691406"/><stop stop-opacity="1" stop-color="rgb(0%, 70.429993%, 52.441406%)" offset="0.695312"/><stop stop-opacity="1" stop-color="rgb(0%, 70.497131%, 52.232361%)" offset="0.699219"/><stop stop-opacity="1" stop-color="rgb(0%, 70.565796%, 52.024841%)" offset="0.703125"/><stop stop-opacity="1" stop-color="rgb(0%, 70.632935%, 51.817322%)" offset="0.707031"/><stop stop-opacity="1" stop-color="rgb(0%, 70.701599%, 51.609802%)" offset="0.710938"/><stop stop-opacity="1" stop-color="rgb(0%, 70.770264%, 51.400757%)" offset="0.714844"/><stop stop-opacity="1" stop-color="rgb(0%, 70.838928%, 51.193237%)" offset="0.71875"/><stop stop-opacity="1" stop-color="rgb(0%, 70.906067%, 50.985718%)" offset="0.722656"/><stop stop-opacity="1" stop-color="rgb(0%, 70.974731%, 50.778198%)" offset="0.726562"/><stop stop-opacity="1" stop-color="rgb(0%, 71.04187%, 50.569153%)" offset="0.730469"/><stop stop-opacity="1" stop-color="rgb(0%, 71.110535%, 50.361633%)" offset="0.734375"/><stop stop-opacity="1" stop-color="rgb(0%, 71.179199%, 50.152588%)" offset="0.738281"/><stop stop-opacity="1" stop-color="rgb(0%, 71.247864%, 49.945068%)" offset="0.742188"/><stop stop-opacity="1" stop-color="rgb(0%, 71.315002%, 49.737549%)" offset="0.746094"/><stop stop-opacity="1" stop-color="rgb(0%, 71.383667%, 49.530029%)" offset="0.75"/><stop stop-opacity="1" stop-color="rgb(0%, 71.450806%, 49.320984%)" offset="0.753906"/><stop stop-opacity="1" stop-color="rgb(0%, 71.51947%, 49.113464%)" offset="0.757812"/><stop stop-opacity="1" stop-color="rgb(0%, 71.588135%, 48.905945%)" offset="0.761719"/><stop stop-opacity="1" stop-color="rgb(0%, 71.656799%, 48.698425%)" offset="0.765625"/><stop stop-opacity="1" stop-color="rgb(0%, 71.723938%, 48.48938%)" offset="0.769531"/><stop stop-opacity="1" stop-color="rgb(0%, 71.792603%, 48.28186%)" offset="0.773437"/><stop stop-opacity="1" stop-color="rgb(0%, 71.859741%, 48.074341%)" offset="0.777344"/><stop stop-opacity="1" stop-color="rgb(0%, 71.928406%, 47.866821%)" offset="0.78125"/><stop stop-opacity="1" stop-color="rgb(0%, 71.99707%, 47.657776%)" offset="0.785156"/><stop stop-opacity="1" stop-color="rgb(0%, 72.065735%, 47.450256%)" offset="0.789062"/><stop stop-opacity="1" stop-color="rgb(0%, 72.132874%, 47.241211%)" offset="0.792969"/><stop stop-opacity="1" stop-color="rgb(0%, 72.201538%, 47.033691%)" offset="0.796875"/><stop stop-opacity="1" stop-color="rgb(0%, 72.268677%, 46.826172%)" offset="0.800781"/><stop stop-opacity="1" stop-color="rgb(0%, 72.337341%, 46.618652%)" offset="0.804687"/><stop stop-opacity="1" stop-color="rgb(0%, 72.40448%, 46.409607%)" offset="0.808594"/><stop stop-opacity="1" stop-color="rgb(0%, 72.473145%, 46.202087%)" offset="0.8125"/><stop stop-opacity="1" stop-color="rgb(0%, 72.541809%, 45.994568%)" offset="0.816406"/><stop stop-opacity="1" stop-color="rgb(0%, 72.610474%, 45.787048%)" offset="0.820312"/><stop stop-opacity="1" stop-color="rgb(0%, 72.677612%, 45.578003%)" offset="0.824219"/><stop stop-opacity="1" stop-color="rgb(0%, 72.746277%, 45.370483%)" offset="0.828125"/><stop stop-opacity="1" stop-color="rgb(0%, 72.813416%, 45.161438%)" offset="0.832031"/><stop stop-opacity="1" stop-color="rgb(0%, 72.88208%, 44.953918%)" offset="0.835937"/><stop stop-opacity="1" stop-color="rgb(0%, 72.950745%, 44.746399%)" offset="0.839844"/><stop stop-opacity="1" stop-color="rgb(0%, 73.019409%, 44.538879%)" offset="0.84375"/><stop stop-opacity="1" stop-color="rgb(0%, 73.086548%, 44.329834%)" offset="0.847656"/><stop stop-opacity="1" stop-color="rgb(0%, 73.155212%, 44.122314%)" offset="0.851562"/><stop stop-opacity="1" stop-color="rgb(0%, 73.222351%, 43.914795%)" offset="0.855469"/><stop stop-opacity="1" stop-color="rgb(0%, 73.291016%, 43.707275%)" offset="0.859375"/><stop stop-opacity="1" stop-color="rgb(0%, 73.35968%, 43.49823%)" offset="0.863281"/><stop stop-opacity="1" stop-color="rgb(0%, 73.428345%, 43.29071%)" offset="0.867187"/><stop stop-opacity="1" stop-color="rgb(0%, 73.495483%, 43.083191%)" offset="0.871094"/><stop stop-opacity="1" stop-color="rgb(0%, 73.564148%, 42.875671%)" offset="0.875"/><stop stop-opacity="1" stop-color="rgb(0%, 73.631287%, 42.666626%)" offset="0.878906"/><stop stop-opacity="1" stop-color="rgb(0%, 73.699951%, 42.459106%)" offset="0.882812"/><stop stop-opacity="1" stop-color="rgb(0%, 73.76709%, 42.250061%)" offset="0.886719"/><stop stop-opacity="1" stop-color="rgb(0%, 73.835754%, 42.042542%)" offset="0.890625"/><stop stop-opacity="1" stop-color="rgb(0%, 73.904419%, 41.835022%)" offset="0.894531"/><stop stop-opacity="1" stop-color="rgb(0%, 73.973083%, 41.627502%)" offset="0.898437"/><stop stop-opacity="1" stop-color="rgb(0%, 74.040222%, 41.418457%)" offset="0.902344"/><stop stop-opacity="1" stop-color="rgb(0%, 74.108887%, 41.210938%)" offset="0.90625"/><stop stop-opacity="1" stop-color="rgb(0%, 74.176025%, 41.003418%)" offset="0.910156"/><stop stop-opacity="1" stop-color="rgb(0%, 74.24469%, 40.795898%)" offset="0.914062"/><stop stop-opacity="1" stop-color="rgb(0%, 74.313354%, 40.586853%)" offset="0.917969"/><stop stop-opacity="1" stop-color="rgb(0%, 74.382019%, 40.379333%)" offset="0.921875"/><stop stop-opacity="1" stop-color="rgb(0%, 74.449158%, 40.170288%)" offset="0.925781"/><stop stop-opacity="1" stop-color="rgb(0%, 74.517822%, 39.962769%)" offset="0.929687"/><stop stop-opacity="1" stop-color="rgb(0%, 74.584961%, 39.755249%)" offset="0.933594"/><stop stop-opacity="1" stop-color="rgb(0%, 74.653625%, 39.547729%)" offset="0.9375"/><stop stop-opacity="1" stop-color="rgb(0%, 74.72229%, 39.338684%)" offset="0.941406"/><stop stop-opacity="1" stop-color="rgb(0%, 74.790955%, 39.131165%)" offset="0.945312"/><stop stop-opacity="1" stop-color="rgb(0%, 74.84436%, 38.964844%)" offset="0.953125"/><stop stop-opacity="1" stop-color="rgb(0%, 74.899292%, 38.798523%)" offset="0.96875"/><stop stop-opacity="1" stop-color="rgb(0%, 74.899292%, 38.798523%)" offset="1"/></linearGradient></defs><g clip-path="url(#543cf48fab)"><g clip-path="url(#4b83dc19f9)"><path fill="url(#4503bc7742)" d="M 17.234375 11.902344 L 17.234375 116.621094 L 169.765625 116.621094 L 169.765625 11.902344 Z M 17.234375 11.902344 " fill-rule="nonzero"/></g></g><g fill="#140001" fill-opacity="1"><g transform="translate(27.525344, 139.485124)"><g><path d="M 1.296875 -16.578125 L 8.90625 -16.578125 C 11.4375 -16.578125 12.703125 -15.507812 12.703125 -13.375 L 12.703125 -3.203125 C 12.703125 -1.066406 11.4375 0 8.90625 0 L 1.296875 0 Z M 8.1875 -3.53125 L 8.1875 -13.03125 C 8.1875 -13.414062 7.96875 -13.609375 7.53125 -13.609375 L 5.8125 -13.609375 L 5.8125 -2.96875 L 7.53125 -2.96875 C 7.96875 -2.96875 8.1875 -3.15625 8.1875 -3.53125 Z M 8.1875 -3.53125 "/></g></g></g><g fill="#140001" fill-opacity="1"><g transform="translate(44.792186, 139.485124)"><g><path d="M 5.546875 -5.890625 L 5.546875 0 L 1.03125 0 L 1.03125 -16.578125 L 8.703125 -16.578125 C 11.234375 -16.578125 12.5 -15.507812 12.5 -13.375 L 12.5 -9.09375 C 12.5 -7.457031 11.753906 -6.445312 10.265625 -6.0625 L 13.3125 0 L 8.46875 0 L 5.828125 -5.890625 Z M 7.328125 -13.34375 L 5.546875 -13.34375 L 5.546875 -8.953125 L 7.328125 -8.953125 C 7.753906 -8.953125 7.96875 -9.144531 7.96875 -9.53125 L 7.96875 -12.78125 C 7.96875 -13.15625 7.753906 -13.34375 7.328125 -13.34375 Z M 7.328125 -13.34375 "/></g></g></g><g fill="#140001" fill-opacity="1"><g transform="translate(61.671927, 139.485124)"><g><path d="M 5.546875 -3.21875 L 11.203125 -3.21875 L 11.203125 0 L 1.03125 0 L 1.03125 -16.578125 L 10.96875 -16.578125 L 10.96875 -13.34375 L 5.546875 -13.34375 L 5.546875 -9.96875 L 10.21875 -9.96875 L 10.21875 -6.734375 L 5.546875 -6.734375 Z M 5.546875 -3.21875 "/></g></g></g><g fill="#140001" fill-opacity="1"><g transform="translate(76.874238, 139.485124)"><g><path d="M 9.46875 0 L 8.953125 -2.484375 L 4.984375 -2.484375 L 4.4375 0 L 0 0 L 4.265625 -16.578125 L 9.75 -16.578125 L 14.015625 0 Z M 5.671875 -5.671875 L 8.265625 -5.671875 L 7 -11.640625 Z M 5.671875 -5.671875 "/></g></g></g><g fill="#140001" fill-opacity="1"><g transform="translate(94.502373, 139.485124)"><g><path d="M 5.0625 0 L 1.03125 0 L 1.03125 -16.578125 L 5.96875 -16.578125 L 8.640625 -7.71875 L 11.328125 -16.578125 L 16.265625 -16.578125 L 16.265625 0 L 12.265625 0 L 12.265625 -10.53125 L 10.203125 -3.59375 L 7.09375 -3.59375 L 5.0625 -10.484375 Z M 5.0625 0 "/></g></g></g><g fill="#140001" fill-opacity="1"><g transform="translate(115.407943, 139.485124)"><g><path d="M 5.546875 -3.21875 L 11.203125 -3.21875 L 11.203125 0 L 1.03125 0 L 1.03125 -16.578125 L 10.96875 -16.578125 L 10.96875 -13.34375 L 5.546875 -13.34375 L 5.546875 -9.96875 L 10.21875 -9.96875 L 10.21875 -6.734375 L 5.546875 -6.734375 Z M 5.546875 -3.21875 "/></g></g></g><g fill="#140001" fill-opacity="1"><g transform="translate(130.610253, 139.485124)"><g><path d="M 5.546875 -5.890625 L 5.546875 0 L 1.03125 0 L 1.03125 -16.578125 L 8.703125 -16.578125 C 11.234375 -16.578125 12.5 -15.507812 12.5 -13.375 L 12.5 -9.09375 C 12.5 -7.457031 11.753906 -6.445312 10.265625 -6.0625 L 13.3125 0 L 8.46875 0 L 5.828125 -5.890625 Z M 7.328125 -13.34375 L 5.546875 -13.34375 L 5.546875 -8.953125 L 7.328125 -8.953125 C 7.753906 -8.953125 7.96875 -9.144531 7.96875 -9.53125 L 7.96875 -12.78125 C 7.96875 -13.15625 7.753906 -13.34375 7.328125 -13.34375 Z M 7.328125 -13.34375 "/></g></g></g><g fill="#140001" fill-opacity="1"><g transform="translate(147.489995, 139.485124)"><g><path d="M 11.453125 -16.578125 L 11.453125 -13.34375 L 5.234375 -3.21875 L 11.28125 -3.21875 L 11.28125 0 L 0.515625 0 L 0.515625 -3.21875 L 6.734375 -13.34375 L 0.859375 -13.34375 L 0.859375 -16.578125 Z M 11.453125 -16.578125 "/></g></g></g><g fill="#140001" fill-opacity="1"><g transform="translate(80.534681, 168.612713)"><g><path d="M 6.25 -13.171875 C 7.9375 -13.171875 8.78125 -12.273438 8.78125 -10.484375 L 8.78125 -2.6875 C 8.78125 -0.894531 7.9375 0 6.25 0 L 1.015625 0 L 1.015625 -13.171875 Z M 5.921875 -2.359375 L 5.921875 -10.828125 C 5.921875 -10.941406 5.882812 -11.035156 5.8125 -11.109375 C 5.738281 -11.191406 5.644531 -11.234375 5.53125 -11.234375 L 3.875 -11.234375 L 3.875 -1.953125 L 5.53125 -1.953125 C 5.644531 -1.953125 5.738281 -1.992188 5.8125 -2.078125 C 5.882812 -2.160156 5.921875 -2.253906 5.921875 -2.359375 Z M 5.921875 -2.359375 "/></g></g></g><g fill="#140001" fill-opacity="1"><g transform="translate(96.579646, 168.612713)"><g><path d="M 8.78125 -10.6875 L 8.78125 -2.484375 C 8.78125 -0.691406 7.9375 0.203125 6.25 0.203125 L 3.546875 0.203125 C 1.859375 0.203125 1.015625 -0.691406 1.015625 -2.484375 L 1.015625 -10.6875 C 1.015625 -12.476562 1.859375 -13.375 3.546875 -13.375 L 6.25 -13.375 C 7.9375 -13.375 8.78125 -12.476562 8.78125 -10.6875 Z M 5.921875 -2.15625 L 5.921875 -11.03125 C 5.921875 -11.144531 5.882812 -11.238281 5.8125 -11.3125 C 5.738281 -11.394531 5.644531 -11.4375 5.53125 -11.4375 L 4.25 -11.4375 C 4.144531 -11.4375 4.054688 -11.394531 3.984375 -11.3125 C 3.910156 -11.238281 3.875 -11.144531 3.875 -11.03125 L 3.875 -2.15625 C 3.875 -2.050781 3.910156 -1.957031 3.984375 -1.875 C 4.054688 -1.789062 4.144531 -1.75 4.25 -1.75 L 5.53125 -1.75 C 5.644531 -1.75 5.738281 -1.789062 5.8125 -1.875 C 5.882812 -1.957031 5.921875 -2.050781 5.921875 -2.15625 Z M 5.921875 -2.15625 "/></g></g></g></svg>