<svg xmlns="http://www.w3.org/2000/svg" xmlns:xlink="http://www.w3.org/1999/xlink" width="250" zoomAndPan="magnify" viewBox="0 0 187.5 187.499992" height="250" preserveAspectRatio="xMidYMid meet" version="1.0"><defs><g/><clipPath id="6ddd6f3498"><path d="M 17.222656 11.902344 L 169.691406 11.902344 L 169.691406 117 L 17.222656 117 Z M 17.222656 11.902344 " clip-rule="nonzero"/></clipPath><clipPath id="f62be02fb3"><path d="M 82.21875 95.070312 L 159.78125 95.070312 C 161.429688 92.792969 162.90625 90.378906 164.179688 87.855469 C 164.203125 87.804688 164.226562 87.757812 164.25 87.710938 C 164.785156 86.640625 165.285156 85.550781 165.746094 84.445312 C 166.71875 82.117188 167.527344 79.707031 168.15625 77.230469 L 71.917969 77.230469 L 69.34375 81.691406 L 67.753906 84.445312 L 61.988281 84.445312 L 60.394531 81.691406 L 57.820312 77.230469 L 47.519531 77.230469 L 44.945312 81.691406 L 42.371094 86.148438 L 47.519531 95.070312 L 57.820312 95.070312 L 60.394531 90.609375 L 61.988281 87.855469 L 67.753906 87.855469 L 69.34375 90.609375 L 71.917969 95.070312 Z M 70.425781 44.300781 L 72.015625 47.058594 L 74.589844 51.519531 L 168.15625 51.519531 C 167.527344 49.039062 166.71875 46.628906 165.746094 44.300781 C 165.285156 43.195312 164.785156 42.105469 164.25 41.035156 C 164.226562 40.988281 164.203125 40.941406 164.179688 40.894531 C 162.90625 38.367188 161.429688 35.953125 159.777344 33.679688 L 74.589844 33.679688 L 72.015625 38.136719 L 70.425781 40.894531 L 64.65625 40.894531 L 63.066406 38.136719 L 60.492188 33.679688 L 50.191406 33.679688 L 47.617188 38.136719 L 45.039062 42.597656 L 47.617188 47.058594 L 50.191406 51.519531 L 60.492188 51.519531 L 63.066406 47.058594 L 64.65625 44.300781 Z M 143.761719 19.117188 C 135.976562 14.535156 126.925781 11.902344 117.289062 11.902344 L 97.78125 11.902344 L 95.203125 16.359375 L 93.613281 19.117188 L 87.847656 19.117188 L 83.679688 11.902344 L 73.382812 11.902344 L 70.804688 16.359375 L 69.214844 19.117188 L 68.230469 20.820312 L 69.214844 22.523438 L 70.804688 25.28125 L 73.382812 29.738281 L 83.679688 29.738281 L 86.257812 25.28125 L 87.847656 22.523438 L 93.613281 22.523438 L 95.203125 25.28125 L 97.78125 29.738281 L 156.628906 29.738281 C 154.285156 27.085938 151.679688 24.664062 148.851562 22.523438 C 147.226562 21.292969 145.527344 20.152344 143.761719 19.117188 Z M 37.828125 64.371094 L 35.25 59.914062 L 32.675781 55.453125 L 22.378906 55.453125 L 19.800781 59.914062 L 17.226562 64.371094 L 19.800781 68.832031 L 22.378906 73.292969 L 32.675781 73.292969 L 35.25 68.832031 Z M 49.476562 99.003906 L 23.167969 99.003906 L 18.019531 107.925781 L 20.59375 112.382812 L 23.167969 116.84375 L 49.476562 116.84375 L 52.046875 112.382812 L 53.640625 109.628906 L 59.40625 109.628906 L 60.996094 112.382812 L 63.570312 116.84375 L 117.289062 116.84375 C 126.925781 116.84375 135.976562 114.210938 143.761719 109.628906 C 145.527344 108.589844 147.226562 107.453125 148.851562 106.21875 C 151.679688 104.078125 154.285156 101.660156 156.628906 99.003906 L 63.570312 99.003906 L 60.996094 103.464844 L 59.40625 106.21875 L 53.640625 106.21875 L 52.046875 103.464844 Z M 85.414062 55.453125 L 60.554688 55.453125 L 57.980469 59.914062 L 56.390625 62.667969 L 55.40625 64.375 L 56.390625 66.078125 L 57.980469 68.832031 L 60.554688 73.292969 L 85.414062 73.292969 L 87.992188 68.832031 L 89.582031 66.078125 L 95.347656 66.078125 L 94.363281 64.375 L 96.941406 68.832031 L 99.515625 73.292969 L 168.996094 73.292969 C 169.40625 70.9375 169.652344 68.527344 169.734375 66.078125 C 169.753906 65.511719 169.761719 64.941406 169.761719 64.375 C 169.761719 63.804688 169.753906 63.234375 169.734375 62.667969 C 169.652344 60.21875 169.40625 57.808594 168.996094 55.453125 L 99.515625 55.453125 L 96.941406 59.914062 L 94.363281 64.375 L 95.347656 62.667969 L 89.582031 62.667969 L 87.992188 59.914062 Z M 85.414062 55.453125 " clip-rule="evenodd"/></clipPath><linearGradient x1="2685.391435" gradientTransform="matrix(0.0551665, 0, 0, 0.0551665, 17.227684, 11.901562)" y1="-53.701986" x2="914.649358" gradientUnits="userSpaceOnUse" y2="2529.320483" id="10a49c22d8"><stop stop-opacity="1" stop-color="rgb(0%, 59.599304%, 85.499573%)" offset="0"/><stop stop-opacity="1" stop-color="rgb(0%, 59.599304%, 85.499573%)" offset="0.0625"/><stop stop-opacity="1" stop-color="rgb(0%, 59.634399%, 85.391235%)" offset="0.078125"/><stop stop-opacity="1" stop-color="rgb(0%, 59.738159%, 85.075378%)" offset="0.0820312"/><stop stop-opacity="1" stop-color="rgb(0%, 59.806824%, 84.867859%)" offset="0.0859375"/><stop stop-opacity="1" stop-color="rgb(0%, 59.873962%, 84.658813%)" offset="0.0898437"/><stop stop-opacity="1" stop-color="rgb(0%, 59.942627%, 84.451294%)" offset="0.09375"/><stop stop-opacity="1" stop-color="rgb(0%, 60.009766%, 84.242249%)" offset="0.0976562"/><stop stop-opacity="1" stop-color="rgb(0%, 60.07843%, 84.034729%)" offset="0.101562"/><stop stop-opacity="1" stop-color="rgb(0%, 60.147095%, 83.827209%)" offset="0.105469"/><stop stop-opacity="1" stop-color="rgb(0%, 60.215759%, 83.61969%)" offset="0.109375"/><stop stop-opacity="1" stop-color="rgb(0%, 60.282898%, 83.410645%)" offset="0.113281"/><stop stop-opacity="1" stop-color="rgb(0%, 60.351562%, 83.203125%)" offset="0.117187"/><stop stop-opacity="1" stop-color="rgb(0%, 60.418701%, 82.99408%)" offset="0.121094"/><stop stop-opacity="1" stop-color="rgb(0%, 60.487366%, 82.78656%)" offset="0.125"/><stop stop-opacity="1" stop-color="rgb(0%, 60.55603%, 82.577515%)" offset="0.128906"/><stop stop-opacity="1" stop-color="rgb(0%, 60.624695%, 82.369995%)" offset="0.132812"/><stop stop-opacity="1" stop-color="rgb(0%, 60.691833%, 82.16095%)" offset="0.136719"/><stop stop-opacity="1" stop-color="rgb(0%, 60.760498%, 81.95343%)" offset="0.140625"/><stop stop-opacity="1" stop-color="rgb(0%, 60.829163%, 81.745911%)" offset="0.144531"/><stop stop-opacity="1" stop-color="rgb(0%, 60.897827%, 81.538391%)" offset="0.148437"/><stop stop-opacity="1" stop-color="rgb(0%, 60.964966%, 81.329346%)" offset="0.152344"/><stop stop-opacity="1" stop-color="rgb(0%, 61.03363%, 81.121826%)" offset="0.15625"/><stop stop-opacity="1" stop-color="rgb(0%, 61.100769%, 80.912781%)" offset="0.160156"/><stop stop-opacity="1" stop-color="rgb(0%, 61.169434%, 80.705261%)" offset="0.164062"/><stop stop-opacity="1" stop-color="rgb(0%, 61.238098%, 80.496216%)" offset="0.167969"/><stop stop-opacity="1" stop-color="rgb(0%, 61.306763%, 80.288696%)" offset="0.171875"/><stop stop-opacity="1" stop-color="rgb(0%, 61.373901%, 80.079651%)" offset="0.175781"/><stop stop-opacity="1" stop-color="rgb(0%, 61.442566%, 79.872131%)" offset="0.179687"/><stop stop-opacity="1" stop-color="rgb(0%, 61.509705%, 79.663086%)" offset="0.183594"/><stop stop-opacity="1" stop-color="rgb(0%, 61.578369%, 79.455566%)" offset="0.1875"/><stop stop-opacity="1" stop-color="rgb(0%, 61.647034%, 79.248047%)" offset="0.191406"/><stop stop-opacity="1" stop-color="rgb(0%, 61.715698%, 79.040527%)" offset="0.195312"/><stop stop-opacity="1" stop-color="rgb(0%, 61.782837%, 78.831482%)" offset="0.199219"/><stop stop-opacity="1" stop-color="rgb(0%, 61.851501%, 78.623962%)" offset="0.203125"/><stop stop-opacity="1" stop-color="rgb(0%, 61.920166%, 78.414917%)" offset="0.207031"/><stop stop-opacity="1" stop-color="rgb(0%, 61.988831%, 78.207397%)" offset="0.210937"/><stop stop-opacity="1" stop-color="rgb(0%, 62.055969%, 77.998352%)" offset="0.214844"/><stop stop-opacity="1" stop-color="rgb(0%, 62.124634%, 77.790833%)" offset="0.21875"/><stop stop-opacity="1" stop-color="rgb(0%, 62.191772%, 77.581787%)" offset="0.222656"/><stop stop-opacity="1" stop-color="rgb(0%, 62.260437%, 77.374268%)" offset="0.226562"/><stop stop-opacity="1" stop-color="rgb(0%, 62.329102%, 77.166748%)" offset="0.230469"/><stop stop-opacity="1" stop-color="rgb(0%, 62.397766%, 76.959229%)" offset="0.234375"/><stop stop-opacity="1" stop-color="rgb(0%, 62.464905%, 76.750183%)" offset="0.238281"/><stop stop-opacity="1" stop-color="rgb(0%, 62.533569%, 76.542664%)" offset="0.242188"/><stop stop-opacity="1" stop-color="rgb(0%, 62.600708%, 76.333618%)" offset="0.246094"/><stop stop-opacity="1" stop-color="rgb(0%, 62.669373%, 76.126099%)" offset="0.25"/><stop stop-opacity="1" stop-color="rgb(0%, 62.738037%, 75.917053%)" offset="0.253906"/><stop stop-opacity="1" stop-color="rgb(0%, 62.806702%, 75.709534%)" offset="0.257812"/><stop stop-opacity="1" stop-color="rgb(0%, 62.87384%, 75.500488%)" offset="0.261719"/><stop stop-opacity="1" stop-color="rgb(0%, 62.942505%, 75.292969%)" offset="0.265625"/><stop stop-opacity="1" stop-color="rgb(0%, 63.011169%, 75.085449%)" offset="0.269531"/><stop stop-opacity="1" stop-color="rgb(0%, 63.079834%, 74.87793%)" offset="0.273438"/><stop stop-opacity="1" stop-color="rgb(0%, 63.146973%, 74.668884%)" offset="0.277344"/><stop stop-opacity="1" stop-color="rgb(0%, 63.215637%, 74.461365%)" offset="0.28125"/><stop stop-opacity="1" stop-color="rgb(0%, 63.282776%, 74.252319%)" offset="0.285156"/><stop stop-opacity="1" stop-color="rgb(0%, 63.35144%, 74.0448%)" offset="0.289062"/><stop stop-opacity="1" stop-color="rgb(0%, 63.420105%, 73.835754%)" offset="0.292969"/><stop stop-opacity="1" stop-color="rgb(0%, 63.48877%, 73.628235%)" offset="0.296875"/><stop stop-opacity="1" stop-color="rgb(0%, 63.555908%, 73.419189%)" offset="0.300781"/><stop stop-opacity="1" stop-color="rgb(0%, 63.624573%, 73.21167%)" offset="0.304688"/><stop stop-opacity="1" stop-color="rgb(0%, 63.693237%, 73.002625%)" offset="0.308594"/><stop stop-opacity="1" stop-color="rgb(0%, 63.761902%, 72.795105%)" offset="0.3125"/><stop stop-opacity="1" stop-color="rgb(0%, 63.829041%, 72.587585%)" offset="0.316406"/><stop stop-opacity="1" stop-color="rgb(0%, 63.897705%, 72.380066%)" offset="0.320312"/><stop stop-opacity="1" stop-color="rgb(0%, 63.964844%, 72.171021%)" offset="0.324219"/><stop stop-opacity="1" stop-color="rgb(0%, 64.033508%, 71.963501%)" offset="0.328125"/><stop stop-opacity="1" stop-color="rgb(0%, 64.102173%, 71.754456%)" offset="0.332031"/><stop stop-opacity="1" stop-color="rgb(0%, 64.170837%, 71.546936%)" offset="0.335937"/><stop stop-opacity="1" stop-color="rgb(0%, 64.237976%, 71.337891%)" offset="0.339844"/><stop stop-opacity="1" stop-color="rgb(0%, 64.306641%, 71.130371%)" offset="0.34375"/><stop stop-opacity="1" stop-color="rgb(0%, 64.373779%, 70.921326%)" offset="0.347656"/><stop stop-opacity="1" stop-color="rgb(0%, 64.442444%, 70.713806%)" offset="0.351562"/><stop stop-opacity="1" stop-color="rgb(0%, 64.511108%, 70.506287%)" offset="0.355469"/><stop stop-opacity="1" stop-color="rgb(0%, 64.579773%, 70.298767%)" offset="0.359375"/><stop stop-opacity="1" stop-color="rgb(0%, 64.646912%, 70.089722%)" offset="0.363281"/><stop stop-opacity="1" stop-color="rgb(0%, 64.715576%, 69.882202%)" offset="0.367188"/><stop stop-opacity="1" stop-color="rgb(0%, 64.784241%, 69.673157%)" offset="0.371094"/><stop stop-opacity="1" stop-color="rgb(0%, 64.852905%, 69.465637%)" offset="0.375"/><stop stop-opacity="1" stop-color="rgb(0%, 64.920044%, 69.256592%)" offset="0.378906"/><stop stop-opacity="1" stop-color="rgb(0%, 64.988708%, 69.049072%)" offset="0.382812"/><stop stop-opacity="1" stop-color="rgb(0%, 65.055847%, 68.840027%)" offset="0.386719"/><stop stop-opacity="1" stop-color="rgb(0%, 65.124512%, 68.632507%)" offset="0.390625"/><stop stop-opacity="1" stop-color="rgb(0%, 65.193176%, 68.424988%)" offset="0.394531"/><stop stop-opacity="1" stop-color="rgb(0%, 65.261841%, 68.217468%)" offset="0.398437"/><stop stop-opacity="1" stop-color="rgb(0%, 65.328979%, 68.008423%)" offset="0.402344"/><stop stop-opacity="1" stop-color="rgb(0%, 65.397644%, 67.800903%)" offset="0.40625"/><stop stop-opacity="1" stop-color="rgb(0%, 65.464783%, 67.591858%)" offset="0.410156"/><stop stop-opacity="1" stop-color="rgb(0%, 65.533447%, 67.384338%)" offset="0.414062"/><stop stop-opacity="1" stop-color="rgb(0%, 65.602112%, 67.175293%)" offset="0.417969"/><stop stop-opacity="1" stop-color="rgb(0%, 65.670776%, 66.967773%)" offset="0.421875"/><stop stop-opacity="1" stop-color="rgb(0%, 65.737915%, 66.758728%)" offset="0.425781"/><stop stop-opacity="1" stop-color="rgb(0%, 65.80658%, 66.551208%)" offset="0.429687"/><stop stop-opacity="1" stop-color="rgb(0%, 65.875244%, 66.343689%)" offset="0.433594"/><stop stop-opacity="1" stop-color="rgb(0%, 65.943909%, 66.136169%)" offset="0.4375"/><stop stop-opacity="1" stop-color="rgb(0%, 66.011047%, 65.927124%)" offset="0.441406"/><stop stop-opacity="1" stop-color="rgb(0%, 66.079712%, 65.719604%)" offset="0.445312"/><stop stop-opacity="1" stop-color="rgb(0%, 66.146851%, 65.510559%)" offset="0.449219"/><stop stop-opacity="1" stop-color="rgb(0%, 66.215515%, 65.30304%)" offset="0.453125"/><stop stop-opacity="1" stop-color="rgb(0%, 66.28418%, 65.093994%)" offset="0.457031"/><stop stop-opacity="1" stop-color="rgb(0%, 66.352844%, 64.886475%)" offset="0.460937"/><stop stop-opacity="1" stop-color="rgb(0%, 66.419983%, 64.677429%)" offset="0.464844"/><stop stop-opacity="1" stop-color="rgb(0%, 66.488647%, 64.46991%)" offset="0.46875"/><stop stop-opacity="1" stop-color="rgb(0%, 66.555786%, 64.260864%)" offset="0.472656"/><stop stop-opacity="1" stop-color="rgb(0%, 66.624451%, 64.053345%)" offset="0.476562"/><stop stop-opacity="1" stop-color="rgb(0%, 66.693115%, 63.845825%)" offset="0.480469"/><stop stop-opacity="1" stop-color="rgb(0%, 66.76178%, 63.638306%)" offset="0.484375"/><stop stop-opacity="1" stop-color="rgb(0%, 66.828918%, 63.42926%)" offset="0.488281"/><stop stop-opacity="1" stop-color="rgb(0%, 66.897583%, 63.221741%)" offset="0.492188"/><stop stop-opacity="1" stop-color="rgb(0%, 66.966248%, 63.012695%)" offset="0.496094"/><stop stop-opacity="1" stop-color="rgb(0%, 67.034912%, 62.805176%)" offset="0.5"/><stop stop-opacity="1" stop-color="rgb(0%, 67.102051%, 62.59613%)" offset="0.503906"/><stop stop-opacity="1" stop-color="rgb(0%, 67.170715%, 62.388611%)" offset="0.507812"/><stop stop-opacity="1" stop-color="rgb(0%, 67.237854%, 62.179565%)" offset="0.511719"/><stop stop-opacity="1" stop-color="rgb(0%, 67.306519%, 61.972046%)" offset="0.515625"/><stop stop-opacity="1" stop-color="rgb(0%, 67.375183%, 61.764526%)" offset="0.519531"/><stop stop-opacity="1" stop-color="rgb(0%, 67.443848%, 61.557007%)" offset="0.523438"/><stop stop-opacity="1" stop-color="rgb(0%, 67.510986%, 61.347961%)" offset="0.527344"/><stop stop-opacity="1" stop-color="rgb(0%, 67.579651%, 61.140442%)" offset="0.53125"/><stop stop-opacity="1" stop-color="rgb(0%, 67.648315%, 60.931396%)" offset="0.535156"/><stop stop-opacity="1" stop-color="rgb(0%, 67.71698%, 60.723877%)" offset="0.539062"/><stop stop-opacity="1" stop-color="rgb(0%, 67.784119%, 60.514832%)" offset="0.542969"/><stop stop-opacity="1" stop-color="rgb(0%, 67.852783%, 60.307312%)" offset="0.546875"/><stop stop-opacity="1" stop-color="rgb(0%, 67.919922%, 60.098267%)" offset="0.550781"/><stop stop-opacity="1" stop-color="rgb(0%, 67.988586%, 59.890747%)" offset="0.554688"/><stop stop-opacity="1" stop-color="rgb(0%, 68.057251%, 59.683228%)" offset="0.558594"/><stop stop-opacity="1" stop-color="rgb(0%, 68.125916%, 59.475708%)" offset="0.5625"/><stop stop-opacity="1" stop-color="rgb(0%, 68.193054%, 59.266663%)" offset="0.566406"/><stop stop-opacity="1" stop-color="rgb(0%, 68.261719%, 59.059143%)" offset="0.570312"/><stop stop-opacity="1" stop-color="rgb(0%, 68.328857%, 58.850098%)" offset="0.574219"/><stop stop-opacity="1" stop-color="rgb(0%, 68.397522%, 58.642578%)" offset="0.578125"/><stop stop-opacity="1" stop-color="rgb(0%, 68.466187%, 58.433533%)" offset="0.582031"/><stop stop-opacity="1" stop-color="rgb(0%, 68.534851%, 58.226013%)" offset="0.585937"/><stop stop-opacity="1" stop-color="rgb(0%, 68.60199%, 58.016968%)" offset="0.589844"/><stop stop-opacity="1" stop-color="rgb(0%, 68.670654%, 57.809448%)" offset="0.59375"/><stop stop-opacity="1" stop-color="rgb(0%, 68.739319%, 57.600403%)" offset="0.597656"/><stop stop-opacity="1" stop-color="rgb(0%, 68.807983%, 57.392883%)" offset="0.601562"/><stop stop-opacity="1" stop-color="rgb(0%, 68.875122%, 57.185364%)" offset="0.605469"/><stop stop-opacity="1" stop-color="rgb(0%, 68.943787%, 56.977844%)" offset="0.609375"/><stop stop-opacity="1" stop-color="rgb(0%, 69.010925%, 56.768799%)" offset="0.613281"/><stop stop-opacity="1" stop-color="rgb(0%, 69.07959%, 56.561279%)" offset="0.617187"/><stop stop-opacity="1" stop-color="rgb(0%, 69.148254%, 56.352234%)" offset="0.621094"/><stop stop-opacity="1" stop-color="rgb(0%, 69.216919%, 56.144714%)" offset="0.625"/><stop stop-opacity="1" stop-color="rgb(0%, 69.284058%, 55.935669%)" offset="0.628906"/><stop stop-opacity="1" stop-color="rgb(0%, 69.352722%, 55.728149%)" offset="0.632812"/><stop stop-opacity="1" stop-color="rgb(0%, 69.419861%, 55.519104%)" offset="0.636719"/><stop stop-opacity="1" stop-color="rgb(0%, 69.488525%, 55.311584%)" offset="0.640625"/><stop stop-opacity="1" stop-color="rgb(0%, 69.55719%, 55.104065%)" offset="0.644531"/><stop stop-opacity="1" stop-color="rgb(0%, 69.625854%, 54.896545%)" offset="0.648438"/><stop stop-opacity="1" stop-color="rgb(0%, 69.692993%, 54.6875%)" offset="0.652344"/><stop stop-opacity="1" stop-color="rgb(0%, 69.761658%, 54.47998%)" offset="0.65625"/><stop stop-opacity="1" stop-color="rgb(0%, 69.830322%, 54.270935%)" offset="0.660156"/><stop stop-opacity="1" stop-color="rgb(0%, 69.898987%, 54.063416%)" offset="0.664062"/><stop stop-opacity="1" stop-color="rgb(0%, 69.966125%, 53.85437%)" offset="0.667969"/><stop stop-opacity="1" stop-color="rgb(0%, 70.03479%, 53.646851%)" offset="0.671875"/><stop stop-opacity="1" stop-color="rgb(0%, 70.101929%, 53.437805%)" offset="0.675781"/><stop stop-opacity="1" stop-color="rgb(0%, 70.170593%, 53.230286%)" offset="0.679688"/><stop stop-opacity="1" stop-color="rgb(0%, 70.239258%, 53.022766%)" offset="0.683594"/><stop stop-opacity="1" stop-color="rgb(0%, 70.307922%, 52.815247%)" offset="0.6875"/><stop stop-opacity="1" stop-color="rgb(0%, 70.375061%, 52.606201%)" offset="0.691406"/><stop stop-opacity="1" stop-color="rgb(0%, 70.443726%, 52.398682%)" offset="0.695312"/><stop stop-opacity="1" stop-color="rgb(0%, 70.510864%, 52.189636%)" offset="0.699219"/><stop stop-opacity="1" stop-color="rgb(0%, 70.579529%, 51.982117%)" offset="0.703125"/><stop stop-opacity="1" stop-color="rgb(0%, 70.648193%, 51.773071%)" offset="0.707031"/><stop stop-opacity="1" stop-color="rgb(0%, 70.716858%, 51.565552%)" offset="0.710938"/><stop stop-opacity="1" stop-color="rgb(0%, 70.783997%, 51.356506%)" offset="0.714844"/><stop stop-opacity="1" stop-color="rgb(0%, 70.852661%, 51.148987%)" offset="0.71875"/><stop stop-opacity="1" stop-color="rgb(0%, 70.921326%, 50.941467%)" offset="0.722656"/><stop stop-opacity="1" stop-color="rgb(0%, 70.98999%, 50.733948%)" offset="0.726563"/><stop stop-opacity="1" stop-color="rgb(0%, 71.057129%, 50.524902%)" offset="0.730469"/><stop stop-opacity="1" stop-color="rgb(0%, 71.125793%, 50.317383%)" offset="0.734375"/><stop stop-opacity="1" stop-color="rgb(0%, 71.192932%, 50.108337%)" offset="0.738281"/><stop stop-opacity="1" stop-color="rgb(0%, 71.261597%, 49.900818%)" offset="0.742188"/><stop stop-opacity="1" stop-color="rgb(0%, 71.330261%, 49.691772%)" offset="0.746094"/><stop stop-opacity="1" stop-color="rgb(0%, 71.398926%, 49.484253%)" offset="0.75"/><stop stop-opacity="1" stop-color="rgb(0%, 71.466064%, 49.275208%)" offset="0.753906"/><stop stop-opacity="1" stop-color="rgb(0%, 71.534729%, 49.067688%)" offset="0.757812"/><stop stop-opacity="1" stop-color="rgb(0%, 71.603394%, 48.858643%)" offset="0.761719"/><stop stop-opacity="1" stop-color="rgb(0%, 71.672058%, 48.651123%)" offset="0.765625"/><stop stop-opacity="1" stop-color="rgb(0%, 71.739197%, 48.443604%)" offset="0.769531"/><stop stop-opacity="1" stop-color="rgb(0%, 71.807861%, 48.236084%)" offset="0.773437"/><stop stop-opacity="1" stop-color="rgb(0%, 71.875%, 48.027039%)" offset="0.777344"/><stop stop-opacity="1" stop-color="rgb(0%, 71.943665%, 47.819519%)" offset="0.78125"/><stop stop-opacity="1" stop-color="rgb(0%, 72.012329%, 47.610474%)" offset="0.785156"/><stop stop-opacity="1" stop-color="rgb(0%, 72.080994%, 47.402954%)" offset="0.789062"/><stop stop-opacity="1" stop-color="rgb(0%, 72.148132%, 47.193909%)" offset="0.792969"/><stop stop-opacity="1" stop-color="rgb(0%, 72.216797%, 46.986389%)" offset="0.796875"/><stop stop-opacity="1" stop-color="rgb(0%, 72.283936%, 46.777344%)" offset="0.800781"/><stop stop-opacity="1" stop-color="rgb(0%, 72.3526%, 46.569824%)" offset="0.804688"/><stop stop-opacity="1" stop-color="rgb(0%, 72.421265%, 46.362305%)" offset="0.808594"/><stop stop-opacity="1" stop-color="rgb(0%, 72.489929%, 46.154785%)" offset="0.8125"/><stop stop-opacity="1" stop-color="rgb(0%, 72.557068%, 45.94574%)" offset="0.816406"/><stop stop-opacity="1" stop-color="rgb(0%, 72.625732%, 45.73822%)" offset="0.820312"/><stop stop-opacity="1" stop-color="rgb(0%, 72.694397%, 45.529175%)" offset="0.824219"/><stop stop-opacity="1" stop-color="rgb(0%, 72.763062%, 45.321655%)" offset="0.828125"/><stop stop-opacity="1" stop-color="rgb(0%, 72.8302%, 45.11261%)" offset="0.832031"/><stop stop-opacity="1" stop-color="rgb(0%, 72.898865%, 44.90509%)" offset="0.835938"/><stop stop-opacity="1" stop-color="rgb(0%, 72.966003%, 44.696045%)" offset="0.839844"/><stop stop-opacity="1" stop-color="rgb(0%, 73.034668%, 44.488525%)" offset="0.84375"/><stop stop-opacity="1" stop-color="rgb(0%, 73.103333%, 44.281006%)" offset="0.847656"/><stop stop-opacity="1" stop-color="rgb(0%, 73.171997%, 44.073486%)" offset="0.851562"/><stop stop-opacity="1" stop-color="rgb(0%, 73.239136%, 43.864441%)" offset="0.855469"/><stop stop-opacity="1" stop-color="rgb(0%, 73.3078%, 43.656921%)" offset="0.859375"/><stop stop-opacity="1" stop-color="rgb(0%, 73.374939%, 43.447876%)" offset="0.863281"/><stop stop-opacity="1" stop-color="rgb(0%, 73.443604%, 43.240356%)" offset="0.867188"/><stop stop-opacity="1" stop-color="rgb(0%, 73.512268%, 43.031311%)" offset="0.871094"/><stop stop-opacity="1" stop-color="rgb(0%, 73.580933%, 42.823792%)" offset="0.875"/><stop stop-opacity="1" stop-color="rgb(0%, 73.648071%, 42.614746%)" offset="0.878906"/><stop stop-opacity="1" stop-color="rgb(0%, 73.716736%, 42.407227%)" offset="0.882813"/><stop stop-opacity="1" stop-color="rgb(0%, 73.7854%, 42.198181%)" offset="0.886719"/><stop stop-opacity="1" stop-color="rgb(0%, 73.854065%, 41.990662%)" offset="0.890625"/><stop stop-opacity="1" stop-color="rgb(0%, 73.921204%, 41.783142%)" offset="0.894531"/><stop stop-opacity="1" stop-color="rgb(0%, 73.989868%, 41.575623%)" offset="0.898438"/><stop stop-opacity="1" stop-color="rgb(0%, 74.057007%, 41.366577%)" offset="0.902344"/><stop stop-opacity="1" stop-color="rgb(0%, 74.125671%, 41.159058%)" offset="0.90625"/><stop stop-opacity="1" stop-color="rgb(0%, 74.194336%, 40.950012%)" offset="0.910156"/><stop stop-opacity="1" stop-color="rgb(0%, 74.263%, 40.742493%)" offset="0.914063"/><stop stop-opacity="1" stop-color="rgb(0%, 74.330139%, 40.533447%)" offset="0.917969"/><stop stop-opacity="1" stop-color="rgb(0%, 74.398804%, 40.325928%)" offset="0.921875"/><stop stop-opacity="1" stop-color="rgb(0%, 74.465942%, 40.116882%)" offset="0.925781"/><stop stop-opacity="1" stop-color="rgb(0%, 74.534607%, 39.909363%)" offset="0.929688"/><stop stop-opacity="1" stop-color="rgb(0%, 74.603271%, 39.701843%)" offset="0.933594"/><stop stop-opacity="1" stop-color="rgb(0%, 74.671936%, 39.494324%)" offset="0.9375"/><stop stop-opacity="1" stop-color="rgb(0%, 74.739075%, 39.285278%)" offset="0.941406"/><stop stop-opacity="1" stop-color="rgb(0%, 74.807739%, 39.077759%)" offset="0.945312"/><stop stop-opacity="1" stop-color="rgb(0%, 74.853516%, 38.937378%)" offset="0.953125"/><stop stop-opacity="1" stop-color="rgb(0%, 74.899292%, 38.798523%)" offset="0.96875"/><stop stop-opacity="1" stop-color="rgb(0%, 74.899292%, 38.798523%)" offset="1"/></linearGradient></defs><g clip-path="url(#6ddd6f3498)"><g clip-path="url(#f62be02fb3)"><path fill="url(#10a49c22d8)" d="M 17.226562 11.902344 L 17.226562 116.84375 L 169.691406 116.84375 L 169.691406 11.902344 Z M 17.226562 11.902344 " fill-rule="nonzero"/></g></g><g fill="#d9d9d9" fill-opacity="1"><g transform="translate(27.525344, 139.48511)"><g><path d="M 1.296875 -16.578125 L 8.90625 -16.578125 C 11.4375 -16.578125 12.703125 -15.507812 12.703125 -13.375 L 12.703125 -3.203125 C 12.703125 -1.066406 11.4375 0 8.90625 0 L 1.296875 0 Z M 8.1875 -3.53125 L 8.1875 -13.03125 C 8.1875 -13.414062 7.96875 -13.609375 7.53125 -13.609375 L 5.8125 -13.609375 L 5.8125 -2.96875 L 7.53125 -2.96875 C 7.96875 -2.96875 8.1875 -3.15625 8.1875 -3.53125 Z M 8.1875 -3.53125 "/></g></g></g><g fill="#d9d9d9" fill-opacity="1"><g transform="translate(44.792186, 139.48511)"><g><path d="M 5.546875 -5.890625 L 5.546875 0 L 1.03125 0 L 1.03125 -16.578125 L 8.703125 -16.578125 C 11.234375 -16.578125 12.5 -15.507812 12.5 -13.375 L 12.5 -9.09375 C 12.5 -7.457031 11.753906 -6.445312 10.265625 -6.0625 L 13.3125 0 L 8.46875 0 L 5.828125 -5.890625 Z M 7.328125 -13.34375 L 5.546875 -13.34375 L 5.546875 -8.953125 L 7.328125 -8.953125 C 7.753906 -8.953125 7.96875 -9.144531 7.96875 -9.53125 L 7.96875 -12.78125 C 7.96875 -13.15625 7.753906 -13.34375 7.328125 -13.34375 Z M 7.328125 -13.34375 "/></g></g></g><g fill="#d9d9d9" fill-opacity="1"><g transform="translate(61.671927, 139.48511)"><g><path d="M 5.546875 -3.21875 L 11.203125 -3.21875 L 11.203125 0 L 1.03125 0 L 1.03125 -16.578125 L 10.96875 -16.578125 L 10.96875 -13.34375 L 5.546875 -13.34375 L 5.546875 -9.96875 L 10.21875 -9.96875 L 10.21875 -6.734375 L 5.546875 -6.734375 Z M 5.546875 -3.21875 "/></g></g></g><g fill="#d9d9d9" fill-opacity="1"><g transform="translate(76.874238, 139.48511)"><g><path d="M 9.46875 0 L 8.953125 -2.484375 L 4.984375 -2.484375 L 4.4375 0 L 0 0 L 4.265625 -16.578125 L 9.75 -16.578125 L 14.015625 0 Z M 5.671875 -5.671875 L 8.265625 -5.671875 L 7 -11.640625 Z M 5.671875 -5.671875 "/></g></g></g><g fill="#d9d9d9" fill-opacity="1"><g transform="translate(94.502373, 139.48511)"><g><path d="M 5.0625 0 L 1.03125 0 L 1.03125 -16.578125 L 5.96875 -16.578125 L 8.640625 -7.71875 L 11.328125 -16.578125 L 16.265625 -16.578125 L 16.265625 0 L 12.265625 0 L 12.265625 -10.53125 L 10.203125 -3.59375 L 7.09375 -3.59375 L 5.0625 -10.484375 Z M 5.0625 0 "/></g></g></g><g fill="#d9d9d9" fill-opacity="1"><g transform="translate(115.407943, 139.48511)"><g><path d="M 5.546875 -3.21875 L 11.203125 -3.21875 L 11.203125 0 L 1.03125 0 L 1.03125 -16.578125 L 10.96875 -16.578125 L 10.96875 -13.34375 L 5.546875 -13.34375 L 5.546875 -9.96875 L 10.21875 -9.96875 L 10.21875 -6.734375 L 5.546875 -6.734375 Z M 5.546875 -3.21875 "/></g></g></g><g fill="#d9d9d9" fill-opacity="1"><g transform="translate(130.610253, 139.48511)"><g><path d="M 5.546875 -5.890625 L 5.546875 0 L 1.03125 0 L 1.03125 -16.578125 L 8.703125 -16.578125 C 11.234375 -16.578125 12.5 -15.507812 12.5 -13.375 L 12.5 -9.09375 C 12.5 -7.457031 11.753906 -6.445312 10.265625 -6.0625 L 13.3125 0 L 8.46875 0 L 5.828125 -5.890625 Z M 7.328125 -13.34375 L 5.546875 -13.34375 L 5.546875 -8.953125 L 7.328125 -8.953125 C 7.753906 -8.953125 7.96875 -9.144531 7.96875 -9.53125 L 7.96875 -12.78125 C 7.96875 -13.15625 7.753906 -13.34375 7.328125 -13.34375 Z M 7.328125 -13.34375 "/></g></g></g><g fill="#d9d9d9" fill-opacity="1"><g transform="translate(147.489995, 139.48511)"><g><path d="M 11.453125 -16.578125 L 11.453125 -13.34375 L 5.234375 -3.21875 L 11.28125 -3.21875 L 11.28125 0 L 0.515625 0 L 0.515625 -3.21875 L 6.734375 -13.34375 L 0.859375 -13.34375 L 0.859375 -16.578125 Z M 11.453125 -16.578125 "/></g></g></g><g fill="#d9d9d9" fill-opacity="1"><g transform="translate(80.534681, 168.612713)"><g><path d="M 6.25 -13.171875 C 7.9375 -13.171875 8.78125 -12.273438 8.78125 -10.484375 L 8.78125 -2.6875 C 8.78125 -0.894531 7.9375 0 6.25 0 L 1.015625 0 L 1.015625 -13.171875 Z M 5.921875 -2.359375 L 5.921875 -10.828125 C 5.921875 -10.941406 5.882812 -11.035156 5.8125 -11.109375 C 5.738281 -11.191406 5.644531 -11.234375 5.53125 -11.234375 L 3.875 -11.234375 L 3.875 -1.953125 L 5.53125 -1.953125 C 5.644531 -1.953125 5.738281 -1.992188 5.8125 -2.078125 C 5.882812 -2.160156 5.921875 -2.253906 5.921875 -2.359375 Z M 5.921875 -2.359375 "/></g></g></g><g fill="#d9d9d9" fill-opacity="1"><g transform="translate(96.579646, 168.612713)"><g><path d="M 8.78125 -10.6875 L 8.78125 -2.484375 C 8.78125 -0.691406 7.9375 0.203125 6.25 0.203125 L 3.546875 0.203125 C 1.859375 0.203125 1.015625 -0.691406 1.015625 -2.484375 L 1.015625 -10.6875 C 1.015625 -12.476562 1.859375 -13.375 3.546875 -13.375 L 6.25 -13.375 C 7.9375 -13.375 8.78125 -12.476562 8.78125 -10.6875 Z M 5.921875 -2.15625 L 5.921875 -11.03125 C 5.921875 -11.144531 5.882812 -11.238281 5.8125 -11.3125 C 5.738281 -11.394531 5.644531 -11.4375 5.53125 -11.4375 L 4.25 -11.4375 C 4.144531 -11.4375 4.054688 -11.394531 3.984375 -11.3125 C 3.910156 -11.238281 3.875 -11.144531 3.875 -11.03125 L 3.875 -2.15625 C 3.875 -2.050781 3.910156 -1.957031 3.984375 -1.875 C 4.054688 -1.789062 4.144531 -1.75 4.25 -1.75 L 5.53125 -1.75 C 5.644531 -1.75 5.738281 -1.789062 5.8125 -1.875 C 5.882812 -1.957031 5.921875 -2.050781 5.921875 -2.15625 Z M 5.921875 -2.15625 "/></g></g></g></svg>